{
.appVersion = "3340";
.formatVersion = 3;
DisplayStrings = (
"Im Anfang war das Wort, und das Wort war bei Gott, und Gott war das Wort. Dasselbe war im Anfang bei Gott. Alle Dinge sind durch dasselbe gemacht, und ohne dasselbe ist nichts gemacht, was gemacht ist. In ihm war das Leben, und das Leben war das Licht der Menschen. Und das Licht scheint in der Finsternis, und die Finsternis hat’s nicht ergriffen. Es war ein Mensch, von Gott gesandt, der hieß Johannes. Der kam zum Zeugnis, um von dem Licht zu zeugen, damit sie alle durch ihn glaubten. Er war nicht das Licht, sondern er sollte zeugen von dem Licht. Das war das wahre Licht, das alle Menschen erleuchtet, die in diese Welt kommen. Er war in der Welt, und die Welt ist durch ihn gemacht; aber die Welt erkannte ihn nicht. ",
"ENIRSTADH-/e.1/e.-1 e/n.-1/n.1 ni/r.-1/r.1 r/s.-1/s.1 s/t.1/t.-1 t/a.1/a.-1 a/d.-1/d.1 d/h.-1/h.1 h",

glyphs = (
{
color = 2;
glyphname = A;
lastChange = "2025-01-11 07:08:04 +0000";
layers = (
{
anchors = (
{
name = bottom;
pos = (331,0);
},
{
name = ogonek;
pos = (590,8);
},
{
name = top;
pos = (331,517);
}
);
color = 4;
layerId = m005;
shapes = (
{
closed = 1;
nodes = (
(640,-1,l),
(640,22,l),
(574,34,o),
(556,54,o),
(528,113,cs),
(465,259,o),
(403,403,o),
(339,548,c),
(301,484,l),
(298,466,l),
(442,118,ls),
(476,37,o),
(463,37,o),
(387,22,c),
(387,-1,l)
);
},
{
closed = 1;
nodes = (
(259,-1,l),
(259,22,l),
(189,27,o),
(164,48,o),
(189,109,cs),
(335,474,l),
(302,486,l),
(242,341,o),
(178,166,o),
(121,71,cs),
(104,42,o),
(64,21,o),
(23,22,c),
(23,-1,l)
);
},
{
closed = 1;
nodes = (
(441,216,l),
(428,251,l),
(219,251,l),
(203,216,l)
);
}
);
width = 646;
}
);
unicode = 65;
},
{
color = 2;
glyphname = AE;
lastChange = "2025-01-11 07:08:04 +0000";
layers = (
{
anchors = (
{
name = bottom;
pos = (422,0);
},
{
name = top;
pos = (422,517);
}
);
color = 10;
layerId = m005;
shapes = (
{
closed = 1;
nodes = (
(259,-1,l),
(259,20,l),
(187,19,o),
(154,49,o),
(190,108,cs),
(431,501,l),
(381,520,l),
(306,381,o),
(176,166,o),
(119,71,cs),
(102,42,o),
(62,21,o),
(23,22,c),
(23,-1,l)
);
},
{
closed = 1;
nodes = (
(496,229,l),
(483,265,l),
(239,265,l),
(223,229,l)
);
},
{
closed = 1;
nodes = (
(373,-2,o),
(420,-1,o),
(463,-1,cs),
(597,-1,o),
(715,-2,o),
(785,-4,c),
(798,36,o),
(807,93,o),
(807,133,c),
(776,133,l),
(765,76,o),
(731,39,o),
(692,36,cs),
(662,35,o),
(633,34,o),
(582,34,cs),
(547,34,o),
(520,43,o),
(513,57,cs),
(510,62,o),
(508,77,o),
(508,90,cs),
(506,260,ls),
(506,275,o),
(508,342,o),
(508,428,cs),
(508,484,l),
(578,484,o),
(581,485,o),
(645,482,cs),
(667,480,o),
(687,457,o),
(694,418,c),
(730,418,l),
(731,450,o),
(735,494,o),
(742,521,c),
(683,519,o),
(586,518,o),
(472,518,cs),
(426,518,o),
(332,519,o),
(313,521,c),
(310,501,l),
(350,491,o),
(356,482,o),
(370,475,c),
(433,475,l),
(434,262,l),
(432,76,ls),
(432,55,o),
(422,35,o),
(407,28,c),
(406,27,o),
(387,22,o),
(354,19,c),
(354,-4,l)
);
},
{
closed = 1;
nodes = (
(681,154,l),
(675,209,o),
(675,288,o),
(681,344,c),
(651,344,l),
(650,339,o),
(648,326,o),
(643,314,cs),
(630,284,o),
(636,265,o),
(584,265,cs),
(453,265,l),
(453,229,l),
(584,229,ls),
(642,229,o),
(635,213,o),
(644,185,cs),
(648,175,o),
(650,164,o),
(653,154,c)
);
}
);
width = 828;
}
);
unicode = 198;
},
{
color = 2;
glyphname = B;
lastChange = "2025-01-11 07:08:04 +0000";
layers = (
{
anchors = (
{
name = bottom;
pos = (273,0);
},
{
name = center;
pos = (141,129);
},
{
name = top;
pos = (273,517);
}
);
color = 2;
guides = (
{
angle = 270;
pos = (18,13);
}
);
layerId = m005;
shapes = (
{
closed = 1;
nodes = (
(23,-1,l),
(295,-1,l),
(295,35,l),
(253,35,o),
(214,33,o),
(197,46,cs),
(189,53,o),
(185,62,o),
(185,76,cs),
(183,258,o),
(182,316,o),
(186,481,c),
(205,483,o),
(258,483,o),
(276,483,c),
(276,518,l),
(23,518,l),
(23,495,l),
(56,491,o),
(79,488,o),
(92,479,cs),
(101,474,o),
(105,463,o),
(105,441,cs),
(106,211,o),
(111,97,o),
(111,262,cs),
(111,432,o),
(106,314,o),
(105,76,cs),
(105,56,o),
(100,44,o),
(92,37,cs),
(77,25,o),
(52,27,o),
(23,22,c)
);
},
{
closed = 1;
nodes = (
(170,266,o),
(181,266,o),
(208,266,cs),
(358,266,o),
(454,318,o),
(454,404,cs),
(454,471,o),
(379,519,o),
(272,518,c),
(272,483,l),
(329,484,o),
(368,444,o),
(368,388,cs),
(368,325,o),
(305,293,o),
(201,293,cs),
(144,293,l),
(145,266,l)
);
},
{
closed = 1;
nodes = (
(409,-2,o),
(491,65,o),
(491,160,cs),
(491,235,o),
(410,281,o),
(299,285,cs),
(128,292,l),
(128,263,l),
(149,263,o),
(160,263,o),
(195,263,cs),
(318,263,o),
(401,221,o),
(401,144,cs),
(401,79,o),
(356,34,o),
(291,35,c),
(291,-1,l)
);
}
);
width = 530;
}
);
unicode = 66;
},
{
color = 2;
glyphname = C;
lastChange = "2025-01-11 07:08:04 +0000";
layers = (
{
anchors = (
{
name = bottom;
pos = (384,0);
},
{
name = top;
pos = (383,517);
}
);
backgroundImage = {
imagePath = "../../Desktop/Bildschirmfoto 2024-12-24 um 08.52.09.png";
pos = (714,-952);
scale = (-1.288,1.176);
};
color = 4;
layerId = m005;
shapes = (
{
closed = 1;
nodes = (
(450,-10,o),
(538,8,o),
(588,32,c),
(605,89,o),
(619,147,o),
(623,170,c),
(586,169,l),
(564,86,o),
(486,29,o),
(397,29,cs),
(256,29,o),
(159,133,o),
(159,281,cs),
(159,405,o),
(253,491,o),
(389,491,cs),
(473,491,o),
(542,438,o),
(556,362,c),
(596,362,l),
(594,505,l),
(546,483,l),
(514,510,o),
(447,528,o),
(380,528,cs),
(189,528,o),
(56,417,o),
(56,262,cs),
(56,103,o),
(189,-10,o),
(380,-10,cs)
);
}
);
width = 662;
}
);
unicode = 67;
},
{
color = 2;
glyphname = D;
lastChange = "2025-01-11 07:08:04 +0000";
layers = (
{
anchors = (
{
name = bottom;
pos = (331,0);
},
{
name = center;
pos = (170,259);
},
{
name = top;
pos = (331,517);
}
);
background = {
shapes = (
{
closed = 1;
nodes = (
(20,0,l),
(303,0,l),
(303,40,l),
(258,40,o),
(223,38,o),
(204,54,cs),
(195,62,o),
(190,73,o),
(190,91,cs),
(188,307,o),
(187,377,o),
(191,574,c),
(208,576,o),
(260,576,o),
(283,576,c),
(283,616,l),
(20,616,l),
(20,591,l),
(54,581,o),
(78,582,o),
(92,572,cs),
(102,565,o),
(107,552,o),
(107,525,cs),
(108,341,o),
(109,253,o),
(109,312,cs),
(109,373,o),
(108,282,o),
(107,91,cs),
(107,65,o),
(101,51,o),
(92,43,cs),
(76,29,o),
(50,31,o),
(20,25,c)
);
}
);
};
backgroundImage = {
imagePath = "../../Desktop/Bildschirmfoto 2024-12-24 um 13.06.05.png";
pos = (759,-1011);
scale = (-1.288,1.176);
};
color = 2;
layerId = m005;
shapes = (
{
closed = 1;
nodes = (
(23,-1,l),
(42,-1,o),
(102,-1,o),
(142,-1,cs),
(162,-1,o),
(211,-1,o),
(290,-4,c),
(303,33,l),
(255,33,o),
(218,29,o),
(197,47,cs),
(189,54,o),
(185,62,o),
(185,76,cs),
(185,159,o),
(185,398,o),
(186,481,c),
(228,484,o),
(258,485,o),
(300,485,c),
(315,521,l),
(238,520,o),
(181,518,o),
(144,518,cs),
(101,518,o),
(51,518,o),
(23,518,c),
(23,495,l),
(58,489,o),
(80,488,o),
(92,479,c),
(100,475,o),
(105,463,o),
(105,441,cs),
(106,345,o),
(107,271,o),
(107,262,cs),
(107,254,o),
(106,176,o),
(105,76,cs),
(105,56,o),
(101,45,o),
(92,37,cs),
(79,27,o),
(55,26,o),
(23,22,c)
);
},
{
closed = 1;
nodes = (
(286,-4,l),
(472,-4,o),
(606,112,o),
(606,275,cs),
(606,419,o),
(485,522,o),
(311,521,c),
(296,485,l),
(425,486,o),
(517,389,o),
(517,250,cs),
(517,123,o),
(428,32,o),
(299,33,c)
);
}
);
width = 646;
}
);
unicode = 68;
},
{
glyphname = Dcroat;
lastChange = "2025-01-10 16:10:14 +0000";
layers = (
{
layerId = m005;
shapes = (
{
ref = D;
},
{
closed = 1;
nodes = (
(45,268,l),
(272,351,l),
(260,388,l),
(32,305,l)
);
}
);
width = 702;
}
);
unicode = 272;
},
{
color = 2;
glyphname = E;
lastChange = "2025-01-11 07:08:04 +0000";
layers = (
{
anchors = (
{
name = bottom;
pos = (273,0);
},
{
name = ogonek;
pos = (468,8);
},
{
name = top;
pos = (273,517);
},
{
name = topleft;
pos = (27,517);
}
);
background = {
shapes = (
{
closed = 1;
nodes = (
(20,0,l),
(303,0,l),
(303,40,l),
(258,40,o),
(223,38,o),
(204,54,cs),
(195,62,o),
(190,73,o),
(190,91,cs),
(188,307,o),
(187,377,o),
(191,574,c),
(208,576,o),
(260,576,o),
(283,576,c),
(283,616,l),
(20,616,l),
(20,591,l),
(54,581,o),
(78,582,o),
(92,572,cs),
(102,565,o),
(107,552,o),
(107,525,cs),
(108,341,o),
(109,253,o),
(109,312,cs),
(109,373,o),
(108,282,o),
(107,91,cs),
(107,65,o),
(101,51,o),
(92,43,cs),
(76,29,o),
(50,31,o),
(20,25,c)
);
}
);
};
color = 2;
layerId = m005;
shapes = (
{
closed = 1;
nodes = (
(47,-2,o),
(93,-1,o),
(135,-1,cs),
(268,-1,o),
(415,-2,o),
(485,-4,c),
(496,36,o),
(505,92,o),
(507,133,c),
(476,133,l),
(465,76,o),
(431,39,o),
(392,36,cs),
(362,35,o),
(304,34,o),
(251,34,cs),
(220,34,o),
(206,38,o),
(196,46,cs),
(188,54,o),
(185,66,o),
(185,82,cs),
(185,224,o),
(184,347,o),
(186,481,c),
(220,483,o),
(245,483,o),
(265,483,cs),
(291,483,o),
(323,483,o),
(352,481,cs),
(375,479,o),
(395,457,o),
(402,418,c),
(437,418,l),
(438,450,o),
(443,494,o),
(449,521,c),
(391,519,o),
(257,518,o),
(144,518,cs),
(98,518,o),
(49,519,o),
(23,520,c),
(23,494,l),
(55,490,o),
(78,487,o),
(92,475,cs),
(100,468,o),
(105,456,o),
(105,438,cs),
(107,316,o),
(107,198,o),
(105,76,cs),
(105,57,o),
(100,44,o),
(92,36,cs),
(79,25,o),
(57,23,o),
(23,20,c),
(23,-3,l)
);
},
{
closed = 1;
nodes = (
(381,172,l),
(376,227,o),
(376,307,o),
(381,362,c),
(353,362,l),
(352,357,o),
(348,344,o),
(343,333,cs),
(327,302,o),
(307,283,o),
(253,283,cs),
(127,283,l),
(127,248,l),
(253,248,ls),
(314,248,o),
(333,230,o),
(344,203,cs),
(354,172,l)
);
}
);
width = 530;
}
);
unicode = 69;
},
{
glyphname = Schwa;
lastChange = "2025-01-10 16:07:50 +0000";
layers = (
{
anchors = (
{
name = bottom;
pos = (256,608);
},
{
name = ogonek;
pos = (138,593);
},
{
name = top;
pos = (239,6);
}
);
layerId = m005;
shapes = (
{
closed = 1;
nodes = (
(405,133,o),
(357,30,o),
(267,30,cs),
(197,30,o),
(129,104,o),
(125,209,c),
(417,214,l),
(423,246,l),
(36,251,l),
(36,234,l),
(36,91,o),
(133,-11,o),
(248,-11,cs),
(397,-11,o),
(486,124,o),
(486,314,cs),
(486,497,o),
(391,626,o),
(256,626,cs),
(175,626,o),
(85,557,o),
(38,459,c),
(62,439,l),
(102,509,o),
(171,558,o),
(229,558,cs),
(332,558,o),
(405,442,o),
(405,279,cs)
);
}
);
width = 522;
}
);
unicode = 399;
},
{
color = 2;
glyphname = F;
lastChange = "2025-01-11 07:08:04 +0000";
layers = (
{
anchors = (
{
name = bottom;
pos = (232,0);
},
{
name = top;
pos = (232,517);
}
);
background = {
shapes = (
{
closed = 1;
nodes = (
(20,0,l),
(303,0,l),
(303,40,l),
(258,40,o),
(223,38,o),
(204,54,cs),
(195,62,o),
(190,73,o),
(190,91,cs),
(188,307,o),
(187,377,o),
(191,574,c),
(208,576,o),
(260,576,o),
(283,576,c),
(283,616,l),
(20,616,l),
(20,591,l),
(54,581,o),
(78,582,o),
(92,572,cs),
(102,565,o),
(107,552,o),
(107,525,cs),
(108,341,o),
(109,253,o),
(109,312,cs),
(109,373,o),
(108,282,o),
(107,91,cs),
(107,65,o),
(101,51,o),
(92,43,cs),
(76,29,o),
(50,31,o),
(20,25,c)
);
}
);
};
color = 2;
layerId = m005;
shapes = (
{
closed = 1;
nodes = (
(35,-1,o),
(243,-1,o),
(292,-1,c),
(292,25,l),
(244,30,o),
(213,30,o),
(196,46,cs),
(188,55,o),
(184,67,o),
(184,87,cs),
(182,218,o),
(183,349,o),
(186,481,c),
(207,482,o),
(249,483,o),
(269,483,cs),
(294,483,o),
(315,483,o),
(344,481,cs),
(367,479,o),
(385,457,o),
(393,418,c),
(426,418,l),
(428,450,o),
(434,494,o),
(441,521,c),
(383,519,o),
(256,518,o),
(144,518,cs),
(98,518,o),
(49,519,o),
(24,520,c),
(24,496,l),
(56,491,o),
(78,490,o),
(92,479,cs),
(100,472,o),
(105,461,o),
(105,441,cs),
(107,319,o),
(107,198,o),
(105,76,cs),
(105,57,o),
(101,45,o),
(94,38,cs),
(82,26,o),
(60,24,o),
(23,20,c),
(23,-2,l)
);
},
{
closed = 1;
nodes = (
(386,172,l),
(380,227,o),
(380,307,o),
(386,362,c),
(361,362,l),
(360,357,o),
(356,344,o),
(351,333,cs),
(336,302,o),
(315,283,o),
(261,283,cs),
(136,283,l),
(136,248,l),
(261,248,ls),
(322,248,o),
(341,230,o),
(352,203,cs),
(362,172,l)
);
}
);
width = 447;
}
);
unicode = 70;
},
{
color = 2;
glyphname = G;
lastChange = "2025-01-11 07:08:04 +0000";
layers = (
{
anchors = (
{
name = bottom;
pos = (339,0);
},
{
name = top;
pos = (339,517);
}
);
backgroundImage = {
imagePath = "../../Desktop/Bildschirmfoto 2024-12-23 um 19.38.00.png";
pos = (715,-876);
scale = (-1.2604,1.1501);
};
color = 3;
layerId = m005;
shapes = (
{
closed = 1;
nodes = (
(458,-10,o),
(553,9,o),
(603,36,c),
(599,48,l),
(583,48,o),
(573,56,o),
(573,66,cs),
(573,175,ls),
(573,196,o),
(584,213,o),
(604,217,cs),
(640,222,l),
(640,249,l),
(404,249,l),
(404,218,l),
(453,211,o),
(493,196,o),
(493,165,cs),
(493,64,ls),
(493,46,o),
(462,29,o),
(421,29,cs),
(255,29,o),
(146,118,o),
(146,280,cs),
(146,405,o),
(251,493,o),
(393,493,cs),
(480,493,o),
(545,443,o),
(548,372,c),
(581,372,l),
(583,416,o),
(589,469,o),
(595,500,c),
(550,516,o),
(462,528,o),
(385,528,cs),
(196,528,o),
(56,416,o),
(56,259,cs),
(56,102,o),
(194,-10,o),
(380,-10,cs)
);
}
);
width = 662;
}
);
unicode = 71;
},
{
color = 2;
glyphname = H;
lastChange = "2025-01-11 07:08:04 +0000";
layers = (
{
anchors = (
{
name = bottom;
pos = (356,0);
},
{
name = center;
pos = (356,388);
},
{
name = top;
pos = (356,517);
},
{
name = topleft;
pos = (27,517);
}
);
background = {
shapes = (
{
closed = 1;
nodes = (
(180,609,l,{
"Letterink-NibData" = {
AngleInDegrees = "0";
};
}),
(176,616,l,{
"Letterink-NibData" = {
AngleInDegrees = "360";
};
}),
(107,576,l),
(107,7,l,{
"Letterink-NibData" = {
AngleInDegrees = "360";
};
}),
(111,0,l,{
"Letterink-NibData" = {
AngleInDegrees = "360";
};
}),
(180,40,l),
(180,304,l),
(594,304,l),
(594,7,l,{
"Letterink-NibData" = {
AngleInDegrees = "360";
};
}),
(598,0,l,{
"Letterink-NibData" = {
AngleInDegrees = "360";
};
}),
(668,40,l),
(668,609,l,{
"Letterink-NibData" = {
AngleInDegrees = "0";
};
}),
(664,616,l,{
"Letterink-NibData" = {
AngleInDegrees = "359.99999";
};
}),
(594,576,l),
(594,351,l),
(180,351,l)
);
},
{
closed = 0;
nodes = (
(252,616,l),
(252,591,l),
(224,583,o),
(206,576,o),
(195,564,cs),
(186,553,o),
(182,538,o),
(182,512,cs)
);
}
);
};
color = 1;
layerId = m005;
shapes = (
{
closed = 1;
nodes = (
(273,0,l),
(273,21,l),
(245,28,o),
(205,33,o),
(195,43,cs),
(186,51,o),
(181,65,o),
(181,87,cs),
(180,150,o),
(180,212,o),
(179,274,cs),
(178,326,o),
(180,378,o),
(181,430,cs),
(181,453,o),
(187,467,o),
(195,475,cs),
(205,485,o),
(245,490,o),
(273,496,c),
(273,517,l),
(25,517,l),
(25,496,l),
(45,490,o),
(85,484,o),
(95,474,cs),
(103,465,o),
(107,452,o),
(107,430,cs),
(108,378,o),
(109,327,o),
(109,275,cs),
(109,213,o),
(108,150,o),
(107,87,cs),
(107,66,o),
(103,53,o),
(95,44,cs),
(85,34,o),
(45,28,o),
(25,21,c),
(25,0,l)
);
},
{
closed = 1;
nodes = (
(687,0,l),
(687,21,l),
(668,28,o),
(629,33,o),
(619,43,cs),
(610,51,o),
(605,65,o),
(605,87,cs),
(604,150,o),
(604,214,o),
(604,277,cs),
(603,328,o),
(604,379,o),
(605,430,cs),
(605,453,o),
(609,465,o),
(619,475,cs),
(629,485,o),
(668,490,o),
(687,496,c),
(687,517,l),
(439,517,l),
(439,496,l),
(468,490,o),
(509,484,o),
(519,474,cs),
(527,465,o),
(531,452,o),
(531,430,cs),
(532,379,o),
(533,328,o),
(533,276,cs),
(533,213,o),
(532,150,o),
(531,87,cs),
(531,66,o),
(527,53,o),
(519,44,cs),
(509,34,o),
(468,28,o),
(439,21,c),
(439,0,l)
);
},
{
closed = 1;
nodes = (
(561,255,l),
(561,293,l),
(150,293,l),
(150,255,l)
);
}
);
width = 696;
}
);
note = H;
unicode = 72;
},
{
glyphname = Hbar;
lastChange = "2025-01-10 16:09:46 +0000";
layers = (
{
layerId = m005;
shapes = (
{
ref = H;
},
{
closed = 1;
nodes = (
(55,487,l),
(703,487,l),
(703,527,l),
(55,527,l)
);
}
);
width = 756;
}
);
unicode = 294;
},
{
color = 2;
glyphname = I;
lastChange = "2025-01-11 07:08:04 +0000";
layers = (
{
anchors = (
{
name = bottom;
pos = (141,0);
},
{
name = ogonek;
pos = (247,8);
},
{
name = top;
pos = (141,517);
},
{
name = topleft;
pos = (27,517);
}
);
background = {
shapes = (
{
closed = 1;
nodes = (
(182,40,l),
(182,609,l,{
"Letterink-NibData" = {
AngleInDegrees = "0";
};
}),
(178,616,l,{
"Letterink-NibData" = {
AngleInDegrees = "360";
};
}),
(109,576,l),
(109,7,l,{
"Letterink-NibData" = {
AngleInDegrees = "360";
};
}),
(113,0,l,{
"Letterink-NibData" = {
AngleInDegrees = "360";
};
})
);
}
);
};
color = 1;
layerId = m005;
shapes = (
{
closed = 1;
nodes = (
(23,-1,l),
(259,-1,l),
(259,22,l),
(223,27,o),
(201,28,o),
(190,35,cs),
(179,42,o),
(177,54,o),
(177,76,cs),
(175,182,o),
(177,275,o),
(177,441,cs),
(177,466,o),
(184,478,o),
(198,484,cs),
(214,491,o),
(237,491,o),
(259,495,c),
(259,518,l),
(23,518,l),
(23,497,l),
(57,492,o),
(80,491,o),
(92,482,cs),
(101,474,o),
(105,463,o),
(105,441,cs),
(107,321,o),
(107,197,o),
(105,76,cs),
(105,53,o),
(102,40,o),
(93,34,cs),
(79,24,o),
(55,26,o),
(23,22,c)
);
}
);
width = 265;
}
);
note = I;
unicode = 73;
},
{
color = 2;
glyphname = J;
lastChange = "2025-01-11 07:08:04 +0000";
layers = (
{
anchors = (
{
name = bottom;
pos = (132,0);
},
{
name = top;
pos = (132,517);
}
);
color = 1;
layerId = m005;
shapes = (
{
closed = 1;
nodes = (
(37,-196,o),
(87,-161,o),
(103,-140,cs),
(146,-82,o),
(179,24,o),
(177,124,cs),
(175,283,o),
(175,282,o),
(177,441,cs),
(177,465,o),
(180,477,o),
(192,484,cs),
(205,490,o),
(227,490,o),
(259,495,c),
(259,518,l),
(23,518,l),
(23,495,l),
(55,492,o),
(78,491,o),
(92,481,cs),
(102,474,o),
(106,463,o),
(106,441,cs),
(106,68,ls),
(106,28,o),
(106,-75,o),
(77,-115,c),
(71,-126,o),
(61,-131,o),
(52,-131,cs),
(36,-132,o),
(35,-112,o),
(16,-112,cs),
(-16,-112,o),
(-38,-137,o),
(-38,-171,cs),
(-38,-185,o),
(-21,-196,o),
(5,-196,cs)
);
}
);
width = 248;
}
);
unicode = 74;
},
{
color = 2;
glyphname = K;
lastChange = "2025-01-11 07:08:04 +0000";
layers = (
{
anchors = (
{
name = bottom;
pos = (298,0);
},
{
name = top;
pos = (298,517);
}
);
background = {
shapes = (
{
closed = 0;
nodes = (
(471,91,l),
(471,55,o),
(465,41,o),
(444,31,cs),
(433,26,o),
(415,25,o),
(388,18,c),
(388,0,l),
(633,0,l),
(633,18,l),
(587,31,o),
(564,33,o),
(555,51,cs),
(551,60,o),
(549,73,o),
(549,91,c)
);
},
{
closed = 0;
nodes = (
(493,525,l),
(493,561,o),
(499,575,o),
(520,585,cs),
(531,590,o),
(549,591,o),
(576,598,c),
(576,616,l),
(331,616,l),
(331,598,l),
(377,585,o),
(400,583,o),
(409,565,cs),
(413,556,o),
(415,543,o),
(415,525,cs)
);
}
);
};
color = 2;
layerId = m005;
shapes = (
{
closed = 1;
nodes = (
(23,-1,l),
(259,-1,l),
(259,16,l),
(226,24,o),
(207,25,o),
(197,31,cs),
(186,38,o),
(180,50,o),
(180,76,cs),
(179,131,o),
(180,356,o),
(180,441,cs),
(180,467,o),
(185,479,o),
(197,487,cs),
(209,495,o),
(229,498,o),
(259,501,c),
(259,518,l),
(23,518,l),
(23,496,l),
(70,490,o),
(91,490,o),
(99,475,cs),
(103,467,o),
(105,455,o),
(105,441,cs),
(107,321,o),
(107,197,o),
(105,76,cs),
(105,56,o),
(101,45,o),
(92,38,cs),
(79,29,o),
(56,29,o),
(23,22,c)
);
},
{
closed = 1;
nodes = (
(393,422,ls),
(426,453,o),
(467,481,o),
(493,491,cs),
(506,496,o),
(534,500,o),
(540,501,c),
(540,518,l),
(321,518,l),
(321,501,l),
(342,498,o),
(365,487,o),
(365,468,cs),
(365,456,o),
(358,443,o),
(341,425,cs),
(133,224,l),
(156,200,l)
);
},
{
closed = 1;
nodes = (
(590,16,l),
(532,30,o),
(502,41,o),
(456,84,c),
(239,306,l),
(184,253,l),
(250,182,o),
(369,59,o),
(396,33,cs),
(422,6,o),
(447,-4,o),
(487,-4,cs),
(590,-1,l)
);
}
);
width = 580;
}
);
unicode = 75;
},
{
color = 2;
glyphname = L;
lastChange = "2025-01-11 07:08:04 +0000";
layers = (
{
anchors = (
{
name = bottom;
pos = (290,0);
},
{
name = center;
pos = (290,259);
},
{
name = top;
pos = (290,517);
},
{
name = topright;
pos = (553,517);
}
);
color = 2;
layerId = m005;
shapes = (
{
closed = 1;
nodes = (
(23,-4,l),
(107,-2,o),
(183,-1,o),
(257,-1,c),
(257,35,l),
(199,37,o),
(184,37,o),
(184,88,cs),
(182,197,o),
(181,267,o),
(184,434,cs),
(184,464,o),
(185,475,o),
(204,484,cs),
(214,488,o),
(232,490,o),
(259,493,c),
(259,518,l),
(25,518,l),
(25,496,l),
(57,492,o),
(79,490,o),
(91,483,cs),
(101,476,o),
(104,465,o),
(105,441,cs),
(107,321,o),
(107,197,o),
(104,76,cs),
(103,53,o),
(101,42,o),
(92,35,cs),
(80,26,o),
(59,25,o),
(23,20,c)
);
},
{
closed = 1;
nodes = (
(309,1,o),
(416,0,o),
(479,-4,c),
(503,59,o),
(526,116,o),
(540,149,c),
(512,161,l),
(475,83,o),
(402,40,o),
(336,39,cs),
(294,38,o),
(272,35,o),
(253,35,c),
(253,-1,l)
);
}
);
width = 563;
}
);
unicode = 76;
},
{
glyphname = Lslash;
lastChange = "2025-01-10 16:10:46 +0000";
layers = (
{
layerId = m005;
shapes = (
{
ref = L;
},
{
closed = 1;
nodes = (
(43,268,l),
(270,351,l),
(258,388,l),
(30,305,l)
);
}
);
width = 612;
}
);
unicode = 321;
},
{
color = 2;
glyphname = M;
lastChange = "2025-01-11 07:08:04 +0000";
layers = (
{
anchors = (
{
name = bottom;
pos = (406,0);
},
{
name = top;
pos = (406,517);
}
);
backgroundImage = {
imagePath = "../../Desktop/Bildschirmfoto 2024-12-24 um 15.40.08.png";
pos = (847,-1015);
scale = (-1.288,1.176);
};
color = 1;
layerId = m005;
shapes = (
{
closed = 1;
nodes = (
(656,492,l),
(626,520,l),
(390,87,l),
(412,98,l),
(206,518,l),
(39,518,l),
(39,495,l),
(86,492,ls),
(112,490,o),
(138,475,o),
(148,454,cs),
(381,-17,l)
);
},
{
closed = 1;
nodes = (
(242,-1,l),
(242,22,l),
(210,29,o),
(164,35,o),
(154,45,cs),
(146,53,o),
(142,66,o),
(143,88,cs),
(161,471,l),
(120,499,l),
(102,88,ls),
(101,66,o),
(97,51,o),
(89,44,cs),
(79,34,o),
(43,28,o),
(23,21,c),
(23,-1,l)
);
},
{
closed = 1;
nodes = (
(789,-1,l),
(789,22,l),
(752,29,o),
(729,35,o),
(720,44,cs),
(707,56,o),
(707,70,o),
(707,87,cs),
(705,181,o),
(703,337,o),
(703,444,cs),
(703,457,o),
(709,467,o),
(716,474,cs),
(727,485,o),
(743,491,o),
(772,495,c),
(772,518,l),
(625,518,l),
(631,87,ls),
(631,68,o),
(632,54,o),
(620,43,cs),
(605,30,o),
(570,24,o),
(553,22,c),
(553,-1,l)
);
}
);
width = 795;
}
);
unicode = 77;
},
{
color = 2;
glyphname = N;
lastChange = "2025-01-11 07:08:04 +0000";
layers = (
{
anchors = (
{
name = bottom;
pos = (348,0);
},
{
name = top;
pos = (348,517);
}
);
color = 1;
layerId = m005;
shapes = (
{
closed = 1;
nodes = (
(606,-10,l),
(606,131,o),
(606,375,o),
(606,431,c),
(566,431,l),
(566,79,l),
(588,89,l),
(146,518,l),
(23,518,l),
(23,495,l),
(45,492,o),
(64,485,o),
(77,474,cs),
(89,464,o),
(109,446,o),
(126,431,cs),
(580,-10,l)
);
},
{
closed = 1;
nodes = (
(242,-1,l),
(242,22,l),
(208,25,o),
(170,30,o),
(157,45,cs),
(145,58,o),
(146,67,o),
(146,88,c),
(106,88,l),
(106,66,o),
(106,56,o),
(93,44,cs),
(77,30,o),
(43,29,o),
(23,21,c),
(23,-1,l)
);
},
{
closed = 1;
nodes = (
(146,86,l),
(146,471,l),
(106,499,l),
(106,86,l)
);
},
{
closed = 1;
nodes = (
(606,429,l),
(606,454,o),
(610,468,o),
(621,475,cs),
(632,484,o),
(652,487,o),
(673,493,c),
(673,518,l),
(470,518,l),
(470,495,l),
(512,490,o),
(538,488,o),
(552,476,cs),
(562,467,o),
(566,453,o),
(566,429,c)
);
}
);
width = 679;
}
);
unicode = 78;
},
{
color = 2;
glyphname = O;
lastChange = "2025-01-11 07:08:04 +0000";
layers = (
{
anchors = (
{
name = bottom;
pos = (356,0);
},
{
name = center;
pos = (356,259);
},
{
name = ogonek;
pos = (634,8);
},
{
name = top;
pos = (356,517);
},
{
name = topleft;
pos = (27,517);
},
{
name = topright;
pos = (573,322);
}
);
background = {
shapes = (
{
closed = 1;
nodes = (
(646,111,o),
(701,209,o),
(704,323,c,{
"Letterink-NibData" = {
AngleInDegrees = "359.99999";
};
}),
(701,395,o),
(690,434,o),
(660,483,cs,{
"Letterink-NibData" = {
AngleInDegrees = "0";
};
}),
(599,582,o),
(513,633,o),
(409,633,cs),
(360,633,o),
(312,621,o),
(271,597,cs,{
"Letterink-NibData" = {
AngleInDegrees = "359.99999";
};
}),
(201,557,ls,{
"Letterink-NibData" = {
AngleInDegrees = "359.99999";
};
}),
(175,542,o),
(123,495,o),
(106,471,cs,{
"Letterink-NibData" = {
AngleInDegrees = "360";
};
}),
(66,415,o),
(48,359,o),
(48,290,cs),
(48,121,o),
(183,-21,o),
(343,-21,cs),
(392,-21,o),
(444,-7,o),
(488,19,cs,{
"Letterink-NibData" = {
AngleInDegrees = "360";
};
}),
(557,59,ls,{
"Letterink-NibData" = {
AngleInDegrees = "0";
};
})
);
},
{
closed = 1;
nodes = (
(482,32,o),
(450,26,o),
(409,26,cs),
(335,26,o),
(252,61,o),
(207,111,cs,{
"Letterink-NibData" = {
AngleInDegrees = "360";
};
}),
(195,123,o),
(182,141,o),
(162,168,c,{
"Letterink-NibData" = {
AngleInDegrees = "359.99999";
};
}),
(131,236,o),
(121,271,o),
(121,323,cs),
(121,425,o),
(159,501,o),
(243,566,c,{
"Letterink-NibData" = {
AngleInDegrees = "0";
};
}),
(285,583,o),
(301,586,o),
(343,586,cs),
(448,586,o),
(529,538,o),
(593,438,c,{
"Letterink-NibData" = {
AngleInDegrees = "359.99999";
};
}),
(620,389,o),
(631,347,o),
(631,289,cs,{
"Letterink-NibData" = {
AngleInDegrees = "359.99999";
};
}),
(629,192,o),
(586,102,o),
(515,47,c,{
"Letterink-NibData" = {
AngleInDegrees = "0";
};
})
);
}
);
};
color = 4;
layerId = m005;
shapes = (
{
closed = 1;
nodes = (
(534,-10,o),
(656,102,o),
(656,259,cs),
(656,415,o),
(534,527,o),
(353,527,cs),
(184,527,o),
(56,415,o),
(56,259,cs),
(56,102,o),
(184,-10,o),
(353,-10,cs)
);
},
{
closed = 1;
nodes = (
(148,398,o),
(231,490,o),
(338,490,cs),
(474,490,o),
(564,391,o),
(564,250,cs),
(564,118,o),
(487,26,o),
(369,26,cs),
(245,26,o),
(148,125,o),
(148,267,cs)
);
}
);
width = 696;
}
);
note = O;
unicode = 79;
},
{
glyphname = Oslash;
lastChange = "2025-01-10 16:11:57 +0000";
layers = (
{
layerId = m005;
shapes = (
{
ref = O;
},
{
closed = 1;
nodes = (
(79,38,l),
(107,10,l),
(675,578,l),
(647,606,l)
);
}
);
width = 756;
}
);
unicode = 216;
},
{
color = 2;
glyphname = OE;
lastChange = "2025-01-11 07:08:04 +0000";
layers = (
{
anchors = (
{
name = bottom;
pos = (505,0);
},
{
name = top;
pos = (505,517);
}
);
color = 10;
layerId = m005;
shapes = (
{
closed = 1;
nodes = (
(533,-10,o),
(614,102,o),
(614,259,cs),
(614,415,o),
(533,527,o),
(356,527,cs),
(181,527,o),
(58,415,o),
(58,259,cs),
(58,102,o),
(181,-10,o),
(356,-10,cs)
);
},
{
closed = 1;
nodes = (
(150,396,o),
(229,490,o),
(340,490,cs),
(473,490,o),
(544,389,o),
(544,250,cs),
(544,121,o),
(485,26,o),
(372,26,cs),
(242,26,o),
(150,128,o),
(150,267,cs)
);
},
{
closed = 1;
nodes = (
(549,-2,o),
(560,-1,o),
(573,-1,cs),
(709,-1,o),
(857,-2,o),
(927,-4,c),
(939,36,o),
(949,93,o),
(949,133,c),
(918,133,l),
(907,76,o),
(873,39,o),
(834,36,cs),
(804,35,o),
(745,34,o),
(693,34,cs),
(658,34,o),
(630,43,o),
(623,57,cs),
(620,62,o),
(618,77,o),
(618,90,cs),
(617,260,ls),
(617,337,o),
(617,371,o),
(618,484,c),
(693,484,ls),
(719,484,o),
(757,484,o),
(787,482,cs),
(809,480,o),
(829,457,o),
(836,418,c),
(871,418,l),
(872,450,o),
(877,494,o),
(883,521,c),
(826,519,o),
(698,518,o),
(582,518,cs),
(610,517,o),
(560,519,o),
(536,521,c),
(544,444,l),
(543,441,l),
(544,262,l),
(543,76,l),
(544,74,l),
(536,-4,l)
);
},
{
closed = 1;
nodes = (
(823,172,l),
(817,227,o),
(817,307,o),
(823,362,c),
(794,362,l),
(795,357,o),
(789,344,o),
(785,333,c),
(769,302,o),
(749,283,o),
(695,283,cs),
(565,283,l),
(565,248,l),
(695,248,ls),
(755,248,o),
(774,230,o),
(786,203,c),
(795,172,l)
);
}
);
width = 994;
}
);
unicode = 338;
},
{
color = 2;
glyphname = P;
lastChange = "2025-01-11 07:08:04 +0000";
layers = (
{
anchors = (
{
name = bottom;
pos = (240,0);
},
{
name = top;
pos = (240,517);
}
);
background = {
anchors = (
{
name = bottom;
pos = (280,0);
},
{
name = center;
pos = (138,154);
},
{
name = top;
pos = (280,616);
}
);
shapes = (
{
closed = 1;
nodes = (
(20,0,l),
(303,0,l),
(303,40,l),
(258,40,o),
(223,38,o),
(204,54,cs),
(195,62,o),
(190,73,o),
(190,91,cs),
(188,307,o),
(187,377,o),
(191,574,c),
(208,576,o),
(260,576,o),
(283,576,c),
(283,616,l),
(20,616,l),
(20,591,l),
(54,581,o),
(78,582,o),
(92,572,cs),
(102,565,o),
(107,552,o),
(107,525,cs),
(108,341,o),
(109,253,o),
(109,312,cs),
(109,373,o),
(108,282,o),
(107,91,cs),
(107,65,o),
(101,51,o),
(92,43,cs),
(76,29,o),
(50,31,o),
(20,25,c)
);
},
{
closed = 1;
nodes = (
(177,318,o),
(189,318,o),
(217,318,cs),
(373,318,o),
(476,378,o),
(476,481,cs),
(476,560,o),
(396,616,o),
(283,616,c),
(283,576,l),
(344,576,o),
(387,529,o),
(387,462,cs),
(387,387,o),
(318,348,o),
(210,348,cs),
(150,348,l),
(151,318,l)
);
}
);
};
color = 2;
layerId = m005;
shapes = (
{
closed = 1;
nodes = (
(220,227,o),
(229,227,o),
(239,227,cs),
(359,227,o),
(441,283,o),
(441,376,cs),
(441,465,o),
(369,523,o),
(264,520,c),
(244,490,l),
(313,491,o),
(358,445,o),
(358,366,cs),
(358,291,o),
(301,248,o),
(209,249,c),
(209,227,l)
);
},
{
closed = 1;
nodes = (
(275,-1,l),
(275,22,l),
(228,31,o),
(208,34,o),
(197,44,cs),
(188,52,o),
(186,66,o),
(185,93,cs),
(183,158,o),
(183,317,o),
(186,489,c),
(248,490,l),
(268,520,l),
(233,519,o),
(174,518,o),
(144,518,cs),
(107,518,o),
(45,519,o),
(6,520,c),
(6,492,l),
(48,486,o),
(76,483,o),
(92,466,cs),
(100,458,o),
(105,445,o),
(105,426,cs),
(107,310,o),
(107,197,o),
(105,85,cs),
(105,64,o),
(101,50,o),
(93,42,cs),
(83,30,o),
(43,26,o),
(23,22,c),
(23,-1,l)
);
}
);
width = 464;
}
);
unicode = 80;
},
{
glyphname = Thorn;
lastChange = "2025-01-10 19:29:43 +0000";
layers = (
{
layerId = m005;
shapes = (
{
closed = 1;
nodes = (
(270,0,l),
(270,25,l),
(237,36,o),
(216,39,o),
(204,51,cs),
(195,60,o),
(190,81,o),
(190,111,cs),
(190,113,o),
(188,302,o),
(191,506,cs),
(191,532,o),
(195,556,o),
(204,567,cs),
(215,581,o),
(257,586,o),
(288,591,c),
(288,616,l),
(18,616,l),
(18,591,l),
(61,580,o),
(83,576,o),
(94,565,cs),
(103,556,o),
(107,538,o),
(108,505,cs),
(108,474,o),
(109,156,o),
(107,101,cs),
(106,75,o),
(103,60,o),
(94,49,cs),
(83,35,o),
(41,30,o),
(18,25,c),
(18,0,l)
);
},
{
closed = 1;
nodes = (
(380,140,o),
(468,206,o),
(468,317,cs),
(468,421,o),
(391,489,o),
(279,487,c),
(260,453,l),
(334,453,o),
(382,397,o),
(382,305,cs),
(382,215,o),
(319,164,o),
(220,164,c),
(220,141,l),
(231,140,o),
(241,140,o),
(251,140,cs)
);
},
{
closed = 1;
nodes = (
(260,453,l),
(279,487,l),
(157,486,l),
(157,452,l)
);
}
);
width = 504;
}
);
unicode = 222;
},
{
color = 2;
glyphname = Q;
lastChange = "2025-01-11 07:08:04 +0000";
layers = (
{
anchors = (
{
name = bottom;
pos = (356,0);
},
{
name = top;
pos = (356,517);
}
);
background = {
shapes = (
{
closed = 1;
nodes = (
(567,-11,o),
(702,121,o),
(702,308,cs),
(702,494,o),
(567,626,o),
(376,626,cs),
(187,626,o),
(54,494,o),
(54,308,cs),
(54,121,o),
(187,-11,o),
(376,-11,cs)
);
},
{
closed = 1;
nodes = (
(150,471,o),
(237,585,o),
(359,585,cs),
(504,585,o),
(606,463,o),
(606,298,cs),
(606,144,o),
(518,30,o),
(393,30,cs),
(251,30,o),
(150,152,o),
(150,318,cs)
);
},
{
closed = 1;
nodes = (
(567,-11,o),
(702,121,o),
(702,308,cs),
(702,494,o),
(567,626,o),
(376,626,cs),
(187,626,o),
(54,494,o),
(54,308,cs),
(54,121,o),
(187,-11,o),
(376,-11,cs)
);
},
{
closed = 1;
nodes = (
(150,471,o),
(237,585,o),
(359,585,cs),
(504,585,o),
(606,463,o),
(606,298,cs),
(606,144,o),
(518,30,o),
(393,30,cs),
(251,30,o),
(150,152,o),
(150,318,cs)
);
}
);
};
backgroundImage = {
imagePath = "../../Desktop/Bildschirmfoto 2024-12-24 um 15.25.09.png";
pos = (965,-1126);
scale = (-1.288,1.176);
};
color = 4;
layerId = m005;
shapes = (
{
closed = 1;
nodes = (
(533,-10,o),
(656,102,o),
(656,259,cs),
(656,415,o),
(533,527,o),
(359,527,cs),
(182,527,o),
(56,415,o),
(56,259,cs),
(56,102,o),
(182,-10,o),
(359,-10,cs)
);
},
{
closed = 1;
nodes = (
(148,398,o),
(226,490,o),
(338,490,cs),
(470,490,o),
(564,391,o),
(564,250,cs),
(564,117,o),
(486,26,o),
(374,26,cs),
(242,26,o),
(148,125,o),
(148,267,cs)
);
},
{
closed = 1;
nodes = (
(401,-121,o),
(587,-196,o),
(756,-196,cs),
(873,-196,o),
(984,-170,o),
(1051,-129,c),
(1040,-110,l),
(971,-136,o),
(889,-149,o),
(808,-149,cs),
(655,-149,o),
(503,-81,o),
(431,25,c),
(310,10,l)
);
}
);
width = 696;
}
);
metricWidth = O;
unicode = 81;
},
{
color = 2;
glyphname = R;
lastChange = "2025-01-11 07:08:04 +0000";
layers = (
{
anchors = (
{
name = bottom;
pos = (298,0);
},
{
name = top;
pos = (298,517);
}
);
background = {
shapes = (
{
closed = 1;
nodes = (
(20,0,l),
(303,0,l),
(303,40,l),
(258,40,o),
(223,38,o),
(204,54,cs),
(195,62,o),
(190,73,o),
(190,91,cs),
(188,307,o),
(187,377,o),
(191,574,c),
(208,576,o),
(260,576,o),
(283,576,c),
(283,616,l),
(20,616,l),
(20,591,l),
(54,581,o),
(78,582,o),
(92,572,cs),
(102,565,o),
(107,552,o),
(107,525,cs),
(108,341,o),
(109,253,o),
(109,312,cs),
(109,373,o),
(108,282,o),
(107,91,cs),
(107,65,o),
(101,51,o),
(92,43,cs),
(76,29,o),
(50,31,o),
(20,25,c)
);
}
);
};
color = 2;
layerId = m005;
shapes = (
{
closed = 1;
nodes = (
(327,235,o),
(435,296,o),
(435,385,cs),
(435,463,o),
(358,523,o),
(256,520,c),
(237,483,l),
(302,484,o),
(352,443,o),
(352,375,cs),
(352,304,o),
(279,271,o),
(172,271,c),
(172,236,l)
);
},
{
closed = 1;
nodes = (
(275,-1,l),
(275,24,l),
(238,27,o),
(203,35,o),
(193,46,cs),
(184,54,o),
(183,66,o),
(183,89,cs),
(183,313,o),
(182,380,o),
(186,481,c),
(242,483,l),
(261,520,l),
(215,519,o),
(188,518,o),
(142,518,cs),
(105,518,o),
(66,519,o),
(24,520,c),
(24,496,l),
(56,490,o),
(85,485,o),
(96,475,cs),
(104,466,o),
(105,451,o),
(105,430,cs),
(107,316,o),
(107,200,o),
(105,87,cs),
(105,59,o),
(102,46,o),
(92,38,cs),
(81,30,o),
(61,28,o),
(23,22,c),
(23,-1,l)
);
},
{
closed = 1;
nodes = (
(590,16,l),
(526,21,o),
(411,131,o),
(322,285,c),
(249,256,l),
(327,103,o),
(427,-5,o),
(494,-4,cs),
(590,-1,l)
);
}
);
width = 580;
}
);
unicode = 82;
},
{
color = 2;
glyphname = S;
lastChange = "2025-01-11 07:08:04 +0000";
layers = (
{
anchors = (
{
name = bottom;
pos = (232,0);
},
{
name = top;
pos = (232,517);
}
);
color = 4;
layerId = m005;
shapes = (
{
closed = 1;
nodes = (
(325,-9,o),
(408,57,o),
(408,146,cs),
(408,286,o),
(126,296,o),
(129,412,cs),
(130,456,o),
(168,487,o),
(229,487,cs),
(297,487,o),
(340,449,o),
(334,395,c),
(372,395,l),
(371,441,o),
(372,485,o),
(376,498,c),
(331,513,o),
(268,525,o),
(229,525,cs),
(124,525,o),
(56,462,o),
(56,375,cs),
(56,228,o),
(332,234,o),
(332,114,cs),
(332,63,o),
(282,29,o),
(207,30,cs),
(138,32,o),
(93,89,o),
(95,166,c),
(55,166,l),
(58,147,o),
(59,87,o),
(58,30,c),
(117,8,o),
(179,-9,o),
(207,-9,cs)
);
}
);
width = 447;
}
);
unicode = 83;
},
{
color = 2;
glyphname = Germandbls;
lastChange = "2025-01-11 07:08:04 +0000";
layers = (
{
anchors = (
{
name = bottom;
pos = (282,0);
},
{
name = top;
pos = (282,517);
}
);
color = 10;
layerId = m005;
shapes = (
{
closed = 1;
nodes = (
(188,-1,l),
(188,58,ls),
(188,223,o),
(189,361,o),
(187,411,cs),
(186,485,l),
(272,485,l),
(322,518,l),
(148,518,ls),
(106,518,o),
(56,519,o),
(23,521,c),
(23,498,l),
(85,485,o),
(107,488,o),
(108,438,cs),
(110,310,o),
(108,186,o),
(108,58,cs),
(108,33,o),
(75,29,o),
(23,16,c),
(23,-1,l)
);
},
{
closed = 1;
nodes = (
(465,-6,o),
(524,42,o),
(524,108,cs),
(524,208,o),
(354,216,o),
(354,281,cs),
(354,349,o),
(467,361,o),
(467,430,cs),
(467,481,o),
(404,518,o),
(317,518,c),
(267,485,l),
(338,486,o),
(389,456,o),
(389,412,cs),
(389,361,o),
(284,345,o),
(284,260,cs),
(284,159,o),
(450,163,o),
(450,87,cs),
(450,44,o),
(423,16,o),
(382,19,cs),
(338,23,o),
(305,56,o),
(299,103,c),
(270,103,l),
(272,90,o),
(272,46,o),
(271,4,c),
(294,-2,o),
(341,-6,o),
(382,-6,cs)
);
}
);
width = 546;
}
);
unicode = 7838;
},
{
color = 2;
glyphname = T;
lastChange = "2025-01-11 07:08:04 +0000";
layers = (
{
anchors = (
{
name = bottom;
pos = (290,0);
},
{
name = center;
pos = (290,259);
},
{
name = top;
pos = (290,517);
}
);
background = {
shapes = (
{
closed = 1;
nodes = (
(196,0,l),
(441,0,l),
(441,18,l),
(395,31,o),
(372,33,o),
(363,52,cs),
(359,60,o),
(358,73,o),
(358,91,cs),
(357,164,o),
(357,237,o),
(356,310,cs),
(355,382,o),
(357,453,o),
(358,525,cs),
(358,561,o),
(364,575,o),
(385,585,cs),
(396,590,o),
(414,591,o),
(441,598,c),
(441,616,l),
(196,616,l),
(196,598,l),
(242,585,o),
(265,583,o),
(274,565,cs),
(278,556,o),
(280,543,o),
(280,525,cs),
(281,454,o),
(282,383,o),
(282,312,cs),
(282,238,o),
(281,165,o),
(280,91,cs),
(280,55,o),
(273,42,o),
(252,32,cs),
(241,27,o),
(223,25,o),
(196,18,c)
);
}
);
};
color = 4;
layerId = m005;
shapes = (
{
closed = 1;
nodes = (
(441,-1,l),
(441,25,l),
(372,36,o),
(330,39,o),
(328,84,cs),
(323,221,o),
(323,364,o),
(328,501,c),
(302,470,l),
(362,470,o),
(428,470,o),
(454,470,cs),
(488,470,o),
(529,470,o),
(533,374,c),
(573,378,l),
(572,434,o),
(568,487,o),
(558,541,c),
(545,541,l),
(494,518,l),
(350,516,o),
(210,516,o),
(79,518,c),
(34,551,l),
(25,544,l),
(14,488,o),
(8,433,o),
(6,375,c),
(46,374,l),
(51,471,o),
(81,470,o),
(140,470,cs),
(281,470,l),
(250,500,l),
(252,396,o),
(252,123,o),
(250,84,cs),
(248,45,o),
(210,35,o),
(139,25,c),
(139,-1,l)
);
}
);
width = 563;
}
);
unicode = 84;
},
{
color = 2;
glyphname = U;
lastChange = "2025-01-11 07:08:04 +0000";
layers = (
{
anchors = (
{
name = bottom;
pos = (323,0);
},
{
name = ogonek;
pos = (445,8);
},
{
name = top;
pos = (339,517);
},
{
name = topright;
pos = (563,460);
}
);
color = 1;
layerId = m005;
shapes = (
{
closed = 1;
nodes = (
(473,-10,o),
(555,49,o),
(557,167,cs),
(559,281,o),
(556,362,o),
(557,432,cs),
(558,486,o),
(579,493,o),
(623,493,c),
(623,518,l),
(437,518,l),
(437,496,l),
(483,489,o),
(513,465,o),
(514,404,cs),
(515,325,o),
(516,250,o),
(514,171,cs),
(512,78,o),
(450,36,o),
(347,36,cs),
(237,36,o),
(184,77,o),
(169,154,cs),
(168,163,o),
(167,268,o),
(167,423,cs),
(167,479,o),
(196,493,o),
(242,496,c),
(242,518,l),
(23,518,l),
(23,490,l),
(51,485,o),
(89,476,o),
(89,429,cs),
(89,408,o),
(89,304,o),
(89,165,cs),
(89,47,o),
(175,-10,o),
(320,-10,cs)
);
}
);
width = 596;
}
);
unicode = 85;
},
{
color = 2;
glyphname = V;
lastChange = "2025-01-11 07:08:04 +0000";
layers = (
{
anchors = (
{
name = bottom;
pos = (331,0);
},
{
name = top;
pos = (331,517);
}
);
color = 4;
layerId = m005;
shapes = (
{
closed = 1;
nodes = (
(333,-21,l),
(397,128,o),
(516,373,o),
(541,424,cs),
(566,475,o),
(598,485,o),
(656,493,c),
(656,518,l),
(422,518,l),
(422,497,l),
(470,491,o),
(501,481,o),
(501,456,cs),
(501,438,o),
(489,410,o),
(475,380,cs),
(325,54,l),
(354,76,l),
(300,188,o),
(215,403,o),
(209,417,cs),
(203,430,o),
(198,444,o),
(198,456,cs),
(198,469,o),
(195,488,o),
(275,495,c),
(275,518,l),
(6,518,l),
(6,493,l),
(50,486,o),
(93,480,o),
(124,411,cs),
(317,-21,l)
);
}
);
width = 646;
}
);
unicode = 86;
},
{
color = 2;
glyphname = W;
lastChange = "2025-01-11 07:08:04 +0000";
layers = (
{
anchors = (
{
name = bottom;
pos = (447,0);
},
{
name = top;
pos = (447,517);
}
);
color = 4;
layerId = m005;
shapes = (
{
closed = 1;
nodes = (
(466,398,l),
(320,59,l),
(355,82,l),
(205,417,ls),
(180,472,o),
(165,488,o),
(242,495,c),
(242,518,l),
(23,518,l),
(23,493,l),
(49,485,o),
(93,480,o),
(124,411,cs),
(318,-21,l),
(334,-21,l),
(373,90,o),
(450,254,o),
(489,353,c)
);
},
{
closed = 1;
nodes = (
(622,-21,l),
(684,128,o),
(786,373,o),
(807,424,cs),
(828,475,o),
(827,483,o),
(888,493,c),
(888,518,l),
(702,518,l),
(702,495,l),
(778,479,o),
(774,448,o),
(745,380,cs),
(610,54,l),
(648,83,l),
(603,196,o),
(520,403,o),
(515,417,cs),
(493,480,o),
(494,488,o),
(557,495,c),
(557,518,l),
(354,518,l),
(354,495,l),
(381,490,o),
(408,480,o),
(436,411,cs),
(606,-21,l)
);
}
);
width = 878;
}
);
unicode = 87;
},
{
color = 2;
glyphname = X;
lastChange = "2025-01-11 07:08:04 +0000";
layers = (
{
anchors = (
{
name = bottom;
pos = (298,0);
},
{
name = top;
pos = (298,517);
}
);
color = 4;
guides = (
{
angle = 53;
pos = (574,661);
}
);
layerId = m005;
shapes = (
{
closed = 1;
nodes = (
(573,-1,l),
(573,25,l),
(533,29,o),
(533,24,o),
(475,97,cs),
(322,290,o),
(326,290,o),
(215,431,cs),
(195,454,o),
(189,466,o),
(189,475,cs),
(189,488,o),
(202,491,o),
(233,495,c),
(233,518,l),
(23,518,l),
(23,493,l),
(54,493,o),
(69,494,o),
(129,414,cs),
(264,234,o),
(269,234,o),
(383,87,c),
(403,64,o),
(412,49,o),
(412,39,cs),
(412,26,o),
(390,25,o),
(349,22,c),
(349,-1,l)
);
},
{
closed = 1;
nodes = (
(209,-1,l),
(209,22,l),
(180,25,o),
(159,27,o),
(159,45,cs),
(159,56,o),
(165,67,o),
(186,93,cs),
(311,256,l),
(277,279,l),
(121,86,ls),
(64,14,o),
(55,27,o),
(23,25,c),
(23,-1,l)
);
},
{
closed = 1;
nodes = (
(459,422,ls),
(516,491,o),
(538,490,o),
(573,493,c),
(573,518,l),
(387,518,l),
(387,495,l),
(412,493,o),
(429,492,o),
(429,476,cs),
(429,462,o),
(412,435,o),
(374,390,cs),
(289,283,l),
(324,260,l)
);
}
);
width = 580;
}
);
unicode = 88;
},
{
color = 2;
glyphname = Y;
lastChange = "2025-01-11 07:08:04 +0000";
layers = (
{
anchors = (
{
name = bottom;
pos = (257,0);
},
{
name = top;
pos = (257,517);
},
{
name = topleft;
pos = (27,517);
}
);
color = 4;
layerId = m005;
shapes = (
{
closed = 1;
nodes = (
(391,-1,l),
(391,25,l),
(342,29,o),
(300,26,o),
(300,78,cs),
(300,284,l),
(281,204,l),
(410,427,ls),
(452,499,o),
(498,492,o),
(507,493,c),
(507,518,l),
(321,518,l),
(321,495,l),
(388,487,o),
(392,475,o),
(362,424,cs),
(267,256,l),
(284,257,l),
(255,319,o),
(193,415,o),
(180,441,cs),
(153,492,o),
(162,490,o),
(226,495,c),
(226,518,l),
(23,518,l),
(23,493,l),
(38,494,o),
(69,488,o),
(81,466,cs),
(234,191,l),
(221,272,l),
(221,78,ls),
(221,32,o),
(165,29,o),
(122,25,c),
(122,-1,l)
);
}
);
width = 497;
}
);
unicode = 89;
},
{
color = 2;
glyphname = Z;
lastChange = "2025-01-11 07:08:04 +0000";
layers = (
{
anchors = (
{
name = bottom;
pos = (306,0);
},
{
name = center;
pos = (306,259);
},
{
name = top;
pos = (306,517);
}
);
color = 4;
layerId = m005;
shapes = (
{
closed = 1;
nodes = (
(164,-1,o),
(345,0,o),
(372,0,cs),
(399,0,o),
(467,0,o),
(502,-3,c),
(527,48,o),
(548,120,o),
(557,177,c),
(521,177,l),
(511,129,o),
(474,37,o),
(339,35,cs),
(141,33,l),
(146,16,l),
(531,499,l),
(519,523,l),
(450,518,o),
(305,518,o),
(261,518,cs),
(207,518,o),
(112,514,o),
(76,519,c),
(68,466,o),
(62,412,o),
(61,358,c),
(91,358,l),
(100,400,o),
(89,483,o),
(213,483,cs),
(283,483,o),
(392,481,o),
(445,479,c),
(432,504,l),
(39,10,l),
(48,-1,l)
);
}
);
width = 596;
}
);
unicode = 90;
},
{
color = 2;
glyphname = a;
lastChange = "2025-01-11 07:08:04 +0000";
layers = (
{
anchors = (
{
name = bottom;
pos = (190,0);
},
{
name = ogonek;
pos = (336,8);
},
{
name = top;
pos = (190,323);
}
);
background = {
shapes = (
{
closed = 1;
nodes = (
(47,0,o),
(75,-11,o),
(122,-11,cs),
(170,-11,o),
(201,1,o),
(245,37,c,{
"Letterink-NibData" = {
AngleInDegrees = "360";
};
}),
(244,38,ls,{
"Letterink-NibData" = {
AngleInDegrees = "0";
};
}),
(268,17,o),
(285,7,o),
(315,-3,c,{
"Letterink-NibData" = {
AngleInDegrees = "360";
};
}),
(389,40,l,{
"Letterink-NibData" = {
AngleInDegrees = "0";
};
}),
(352,52,o),
(336,60,o),
(313,80,c),
(313,344,l,{
"Letterink-NibData" = {
AngleInDegrees = "0";
};
}),
(263,384,o),
(236,395,o),
(188,395,cs),
(139,395,o),
(110,384,o),
(62,345,c,{
"Letterink-NibData" = {
AngleInDegrees = "360";
};
}),
(65,340,l,{
"Letterink-NibData" = {
AngleInDegrees = "0";
};
}),
(92,347,o),
(104,349,o),
(122,349,cs),
(168,349,o),
(200,337,o),
(241,304,c),
(241,184,l),
(241,185,l,{
"Letterink-NibData" = {
AngleInDegrees = "360";
};
}),
(-4,44,l,{
"Letterink-NibData" = {
AngleInDegrees = "0";
};
}),
(-1,38,l,{
"Letterink-NibData" = {
AngleInDegrees = "0";
};
})
);
},
{
closed = 1;
nodes = (
(241,176,l),
(241,42,l),
(241,43,l,{
"Letterink-NibData" = {
AngleInDegrees = "0";
};
}),
(217,37,o),
(206,35,o),
(188,35,cs),
(143,35,o),
(110,47,o),
(71,78,c,{
"Letterink-NibData" = {
AngleInDegrees = "0";
};
})
);
},
{
closed = 1;
nodes = (
(318,0,l),
(368,18,l),
(329,32,o),
(313,37,o),
(313,68,cs),
(313,273,ls),
(313,355,o),
(279,395,o),
(209,395,cs),
(159,395,o),
(102,365,o),
(36,305,c),
(36,286,l),
(96,329,o),
(129,335,o),
(164,335,cs),
(216,335,o),
(241,306,o),
(241,246,cs),
(241,68,ls),
(241,38,o),
(224,32,o),
(185,18,c),
(135,0,l)
);
},
{
closed = 1;
nodes = (
(-24,386,l),
(-24,368,l),
(15,354,o),
(31,349,o),
(31,318,cs),
(31,83,ls),
(31,1,o),
(65,-9,o),
(135,-9,cs),
(185,-9,o),
(242,21,o),
(308,81,c),
(308,100,l),
(248,57,o),
(215,51,o),
(180,51,cs),
(128,51,o),
(103,50,o),
(103,110,cs),
(103,318,ls),
(103,348,o),
(120,354,o),
(159,368,c),
(159,386,l)
);
},
{
closed = 1;
nodes = (
(186,386,l),
(186,368,l),
(218,356,o),
(241,335,o),
(241,318,cs),
(241,113,ls),
(241,42,o),
(259,-9,o),
(285,-9,cs),
(307,-9,o),
(346,12,o),
(378,41,c),
(378,60,l),
(371,55,o),
(347,51,o),
(320,51,cs),
(316,51,o),
(313,88,o),
(313,140,cs),
(313,318,ls),
(313,335,o),
(336,356,o),
(369,368,c),
(369,386,l)
);
}
);
};
color = 3;
guides = (
{
angle = 11.5;
pos = (222,308);
}
);
layerId = m005;
shapes = (
{
closed = 1;
nodes = (
(309,-6,o),
(342,7,o),
(376,23,c),
(375,35,l),
(343,35,ls),
(320,36,o),
(306,50,o),
(306,71,cs),
(307,115,o),
(308,176,o),
(309,244,cs),
(309,294,o),
(269,333,o),
(206,333,cs),
(178,333,o),
(139,319,o),
(103,298,cs),
(74,280,o),
(52,248,o),
(52,222,cs),
(52,194,o),
(123,206,o),
(123,234,cs),
(123,246,o),
(116,245,o),
(116,256,cs),
(116,279,o),
(139,294,o),
(164,294,cs),
(209,294,o),
(241,272,o),
(239,239,cs),
(236,183,ls),
(235,172,o),
(235,115,o),
(235,48,c),
(239,17,o),
(266,-6,o),
(300,-6,cs)
);
},
{
closed = 1;
nodes = (
(161,-6,o),
(221,19,o),
(259,55,c),
(259,74,l),
(229,52,o),
(184,38,o),
(158,38,cs),
(133,38,o),
(115,60,o),
(116,93,c),
(39,80,l),
(39,30,o),
(68,-6,o),
(118,-6,cs)
);
},
{
closed = 1;
nodes = (
(116,91,l),
(114,110,o),
(180,132,o),
(269,146,c),
(270,174,l),
(136,155,o),
(36,115,o),
(39,78,c)
);
}
);
width = 364;
}
);
note = a;
unicode = 97;
},
{
color = 2;
glyphname = ae;
lastChange = "2025-01-11 07:08:04 +0000";
layers = (
{
anchors = (
{
name = bottom;
pos = (282,0);
},
{
name = top;
pos = (282,323);
}
);
color = 10;
layerId = m005;
shapes = (
{
closed = 1;
nodes = (
(290,177,l),
(290,121,o),
(295,82,o),
(297,244,cs),
(297,294,o),
(269,333,o),
(212,333,cs),
(185,333,o),
(139,319,o),
(103,298,cs),
(74,280,o),
(52,248,o),
(52,222,cs),
(52,194,o),
(123,206,o),
(123,234,cs),
(123,246,o),
(114,246,o),
(114,258,cs),
(114,281,o),
(134,296,o),
(164,296,cs),
(212,296,o),
(241,272,o),
(239,239,cs),
(236,183,ls),
(236,179,o),
(235,223,o),
(235,146,c)
);
},
{
closed = 1;
nodes = (
(162,-6,o),
(220,7,o),
(277,59,c),
(256,78,l),
(226,56,o),
(185,38,o),
(159,38,cs),
(133,38,o),
(114,60,o),
(115,93,c),
(38,80,l),
(38,30,o),
(72,-6,o),
(121,-6,cs)
);
},
{
closed = 1;
nodes = (
(116,91,l),
(114,110,o),
(180,132,o),
(269,146,c),
(270,178,l),
(136,159,o),
(36,115,o),
(39,78,c)
);
},
{
closed = 1;
nodes = (
(295,254,o),
(333,303,o),
(387,303,cs),
(427,303,o),
(458,272,o),
(461,224,c),
(270,219,l),
(267,193,l),
(527,188,l),
(539,201,l),
(539,276,o),
(481,333,o),
(400,333,cs),
(296,333,o),
(235,260,o),
(235,158,cs),
(235,60,o),
(289,-10,o),
(383,-10,cs),
(441,-10,o),
(506,29,o),
(537,80,c),
(518,93,l),
(498,65,o),
(450,45,o),
(402,45,cs),
(340,45,o),
(295,99,o),
(295,176,cs)
);
}
);
width = 546;
}
);
unicode = 230;
},
{
color = 2;
glyphname = b;
lastChange = "2025-01-11 07:08:04 +0000";
layers = (
{
anchors = (
{
name = bottom;
pos = (232,0);
},
{
name = center;
pos = (121,466);
},
{
name = top;
pos = (232,323);
}
);
background = {
shapes = (
{
closed = 1;
nodes = (
(122,1,o),
(151,-11,o),
(199,-11,cs),
(246,-11,o),
(278,1,o),
(322,36,c,{
"Letterink-NibData" = {
AngleInDegrees = "0";
};
}),
(404,68,o),
(448,128,o),
(448,210,cs),
(448,310,o),
(364,395,o),
(265,395,cs),
(218,395,o),
(187,383,o),
(145,350,c),
(145,664,l,{
"Letterink-NibData" = {
AngleInDegrees = "359.99999";
};
}),
(119,687,o),
(103,697,o),
(72,707,c,{
"Letterink-NibData" = {
AngleInDegrees = "359.99999";
};
}),
(-2,664,l,{
"Letterink-NibData" = {
AngleInDegrees = "0";
};
}),
(35,652,o),
(50,644,o),
(73,624,c),
(73,40,l,{
"Letterink-NibData" = {
AngleInDegrees = "360";
};
})
);
},
{
closed = 1;
nodes = (
(169,347,o),
(181,349,o),
(199,349,cs),
(299,349,o),
(376,273,o),
(376,174,cs),
(376,125,o),
(357,82,o),
(318,43,c,{
"Letterink-NibData" = {
AngleInDegrees = "0";
};
}),
(294,37,o),
(282,35,o),
(265,35,cs),
(218,35,o),
(187,47,o),
(145,80,c),
(145,342,l,{
"Letterink-NibData" = {
AngleInDegrees = "360";
};
}),
(146,341,l,{
"Letterink-NibData" = {
AngleInDegrees = "0";
};
})
);
}
);
};
color = 2;
layerId = m005;
shapes = (
{
closed = 1;
nodes = (
(145,463,l),
(147,553,l),
(133,562,l),
(8,536,l),
(8,516,l),
(47,504,o),
(73,485,o),
(73,470,cs),
(73,289,o),
(73,127,o),
(73,33,c),
(143,19,l)
);
},
{
closed = 1;
nodes = (
(352,158,l),
(351,81,o),
(300,23,o),
(228,23,cs),
(182,23,o),
(139,57,o),
(117,109,c),
(73,34,l),
(106,8,o),
(160,-10,o),
(209,-10,cs),
(336,-10,o),
(425,76,o),
(424,188,c)
);
},
{
closed = 1;
nodes = (
(424,186,l),
(424,273,o),
(356,333,o),
(261,333,cs),
(212,333,o),
(152,303,o),
(106,260,c),
(106,240,l),
(133,264,o),
(177,280,o),
(220,280,cs),
(299,280,o),
(353,232,o),
(352,156,c)
);
}
);
width = 447;
}
);
note = b;
unicode = 98;
},
{
color = 2;
glyphname = c;
lastChange = "2025-01-11 07:08:04 +0000";
layers = (
{
anchors = (
{
name = bottom;
pos = (212,0);
},
{
name = top;
pos = (212,323);
}
);
background = {
shapes = (
{
closed = 1;
nodes = (
(111,302,o),
(155,362,o),
(215,362,cs),
(260,362,o),
(294,325,o),
(297,266,c),
(88,260,l),
(84,231,l),
(366,225,l),
(378,239,l),
(378,330,o),
(316,395,o),
(229,395,cs),
(117,395,o),
(36,309,o),
(36,188,cs),
(36,71,o),
(109,-11,o),
(210,-11,cs),
(272,-11,o),
(341,33,o),
(376,95,c),
(358,108,l),
(335,75,o),
(283,52,o),
(231,52,cs),
(162,52,o),
(111,117,o),
(111,210,cs)
);
}
);
};
color = 4;
layerId = m005;
shapes = (
{
closed = 1;
nodes = (
(112,254,o),
(150,308,o),
(205,307,c),
(220,333,l),
(115,334,o),
(39,261,o),
(39,158,cs),
(39,60,o),
(109,-10,o),
(207,-10,cs),
(273,-10,o),
(344,31,o),
(375,87,c),
(355,99,l),
(329,67,o),
(276,45,o),
(226,45,cs),
(159,45,o),
(112,98,o),
(112,176,cs)
);
},
{
closed = 1;
nodes = (
(201,307,l),
(259,308,o),
(302,269,o),
(303,210,c),
(343,210,l),
(341,251,o),
(342,295,o),
(346,313,c),
(308,324,o),
(253,333,o),
(216,333,c)
);
}
);
width = 364;
}
);
unicode = 99;
},
{
color = 2;
glyphname = d;
lastChange = "2025-01-11 07:08:04 +0000";
layers = (
{
anchors = (
{
name = bottom;
pos = (232,0);
},
{
name = center;
pos = (344,466);
},
{
name = top;
pos = (232,323);
},
{
name = topright;
pos = (437,583);
}
);
background = {
anchors = (
{
name = bottom;
pos = (208,0);
},
{
name = ogonek;
pos = (371,10);
},
{
name = top;
pos = (208,384);
}
);
shapes = (
{
closed = 1;
nodes = (
(111,302,o),
(153,362,o),
(213,362,cs),
(258,362,o),
(292,325,o),
(295,266,c),
(88,260,l),
(84,231,l),
(364,225,l),
(376,239,l),
(376,330,o),
(314,395,o),
(227,395,cs),
(115,395,o),
(36,309,o),
(36,188,cs),
(36,71,o),
(107,-11,o),
(208,-11,cs),
(270,-11,o),
(339,33,o),
(374,95,c),
(356,108,l),
(333,75,o),
(281,52,o),
(229,52,cs),
(160,52,o),
(111,117,o),
(111,210,cs)
);
},
{
closed = 1;
nodes = (
(111,302,o),
(153,362,o),
(213,362,cs),
(258,362,o),
(292,325,o),
(295,266,c),
(88,260,l),
(84,231,l),
(364,225,l),
(376,239,l),
(376,330,o),
(314,395,o),
(227,395,cs),
(115,395,o),
(36,309,o),
(36,188,cs),
(36,71,o),
(107,-11,o),
(208,-11,cs),
(270,-11,o),
(339,33,o),
(374,95,c),
(356,108,l),
(333,75,o),
(281,52,o),
(229,52,cs),
(160,52,o),
(111,117,o),
(111,210,cs)
);
}
);
};
color = 3;
layerId = m005;
shapes = (
{
closed = 1;
nodes = (
(39,159,l),
(39,61,o),
(102,-10,o),
(191,-10,cs),
(236,-10,o),
(301,17,o),
(354,58,c),
(354,77,l),
(319,57,o),
(270,42,o),
(235,42,cs),
(165,42,o),
(113,101,o),
(114,187,c)
);
},
{
closed = 1;
nodes = (
(317,48,l),
(322,48,l),
(321,-5,l),
(335,-11,l),
(448,17,l),
(448,35,l),
(412,49,o),
(387,66,o),
(392,73,c)
);
},
{
closed = 1;
nodes = (
(114,185,l),
(114,252,o),
(162,300,o),
(226,300,cs),
(272,300,o),
(321,267,o),
(343,219,c),
(369,299,l),
(341,318,o),
(289,333,o),
(246,333,cs),
(125,333,o),
(38,258,o),
(39,157,c)
);
},
{
closed = 1;
nodes = (
(391,71,l),
(391,468,l),
(393,553,l),
(377,562,l),
(257,536,l),
(257,517,l),
(294,503,o),
(321,485,o),
(321,473,cs),
(321,47,l)
);
}
);
width = 447;
}
);
unicode = 100;
},
{
glyphname = dcroat;
lastChange = "2025-01-10 15:52:57 +0000";
layers = (
{
layerId = m005;
shapes = (
{
ref = d;
},
{
closed = 1;
nodes = (
(290,441,l),
(477,509,l),
(467,539,l),
(279,471,l)
);
}
);
width = 486;
}
);
unicode = 273;
},
{
glyphname = eth;
lastChange = "2025-01-10 19:44:07 +0000";
layers = (
{
hints = (
{
horizontal = 1;
origin = (0,31);
place = (-4,-37);
type = Stem;
},
{
horizontal = 1;
origin = (0,31);
place = (-4,-51);
type = Stem;
},
{
origin = (0,31);
place = (229,-87);
type = Stem;
},
{
origin = (0,31);
place = (229,-79);
type = Stem;
}
);
layerId = m005;
shapes = (
{
closed = 1;
nodes = (
(346,-4,o),
(429,101,o),
(429,249,cs),
(429,440,o),
(305,595,o),
(105,659,c),
(89,619,l),
(247,569,o),
(346,421,o),
(346,226,cs),
(346,113,o),
(300,33,o),
(241,33,cs),
(172,33,o),
(119,113,o),
(119,225,cs),
(119,301,o),
(171,354,o),
(231,354,cs),
(299,354,o),
(349,321,o),
(351,275,c),
(367,296,l),
(359,354,o),
(306,395,o),
(239,395,cs),
(123,395,o),
(36,315,o),
(36,203,cs),
(36,82,o),
(116,-4,o),
(229,-4,cs)
);
},
{
closed = 1;
nodes = (
(220,441,l),
(407,509,l),
(397,539,l),
(209,471,l)
);
}
);
width = 468;
}
);
unicode = 240;
},
{
color = 2;
glyphname = e;
lastChange = "2025-01-11 07:08:04 +0000";
layers = (
{
anchors = (
{
name = bottom;
pos = (201,0);
},
{
name = ogonek;
pos = (285,8);
},
{
name = top;
pos = (214,323);
}
);
background = {
shapes = (
{
closed = 1;
nodes = (
(109,168,l,{
"Letterink-NibData" = {
AngleInDegrees = "0";
};
}),
(407,340,l,{
"Letterink-NibData" = {
AngleInDegrees = "359.99998";
};
}),
(404,346,l,{
"Letterink-NibData" = {
AngleInDegrees = "360";
};
}),
(364,380,o),
(326,395,o),
(281,395,cs),
(234,395,o),
(202,383,o),
(158,348,c,{
"Letterink-NibData" = {
AngleInDegrees = "360";
};
}),
(75,315,o),
(32,256,o),
(32,174,cs),
(32,74,o),
(116,-11,o),
(215,-11,cs),
(264,-11,o),
(294,1,o),
(341,39,c,{
"Letterink-NibData" = {
AngleInDegrees = "0";
};
}),
(338,44,l,{
"Letterink-NibData" = {
AngleInDegrees = "360";
};
}),
(309,37,o),
(300,35,o),
(281,35,cs),
(196,35,o),
(130,87,o),
(108,170,c,{
"Letterink-NibData" = {
AngleInDegrees = "0";
};
})
);
},
{
closed = 1;
nodes = (
(107,177,l,{
"Letterink-NibData" = {
AngleInDegrees = "0";
};
}),
(105,192,o),
(104,198,o),
(104,210,cs),
(104,259,o),
(123,301,o),
(162,341,c,{
"Letterink-NibData" = {
AngleInDegrees = "360";
};
}),
(186,347,o),
(198,349,o),
(215,349,cs),
(260,349,o),
(292,337,o),
(332,306,c,{
"Letterink-NibData" = {
AngleInDegrees = "360";
};
})
);
},
{
closed = 1;
nodes = (
(32,189,l),
(32,72,o),
(99,-11,o),
(193,-11,cs),
(236,-11,o),
(308,26,o),
(366,79,c),
(366,98,l),
(326,69,o),
(273,49,o),
(238,49,cs),
(163,49,o),
(110,120,o),
(110,220,c)
);
}
);
};
color = 4;
layerId = m005;
shapes = (
{
closed = 1;
nodes = (
(112,254,o),
(152,303,o),
(206,303,cs),
(245,303,o),
(277,272,o),
(280,224,c),
(87,219,l),
(84,193,l),
(346,188,l),
(358,201,l),
(358,276,o),
(300,333,o),
(219,333,cs),
(115,333,o),
(39,260,o),
(39,158,cs),
(39,60,o),
(108,-10,o),
(201,-10,cs),
(260,-10,o),
(325,29,o),
(356,80,c),
(337,93,l),
(316,65,o),
(269,45,o),
(221,45,cs),
(158,45,o),
(112,98,o),
(112,176,cs)
);
}
);
width = 364;
}
);
note = e;
unicode = 101;
},
{
glyphname = schwa;
lastChange = "2025-01-10 15:45:59 +0000";
layers = (
{
layerId = m005;
shapes = (
{
closed = 1;
nodes = (
(285,82,o),
(241,22,o),
(181,22,cs),
(136,22,o),
(102,59,o),
(99,118,c),
(308,124,l),
(312,153,l),
(30,159,l),
(18,145,l),
(18,54,o),
(80,-11,o),
(167,-11,cs),
(279,-11,o),
(360,75,o),
(360,196,cs),
(360,313,o),
(287,395,o),
(186,395,cs),
(124,395,o),
(55,351,o),
(20,289,c),
(38,276,l),
(61,309,o),
(113,332,o),
(165,332,cs),
(234,332,o),
(285,267,o),
(285,174,cs)
);
}
);
width = 396;
}
);
unicode = 601;
},
{
color = 2;
glyphname = f;
lastChange = "2025-01-11 07:08:04 +0000";
layers = (
{
anchors = (
{
name = bottom;
pos = (149,0);
},
{
name = top;
pos = (149,583);
}
);
background = {
shapes = (
{
closed = 1;
nodes = (
(91,386,l),
(91,387,l,{
"Letterink-NibData" = {
AngleInDegrees = "360";
};
}),
(18,346,l,{
"Letterink-NibData" = {
AngleInDegrees = "360";
};
}),
(21,341,l),
(91,341,l),
(91,40,l,{
"Letterink-NibData" = {
AngleInDegrees = "0";
};
}),
(116,18,o),
(135,7,o),
(164,-3,c,{
"Letterink-NibData" = {
AngleInDegrees = "0";
};
}),
(239,40,l,{
"Letterink-NibData" = {
AngleInDegrees = "0";
};
}),
(202,52,o),
(186,60,o),
(163,80,c),
(163,342,l,{
"Letterink-NibData" = {
AngleInDegrees = "360";
};
}),
(164,341,l),
(270,341,l,{
"Letterink-NibData" = {
AngleInDegrees = "360";
};
}),
(343,382,l,{
"Letterink-NibData" = {
AngleInDegrees = "0";
};
}),
(340,387,l),
(163,387,l),
(163,662,l,{
"Letterink-NibData" = {
AngleInDegrees = "360";
};
}),
(164,661,l,{
"Letterink-NibData" = {
AngleInDegrees = "0";
};
}),
(187,667,o),
(198,669,o),
(217,669,cs),
(265,669,o),
(294,657,o),
(340,621,c,{
"Letterink-NibData" = {
AngleInDegrees = "0";
};
}),
(411,662,l,{
"Letterink-NibData" = {
AngleInDegrees = "0";
};
}),
(357,705,o),
(332,715,o),
(282,715,cs),
(235,715,o),
(203,703,o),
(160,667,c,{
"Letterink-NibData" = {
AngleInDegrees = "360";
};
}),
(91,628,l)
);
},
{
closed = 0;
nodes = (
(92,68,l),
(92,37,o),
(75,32,o),
(36,18,c),
(36,0,l),
(249,0,l),
(249,18,l),
(180,32,o),
(163,38,o),
(163,68,cs)
);
}
);
};
color = 5;
guides = (
{
angle = 46;
lockAngle = 1;
pos = (301,567);
}
);
layerId = m005;
shapes = (
{
closed = 1;
nodes = (
(23,-1,l),
(259,-1,l),
(259,16,l),
(198,27,o),
(166,26,o),
(164,58,cs),
(159,137,o),
(159,255,o),
(164,377,cs),
(166,428,o),
(161,523,o),
(223,523,cs),
(243,523,o),
(250,518,o),
(258,508,cs),
(267,498,o),
(271,483,o),
(281,475,cs),
(304,457,o),
(363,517,o),
(341,537,cs),
(325,552,o),
(293,560,o),
(256,560,cs),
(201,560,o),
(156,530,o),
(130,497,cs),
(99,455,o),
(94,413,o),
(90,325,cs),
(89,298,o),
(89,186,o),
(90,58,cs),
(90,26,o),
(61,28,o),
(23,15,c)
);
},
{
closed = 1;
nodes = (
(292,280,l),
(292,328,l),
(98,324,l),
(23,303,l),
(23,292,l)
);
}
);
width = 282;
}
);
note = f;
unicode = 102;
},
{
color = 2;
glyphname = g;
lastChange = "2025-01-11 07:08:04 +0000";
layers = (
{
anchors = (
{
name = bottom;
pos = (199,-195);
},
{
name = top;
pos = (199,323);
}
);
background = {
shapes = (
{
closed = 1;
nodes = (
(318,384,o),
(290,395,o),
(242,395,cs),
(194,395,o),
(163,383,o),
(119,347,c,{
"Letterink-NibData" = {
AngleInDegrees = "359.99999";
};
}),
(37,316,o),
(-7,256,o),
(-7,174,cs),
(-7,74,o),
(77,-11,o),
(176,-11,cs),
(222,-11,o),
(254,1,o),
(295,34,c),
(295,-238,l),
(295,-237,l,{
"Letterink-NibData" = {
AngleInDegrees = "359.99999";
};
}),
(272,-243,o),
(260,-245,o),
(242,-245,cs),
(194,-245,o),
(165,-234,o),
(119,-197,c,{
"Letterink-NibData" = {
AngleInDegrees = "0";
};
}),
(48,-238,l,{
"Letterink-NibData" = {
AngleInDegrees = "359.99999";
};
}),
(100,-280,o),
(128,-291,o),
(176,-291,cs),
(224,-291,o),
(255,-279,o),
(299,-244,c,{
"Letterink-NibData" = {
AngleInDegrees = "0";
};
}),
(367,-204,l),
(367,344,l,{
"Letterink-NibData" = {
AngleInDegrees = "0";
};
})
);
},
{
closed = 1;
nodes = (
(272,37,o),
(260,35,o),
(242,35,cs),
(142,35,o),
(65,111,o),
(65,210,cs),
(65,259,o),
(84,302,o),
(123,341,c,{
"Letterink-NibData" = {
AngleInDegrees = "360";
};
}),
(147,347,o),
(158,349,o),
(176,349,cs),
(222,349,o),
(254,337,o),
(295,304,c),
(295,42,l),
(295,43,l,{
"Letterink-NibData" = {
AngleInDegrees = "359.99999";
};
})
);
}
);
};
color = 6;
layerId = m005;
shapes = (
{
closed = 1;
nodes = (
(253,286,l),
(391,278,l),
(391,328,l),
(221,315,l)
);
},
{
closed = 1;
nodes = (
(39,10,o),
(76,-13,o),
(127,-13,cs),
(157,-13,o),
(221,-13,o),
(266,-13,cs),
(306,-13,o),
(335,-27,o),
(335,-49,cs),
(335,-108,o),
(277,-153,o),
(195,-153,cs),
(134,-153,o),
(88,-117,o),
(88,-72,cs),
(88,-38,o),
(105,4,o),
(135,8,c),
(104,14,l),
(54,-5,o),
(23,-60,o),
(23,-100,cs),
(23,-147,o),
(71,-187,o),
(144,-187,cs),
(287,-187,o),
(383,-113,o),
(383,-18,cs),
(383,17,o),
(347,45,o),
(297,45,cs),
(163,45,ls),
(129,45,o),
(105,55,o),
(105,71,cs),
(105,82,o),
(123,102,o),
(147,119,c),
(122,128,l),
(75,106,o),
(39,71,o),
(39,43,cs)
);
},
{
closed = 1;
nodes = (
(123,277,o),
(157,308,o),
(193,308,cs),
(235,308,o),
(267,265,o),
(267,201,cs),
(267,155,o),
(241,123,o),
(205,123,cs),
(162,123,o),
(123,167,o),
(123,232,cs)
);
},
{
closed = 1;
nodes = (
(48,147,o),
(115,100,o),
(198,100,cs),
(282,100,o),
(341,150,o),
(341,219,cs),
(341,284,o),
(283,331,o),
(201,331,cs),
(117,331,o),
(48,281,o),
(48,213,cs)
);
}
);
width = 397;
}
);
note = g;
unicode = 103;
},
{
color = 2;
glyphname = h;
lastChange = "2025-01-11 07:08:04 +0000";
layers = (
{
anchors = (
{
name = bottom;
pos = (232,0);
},
{
name = center;
pos = (141,468);
},
{
name = top;
pos = (100,541);
}
);
color = 1;
layerId = m005;
shapes = (
{
closed = 1;
nodes = (
(23,-1,l),
(209,-1,l),
(209,16,l),
(166,28,o),
(143,33,o),
(143,57,cs),
(143,468,l),
(145,553,l),
(129,562,l),
(6,536,l),
(6,516,l),
(26,510,o),
(73,500,o),
(73,473,cs),
(73,57,ls),
(73,33,o),
(50,27,o),
(23,15,c)
);
},
{
closed = 1;
nodes = (
(441,-1,l),
(441,15,l),
(404,28,o),
(391,31,o),
(391,57,cs),
(391,229,ls),
(391,298,o),
(359,333,o),
(293,333,cs),
(246,333,o),
(181,308,o),
(119,256,c),
(119,237,l),
(177,275,o),
(220,280,o),
(252,280,cs),
(299,280,o),
(317,257,o),
(321,207,cs),
(325,157,o),
(325,107,o),
(321,57,cs),
(319,32,o),
(296,27,o),
(271,15,c),
(271,-1,l)
);
}
);
width = 447;
}
);
unicode = 104;
},
{
glyphname = hbar;
lastChange = "2025-01-10 15:51:25 +0000";
layers = (
{
layerId = m005;
shapes = (
{
ref = h;
},
{
closed = 1;
nodes = (
(20,423,l),
(207,491,l),
(197,521,l),
(9,453,l)
);
}
);
width = 486;
}
);
unicode = 295;
},
{
color = 2;
glyphname = idotless;
lastChange = "2025-01-11 07:08:04 +0000";
layers = (
{
anchors = (
{
name = bottom;
pos = (121,0);
},
{
name = ogonek;
pos = (218,0);
},
{
name = top;
pos = (116,323);
}
);
layerId = m005;
shapes = (
{
closed = 1;
nodes = (
(39,-1,l),
(209,-1,l),
(209,15,l),
(173,27,o),
(159,33,o),
(159,57,cs),
(159,124,o),
(157,197,o),
(159,264,cs),
(161,330,l),
(144,340,l),
(23,305,l),
(23,285,l),
(50,279,o),
(85,269,o),
(86,250,cs),
(90,187,o),
(90,120,o),
(86,57,cs),
(84,33,o),
(71,27,o),
(39,15,c)
);
}
);
width = 215;
}
);
unicode = 305;
},
{
color = 2;
glyphname = jdotless;
lastChange = "2025-01-11 07:08:04 +0000";
layers = (
{
anchors = (
{
name = bottom;
pos = (108,-195);
},
{
name = top;
pos = (108,323);
}
);
layerId = m005;
shapes = (
{
closed = 1;
nodes = (
(29,-188,o),
(30,-187,o),
(30,-187,c),
(40,-184,o),
(53,-176,o),
(62,-170,cs),
(110,-139,o),
(143,-43,o),
(143,57,cs),
(143,264,l),
(145,330,l),
(129,340,l),
(6,305,l),
(6,286,l),
(38,274,o),
(71,259,o),
(71,250,cs),
(73,213,o),
(73,108,o),
(73,1,cs),
(73,-73,o),
(58,-134,o),
(39,-149,c),
(36,-149,o),
(33,-149,o),
(29,-149,cs),
(26,-149,o),
(21,-149,o),
(19,-149,c),
(9,-146,o),
(12,-140,o),
(-3,-137,cs),
(-22,-132,o),
(-45,-160,o),
(-45,-178,cs),
(-45,-186,o),
(-41,-193,o),
(-32,-194,cs),
(-27,-195,o),
(-21,-196,o),
(-15,-196,cs),
(-1,-196,o),
(15,-193,o),
(27,-189,cs)
);
}
);
width = 199;
}
);
unicode = 567;
},
{
color = 2;
glyphname = k;
lastChange = "2025-01-11 07:08:04 +0000";
layers = (
{
anchors = (
{
name = bottom;
pos = (224,0);
},
{
name = top;
pos = (224,583);
}
);
color = 2;
layerId = m005;
shapes = (
{
closed = 1;
nodes = (
(23,-1,l),
(192,-1,l),
(192,15,l),
(160,27,o),
(143,33,o),
(143,57,cs),
(143,468,l),
(145,553,l),
(129,560,l),
(6,536,l),
(6,516,l),
(26,510,o),
(73,500,o),
(73,473,cs),
(73,57,ls),
(73,33,o),
(57,27,o),
(23,15,c)
);
},
{
closed = 1;
nodes = (
(120,120,l),
(193,163,o),
(256,214,o),
(308,273,cs),
(321,287,o),
(345,294,o),
(391,302,c),
(391,324,l),
(222,324,l),
(222,302,l),
(267,298,o),
(272,296,o),
(240,256,cs),
(205,213,o),
(163,176,o),
(108,150,c)
);
},
{
closed = 1;
nodes = (
(180,192,l),
(289,44,ls),
(297,33,o),
(290,19,o),
(255,18,c),
(255,-1,l),
(441,-1,l),
(441,20,l),
(412,23,o),
(387,32,o),
(377,47,cs),
(241,236,l)
);
}
);
width = 431;
}
);
unicode = 107;
},
{
color = 2;
glyphname = l;
lastChange = "2025-01-11 07:08:04 +0000";
layers = (
{
anchors = (
{
name = bottom;
pos = (108,0);
},
{
name = center;
pos = (108,161);
},
{
name = top;
pos = (108,583);
},
{
name = topright;
pos = (189,583);
}
);
background = {
shapes = (
{
closed = 1;
nodes = (
(72,40,l,{
"Letterink-NibData" = {
AngleInDegrees = "0";
};
}),
(97,18,o),
(116,7,o),
(146,-3,c,{
"Letterink-NibData" = {
AngleInDegrees = "360";
};
}),
(220,40,l,{
"Letterink-NibData" = {
AngleInDegrees = "0";
};
}),
(182,52,o),
(168,60,o),
(144,80,c),
(144,664,l,{
"Letterink-NibData" = {
AngleInDegrees = "359.99999";
};
}),
(118,687,o),
(102,697,o),
(71,707,c,{
"Letterink-NibData" = {
AngleInDegrees = "359.99999";
};
}),
(-3,664,l,{
"Letterink-NibData" = {
AngleInDegrees = "0";
};
}),
(34,652,o),
(49,644,o),
(72,624,c)
);
}
);
};
color = 1;
layerId = m005;
shapes = (
{
closed = 1;
nodes = (
(6,-1,l),
(209,-1,l),
(209,16,l),
(166,28,o),
(143,33,o),
(143,57,cs),
(143,468,l),
(145,553,l),
(129,562,l),
(6,536,l),
(6,516,l),
(26,510,o),
(73,500,o),
(73,473,cs),
(73,57,ls),
(73,33,o),
(50,28,o),
(6,16,c)
);
}
);
width = 199;
}
);
note = l;
unicode = 108;
},
{
glyphname = lslash;
lastChange = "2025-01-10 15:47:40 +0000";
layers = (
{
layerId = m005;
shapes = (
{
ref = l;
},
{
closed = 1;
nodes = (
(20,297,l),
(207,365,l),
(197,395,l),
(9,327,l)
);
}
);
width = 216;
}
);
unicode = 322;
},
{
color = 2;
glyphname = m;
lastChange = "2025-01-11 07:08:04 +0000";
layers = (
{
anchors = (
{
name = bottom;
pos = (348,0);
},
{
name = top;
pos = (348,323);
}
);
background = {
shapes = (
{
closed = 1;
nodes = (
(88,40,l,{
"Letterink-NibData" = {
AngleInDegrees = "0";
};
}),
(113,18,o),
(132,7,o),
(162,-3,c,{
"Letterink-NibData" = {
AngleInDegrees = "360";
};
}),
(236,40,l,{
"Letterink-NibData" = {
AngleInDegrees = "0";
};
}),
(198,52,o),
(184,60,o),
(160,80,c),
(160,342,l,{
"Letterink-NibData" = {
AngleInDegrees = "360";
};
}),
(161,341,l,{
"Letterink-NibData" = {
AngleInDegrees = "0";
};
}),
(184,347,o),
(196,349,o),
(214,349,cs),
(260,349,o),
(292,337,o),
(333,304,c),
(333,40,l,{
"Letterink-NibData" = {
AngleInDegrees = "0";
};
}),
(358,18,o),
(377,6,o),
(406,-3,c,{
"Letterink-NibData" = {
AngleInDegrees = "0";
};
}),
(481,40,l,{
"Letterink-NibData" = {
AngleInDegrees = "0";
};
}),
(443,52,o),
(428,60,o),
(405,80,c),
(405,342,l,{
"Letterink-NibData" = {
AngleInDegrees = "360";
};
}),
(406,341,l,{
"Letterink-NibData" = {
AngleInDegrees = "0";
};
}),
(429,347,o),
(440,349,o),
(459,349,cs),
(505,349,o),
(537,337,o),
(578,304,c),
(578,40,l,{
"Letterink-NibData" = {
AngleInDegrees = "0";
};
}),
(603,18,o),
(622,7,o),
(651,-3,c,{
"Letterink-NibData" = {
AngleInDegrees = "360";
};
}),
(725,40,l,{
"Letterink-NibData" = {
AngleInDegrees = "359.99999";
};
}),
(689,52,o),
(673,60,o),
(650,80,c),
(650,344,l,{
"Letterink-NibData" = {
AngleInDegrees = "0";
};
}),
(600,384,o),
(572,395,o),
(524,395,cs),
(477,395,o),
(445,383,o),
(402,347,c,{
"Letterink-NibData" = {
AngleInDegrees = "360";
};
}),
(403,346,ls,{
"Letterink-NibData" = {
AngleInDegrees = "0";
};
}),
(358,382,o),
(325,395,o),
(280,395,cs),
(232,395,o),
(201,383,o),
(157,347,c,{
"Letterink-NibData" = {
AngleInDegrees = "360";
};
}),
(158,346,ls,{
"Letterink-NibData" = {
AngleInDegrees = "359.99999";
};
}),
(134,367,o),
(116,377,o),
(87,387,c,{
"Letterink-NibData" = {
AngleInDegrees = "359.99999";
};
}),
(13,344,l,{
"Letterink-NibData" = {
AngleInDegrees = "0";
};
}),
(50,332,o),
(65,324,o),
(88,304,c)
);
},
{
closed = 1;
nodes = (
(399,298,l),
(439,325,o),
(469,335,o),
(502,335,cs),
(554,335,o),
(577,307,o),
(577,246,cs),
(577,68,ls),
(577,37,o),
(561,32,o),
(522,18,c),
(522,0,l),
(704,0,l),
(704,18,l),
(665,32,o),
(649,37,o),
(649,68,cs),
(649,273,ls),
(649,352,o),
(614,395,o),
(545,395,cs),
(492,395,o),
(448,367,o),
(389,310,c)
);
}
);
};
color = 1;
layerId = m005;
shapes = (
{
closed = 1;
nodes = (
(441,-1,l),
(441,15,l),
(407,28,o),
(391,31,o),
(391,57,cs),
(391,229,ls),
(391,298,o),
(359,333,o),
(293,333,cs),
(246,333,o),
(189,308,o),
(128,256,c),
(128,237,l),
(185,275,o),
(219,280,o),
(251,280,cs),
(299,280,o),
(318,257,o),
(321,207,cs),
(324,157,o),
(324,107,o),
(321,57,cs),
(319,32,o),
(297,21,o),
(271,16,c),
(271,-1,l)
);
},
{
closed = 1;
nodes = (
(226,-1,l),
(226,16,l),
(182,28,o),
(157,32,o),
(157,57,cs),
(157,265,l),
(155,265,l),
(155,265,l),
(157,265,l),
(157,331,l),
(146,340,l),
(23,305,l),
(23,285,l),
(51,279,o),
(86,268,o),
(87,250,cs),
(90,187,o),
(90,120,o),
(87,57,cs),
(86,31,o),
(63,28,o),
(23,16,c),
(23,-1,l)
);
},
{
closed = 1;
nodes = (
(689,-1,l),
(689,16,l),
(647,28,o),
(623,31,o),
(623,57,cs),
(623,229,ls),
(623,298,o),
(591,333,o),
(525,333,cs),
(478,333,o),
(423,308,o),
(361,256,c),
(361,237,l),
(419,275,o),
(455,280,o),
(484,280,cs),
(531,280,o),
(548,257,o),
(552,207,cs),
(556,157,o),
(556,107,o),
(552,57,cs),
(550,32,o),
(537,21,o),
(487,16,c),
(487,-1,l)
);
}
);
width = 679;
}
);
note = m;
unicode = 109;
},
{
glyphname = n;
lastChange = "2025-01-10 19:52:48 +0000";
layers = (
{
anchors = (
{
name = bottom;
pos = (243,0);
},
{
name = top;
pos = (243,384);
}
);
background = {
shapes = (
{
closed = 1;
nodes = (
(91,40,l),
(116,18,o),
(135,7,o),
(165,-3,c),
(239,40,l),
(201,52,o),
(187,60,o),
(163,80,c),
(163,342,l),
(164,341,l),
(187,347,o),
(199,349,o),
(217,349,cs),
(263,349,o),
(295,337,o),
(336,304,c),
(336,40,l),
(361,18,o),
(380,6,o),
(409,-3,c),
(484,40,l),
(446,52,o),
(431,60,o),
(408,80,c),
(408,344,l),
(358,384,o),
(331,395,o),
(283,395,cs),
(235,395,o),
(204,383,o),
(160,347,c),
(161,346,ls),
(137,367,o),
(119,377,o),
(90,387,c),
(16,344,l),
(53,332,o),
(68,324,o),
(91,304,c)
);
},
{
closed = 1;
nodes = (
(91,40,l,{
"Letterink-NibData" = {
AngleInDegrees = "0";
};
}),
(116,18,o),
(135,7,o),
(165,-3,c,{
"Letterink-NibData" = {
AngleInDegrees = "360";
};
}),
(239,40,l,{
"Letterink-NibData" = {
AngleInDegrees = "0";
};
}),
(201,52,o),
(187,60,o),
(163,80,c),
(163,342,l,{
"Letterink-NibData" = {
AngleInDegrees = "360";
};
}),
(164,341,l,{
"Letterink-NibData" = {
AngleInDegrees = "0";
};
}),
(187,347,o),
(199,349,o),
(217,349,cs),
(263,349,o),
(295,337,o),
(336,304,c),
(336,40,l,{
"Letterink-NibData" = {
AngleInDegrees = "0";
};
}),
(361,18,o),
(380,6,o),
(409,-3,c,{
"Letterink-NibData" = {
AngleInDegrees = "0";
};
}),
(484,40,l,{
"Letterink-NibData" = {
AngleInDegrees = "0";
};
}),
(446,52,o),
(431,60,o),
(408,80,c),
(408,344,l,{
"Letterink-NibData" = {
AngleInDegrees = "0";
};
}),
(358,384,o),
(331,395,o),
(283,395,cs),
(235,395,o),
(204,383,o),
(160,347,c,{
"Letterink-NibData" = {
AngleInDegrees = "360";
};
}),
(161,346,ls,{
"Letterink-NibData" = {
AngleInDegrees = "359.99999";
};
}),
(137,367,o),
(119,377,o),
(90,387,c,{
"Letterink-NibData" = {
AngleInDegrees = "359.99999";
};
}),
(16,344,l,{
"Letterink-NibData" = {
AngleInDegrees = "0";
};
}),
(53,332,o),
(68,324,o),
(91,304,c)
);
}
);
};
color = 1;
layerId = m005;
shapes = (
{
closed = 1;
nodes = (
(486,0,l),
(486,18,l),
(438,32,o),
(414,37,o),
(414,68,cs),
(414,273,ls),
(414,355,o),
(382,395,o),
(312,395,cs),
(262,395,o),
(205,365,o),
(139,305,c),
(139,286,l),
(199,329,o),
(232,335,o),
(267,335,cs),
(319,335,o),
(338,306,o),
(342,246,cs),
(346,189,o),
(346,125,o),
(342,68,cs),
(340,38,o),
(316,24,o),
(288,18,c),
(288,0,l)
);
},
{
closed = 1;
nodes = (
(216,0,l),
(216,18,l),
(182,32,o),
(162,38,o),
(162,68,cs),
(162,315,l),
(164,315,l),
(165,397,l),
(150,403,l),
(18,362,l),
(18,341,l),
(46,333,o),
(86,319,o),
(89,298,cs),
(91,284,o),
(91,129,o),
(89,68,cs),
(88,37,o),
(76,32,o),
(36,18,c),
(36,0,l)
);
}
);
width = 486;
}
);
note = n;
unicode = 110;
},
{
color = 2;
glyphname = o;
lastChange = "2025-01-11 07:08:04 +0000";
layers = (
{
anchors = (
{
name = bottom;
pos = (232,0);
},
{
name = center;
pos = (232,161);
},
{
name = ogonek;
pos = (410,8);
},
{
name = top;
pos = (232,323);
},
{
name = topright;
pos = (310,249);
}
);
background = {
shapes = (
{
closed = 1;
nodes = (
(76,316,o),
(32,256,o),
(32,174,cs),
(32,74,o),
(116,-11,o),
(215,-11,cs),
(263,-11,o),
(294,1,o),
(338,36,c),
(421,68,o),
(464,128,o),
(464,210,cs),
(464,310,o),
(380,395,o),
(281,395,cs),
(233,395,o),
(202,383,o),
(158,347,c)
);
},
{
closed = 1;
nodes = (
(186,347,o),
(197,349,o),
(215,349,cs),
(315,349,o),
(392,273,o),
(392,174,cs),
(392,125,o),
(373,82,o),
(334,43,c),
(310,37,o),
(298,35,o),
(281,35,cs),
(181,35,o),
(104,111,o),
(104,210,cs),
(104,259,o),
(123,302,o),
(162,341,c)
);
},
{
closed = 1;
nodes = (
(88,320,o),
(32,244,o),
(32,174,cs),
(32,71,o),
(113,-11,o),
(215,-11,cs),
(249,-11,o),
(304,10,o),
(338,36,c,{
"Letterink-NibData" = {
AngleInDegrees = "0";
};
}),
(408,63,o),
(464,140,o),
(464,210,cs),
(464,313,o),
(383,395,o),
(281,395,cs),
(259,395,o),
(205,374,o),
(158,347,c,{
"Letterink-NibData" = {
AngleInDegrees = "359.99999";
};
})
);
},
{
closed = 1;
nodes = (
(230,346,o),
(247,349,o),
(215,349,cs),
(314,349,o),
(392,271,o),
(392,174,cs),
(392,133,o),
(366,75,o),
(334,43,c,{
"Letterink-NibData" = {
AngleInDegrees = "360";
};
}),
(307,39,o),
(281,35,o),
(281,35,cs),
(182,35,o),
(104,113,o),
(104,210,cs),
(104,251,o),
(130,309,o),
(162,341,c,{
"Letterink-NibData" = {
AngleInDegrees = "360";
};
})
);
}
);
};
color = 4;
layerId = m005;
shapes = (
{
closed = 1;
nodes = (
(343,-10,o),
(424,63,o),
(424,165,cs),
(424,263,o),
(343,333,o),
(228,333,cs),
(118,333,o),
(39,259,o),
(39,155,cs),
(39,58,o),
(118,-10,o),
(228,-10,cs)
);
},
{
closed = 1;
nodes = (
(121,249,o),
(162,301,o),
(221,301,cs),
(292,301,o),
(343,237,o),
(343,146,cs),
(343,73,o),
(299,22,o),
(236,22,cs),
(169,22,o),
(121,85,o),
(121,175,cs)
);
}
);
width = 447;
}
);
note = o;
unicode = 111;
},
{
glyphname = oslash;
lastChange = "2025-01-10 15:32:28 +0000";
layers = (
{
layerId = m005;
shapes = (
{
ref = o;
},
{
closed = 1;
nodes = (
(38,8,l),
(63,-17,l),
(453,372,l),
(428,397,l)
);
}
);
width = 486;
}
);
unicode = 248;
},
{
color = 2;
glyphname = oe;
lastChange = "2025-01-11 07:08:04 +0000";
layers = (
{
anchors = (
{
name = bottom;
pos = (348,0);
},
{
name = top;
pos = (348,323);
}
);
color = 10;
layerId = m005;
shapes = (
{
closed = 1;
nodes = (
(350,-10,o),
(425,63,o),
(425,165,cs),
(425,263,o),
(350,333,o),
(232,333,cs),
(119,333,o),
(38,259,o),
(38,155,cs),
(38,59,o),
(119,-10,o),
(232,-10,cs)
);
},
{
closed = 1;
nodes = (
(123,249,o),
(165,301,o),
(224,301,cs),
(297,301,o),
(348,237,o),
(348,146,cs),
(348,73,o),
(303,22,o),
(239,22,cs),
(171,22,o),
(123,85,o),
(123,175,cs)
);
},
{
closed = 1;
nodes = (
(428,254,o),
(466,303,o),
(520,303,cs),
(559,303,o),
(590,272,o),
(593,224,c),
(403,219,l),
(399,193,l),
(660,188,l),
(672,201,l),
(672,276,o),
(614,333,o),
(533,333,cs),
(429,333,o),
(355,260,o),
(355,158,cs),
(355,60,o),
(421,-10,o),
(515,-10,cs),
(573,-10,o),
(639,29,o),
(670,80,c),
(650,93,l),
(630,65,o),
(582,45,o),
(535,45,cs),
(472,45,o),
(428,98,o),
(428,176,cs)
);
}
);
width = 679;
}
);
unicode = 339;
},
{
color = 2;
glyphname = p;
lastChange = "2025-01-11 07:08:04 +0000";
layers = (
{
associatedMasterId = m005;
background = {
shapes = (
{
closed = 1;
nodes = (
(76,-240,l,{
"Letterink-NibData" = {
AngleInDegrees = "0";
};
}),
(101,-262,o),
(120,-273,o),
(150,-283,c,{
"Letterink-NibData" = {
AngleInDegrees = "360";
};
}),
(224,-240,l,{
"Letterink-NibData" = {
AngleInDegrees = "0";
};
}),
(186,-228,o),
(172,-220,o),
(148,-200,c),
(148,-2,l,{
"Letterink-NibData" = {
AngleInDegrees = "360";
};
}),
(149,-3,l,{
"Letterink-NibData" = {
AngleInDegrees = "360";
};
}),
(172,-9,o),
(184,-11,o),
(202,-11,cs),
(249,-11,o),
(281,1,o),
(325,36,c,{
"Letterink-NibData" = {
AngleInDegrees = "0";
};
}),
(407,68,o),
(451,128,o),
(451,210,cs),
(451,310,o),
(367,395,o),
(268,395,cs),
(220,395,o),
(189,383,o),
(145,347,c,{
"Letterink-NibData" = {
AngleInDegrees = "360";
};
}),
(146,346,ls,{
"Letterink-NibData" = {
AngleInDegrees = "359.99999";
};
}),
(122,367,o),
(104,377,o),
(75,387,c,{
"Letterink-NibData" = {
AngleInDegrees = "359.99999";
};
}),
(1,344,l,{
"Letterink-NibData" = {
AngleInDegrees = "0";
};
}),
(38,332,o),
(53,324,o),
(76,304,c)
);
},
{
closed = 1;
nodes = (
(148,302,l),
(165,321,o),
(197,335,o),
(236,335,cs),
(317,335,o),
(373,269,o),
(373,183,cs),
(373,90,o),
(321,26,o),
(245,26,cs),
(189,26,o),
(155,64,o),
(148,101,c)
);
},
{
closed = 1;
nodes = (
(369,183,l),
(368,91,o),
(317,26,o),
(244,26,cs),
(191,26,o),
(137,67,o),
(113,125,c),
(67,40,l),
(104,10,o),
(168,-11,o),
(223,-11,cs),
(351,-11,o),
(443,83,o),
(443,216,c)
);
},
{
closed = 1;
nodes = (
(443,216,l),
(443,321,o),
(374,395,o),
(280,395,cs),
(228,395,o),
(156,360,o),
(107,310,c),
(107,291,l),
(137,317,o),
(190,335,o),
(235,335,cs),
(315,335,o),
(369,272,o),
(369,183,c)
);
}
);
};
layerId = "4BE9B7BC-113F-472C-95D8-B3830030B9AE";
name = "29. Dez. 24, 12:25";
shapes = (
{
closed = 1;
nodes = (
(456,226,l),
(456,325,o),
(393,395,o),
(304,395,cs),
(260,395,o),
(189,358,o),
(131,305,c),
(131,286,l),
(171,315,o),
(224,335,o),
(259,335,cs),
(318,335,o),
(363,281,o),
(368,204,c)
);
},
{
closed = 1;
nodes = (
(225,-260,l),
(225,-242,l),
(186,-228,o),
(159,-207,o),
(159,-192,cs),
(159,315,l),
(160,315,l),
(161,397,l),
(146,403,l),
(27,362,l),
(27,341,l),
(61,326,o),
(86,309,o),
(87,298,cs),
(93,208,o),
(93,5,o),
(87,-192,cs),
(86,-209,o),
(59,-229,o),
(22,-242,c),
(22,-260,l)
);
},
{
closed = 1;
nodes = (
(368,204,l),
(368,99,o),
(327,25,o),
(268,25,cs),
(215,25,o),
(163,56,o),
(142,101,c),
(105,31,l),
(136,6,o),
(201,-11,o),
(260,-11,cs),
(375,-11,o),
(456,87,o),
(456,226,c)
);
}
);
width = 488;
},
{
associatedMasterId = m005;
background = {
shapes = (
{
closed = 1;
nodes = (
(76,-240,l,{
"Letterink-NibData" = {
AngleInDegrees = "0";
};
}),
(101,-262,o),
(120,-273,o),
(150,-283,c,{
"Letterink-NibData" = {
AngleInDegrees = "360";
};
}),
(224,-240,l,{
"Letterink-NibData" = {
AngleInDegrees = "0";
};
}),
(186,-228,o),
(172,-220,o),
(148,-200,c),
(148,-2,l,{
"Letterink-NibData" = {
AngleInDegrees = "360";
};
}),
(149,-3,l,{
"Letterink-NibData" = {
AngleInDegrees = "360";
};
}),
(172,-9,o),
(184,-11,o),
(202,-11,cs),
(249,-11,o),
(281,1,o),
(325,36,c,{
"Letterink-NibData" = {
AngleInDegrees = "0";
};
}),
(407,68,o),
(451,128,o),
(451,210,cs),
(451,310,o),
(367,395,o),
(268,395,cs),
(220,395,o),
(189,383,o),
(145,347,c,{
"Letterink-NibData" = {
AngleInDegrees = "360";
};
}),
(146,346,ls,{
"Letterink-NibData" = {
AngleInDegrees = "359.99999";
};
}),
(122,367,o),
(104,377,o),
(75,387,c,{
"Letterink-NibData" = {
AngleInDegrees = "359.99999";
};
}),
(1,344,l,{
"Letterink-NibData" = {
AngleInDegrees = "0";
};
}),
(38,332,o),
(53,324,o),
(76,304,c)
);
},
{
closed = 1;
nodes = (
(148,302,l),
(165,321,o),
(197,335,o),
(236,335,cs),
(317,335,o),
(373,269,o),
(373,183,cs),
(373,90,o),
(321,26,o),
(245,26,cs),
(189,26,o),
(155,64,o),
(148,101,c)
);
},
{
closed = 1;
nodes = (
(369,183,l),
(368,91,o),
(317,26,o),
(244,26,cs),
(191,26,o),
(137,67,o),
(113,125,c),
(67,40,l),
(104,10,o),
(168,-11,o),
(223,-11,cs),
(351,-11,o),
(443,83,o),
(443,216,c)
);
},
{
closed = 1;
nodes = (
(443,216,l),
(443,321,o),
(374,395,o),
(280,395,cs),
(228,395,o),
(156,360,o),
(107,310,c),
(107,291,l),
(137,317,o),
(190,335,o),
(235,335,cs),
(315,335,o),
(369,272,o),
(369,183,c)
);
}
);
};
layerId = "8E049EDF-ED14-4448-BB42-4E4333D0143E";
name = "29. Dez. 24, 12:26";
shapes = (
{
closed = 1;
nodes = (
(456,226,l),
(456,325,o),
(393,395,o),
(304,395,cs),
(261,395,o),
(189,358,o),
(131,305,c),
(131,286,l),
(171,315,o),
(224,335,o),
(259,335,cs),
(318,335,o),
(363,281,o),
(368,204,c)
);
},
{
closed = 1;
nodes = (
(225,-260,l),
(225,-242,l),
(186,-228,o),
(159,-207,o),
(159,-192,cs),
(159,315,l),
(160,315,l),
(161,397,l),
(146,403,l),
(27,362,l),
(27,341,l),
(62,326,o),
(86,309,o),
(87,298,cs),
(93,208,o),
(93,5,o),
(87,-192,cs),
(86,-208,o),
(60,-229,o),
(22,-242,c),
(22,-260,l)
);
},
{
closed = 1;
nodes = (
(368,204,l),
(368,99,o),
(318,25,o),
(248,25,cs),
(207,25,o),
(163,56,o),
(142,101,c),
(105,31,l),
(137,6,o),
(193,-11,o),
(240,-11,cs),
(367,-11,o),
(456,87,o),
(456,226,c)
);
}
);
width = 488;
},
{
anchors = (
{
name = bottom;
pos = (232,0);
},
{
name = top;
pos = (232,323);
}
);
background = {
shapes = (
{
closed = 1;
nodes = (
(72,-240,l,{
"Letterink-NibData" = {
AngleInDegrees = "0";
};
}),
(97,-262,o),
(116,-273,o),
(146,-283,c,{
"Letterink-NibData" = {
AngleInDegrees = "360";
};
}),
(220,-240,l,{
"Letterink-NibData" = {
AngleInDegrees = "0";
};
}),
(182,-228,o),
(168,-220,o),
(144,-200,c),
(144,-2,l,{
"Letterink-NibData" = {
AngleInDegrees = "360";
};
}),
(145,-3,l,{
"Letterink-NibData" = {
AngleInDegrees = "360";
};
}),
(168,-9,o),
(180,-11,o),
(198,-11,cs),
(245,-11,o),
(277,1,o),
(321,36,c,{
"Letterink-NibData" = {
AngleInDegrees = "0";
};
}),
(403,68,o),
(447,128,o),
(447,210,cs),
(447,310,o),
(363,395,o),
(264,395,cs),
(216,395,o),
(185,383,o),
(141,347,c,{
"Letterink-NibData" = {
AngleInDegrees = "360";
};
}),
(142,346,ls,{
"Letterink-NibData" = {
AngleInDegrees = "359.99999";
};
}),
(118,367,o),
(100,377,o),
(71,387,c,{
"Letterink-NibData" = {
AngleInDegrees = "359.99999";
};
}),
(-3,344,l,{
"Letterink-NibData" = {
AngleInDegrees = "0";
};
}),
(34,332,o),
(49,324,o),
(72,304,c)
);
},
{
closed = 1;
nodes = (
(144,302,l),
(161,321,o),
(193,335,o),
(232,335,cs),
(313,335,o),
(369,269,o),
(369,183,cs),
(369,90,o),
(317,26,o),
(241,26,cs),
(185,26,o),
(151,64,o),
(144,101,c)
);
}
);
};
color = 2;
layerId = m005;
name = Regular;
shapes = (
{
closed = 1;
nodes = (
(424,172,l),
(424,264,o),
(358,333,o),
(267,333,cs),
(224,333,o),
(159,305,o),
(106,265,c),
(106,246,l),
(141,266,o),
(190,280,o),
(225,280,cs),
(296,280,o),
(349,225,o),
(348,144,c)
);
},
{
closed = 1;
nodes = (
(226,-196,l),
(226,-179,l),
(176,-170,o),
(143,-168,o),
(143,-138,cs),
(143,266,l),
(142,266,l),
(143,332,l),
(129,340,l),
(6,306,l),
(6,286,l),
(51,274,o),
(73,260,o),
(73,251,cs),
(73,-138,ls),
(73,-165,o),
(57,-170,o),
(23,-179,c),
(23,-196,l)
);
},
{
closed = 1;
nodes = (
(348,146,l),
(348,74,o),
(297,23,o),
(226,23,cs),
(187,23,o),
(139,56,o),
(117,103,c),
(91,24,l),
(119,4,o),
(169,-10,o),
(207,-10,cs),
(335,-10,o),
(425,68,o),
(424,174,c)
);
}
);
width = 447;
}
);
note = p;
unicode = 112;
},
{
glyphname = thorn;
lastChange = "2025-01-10 19:55:00 +0000";
layers = (
{
layerId = m005;
shapes = (
{
closed = 1;
nodes = (
(450,205,l),
(450,316,o),
(379,395,o),
(281,395,cs),
(236,395,o),
(165,362,o),
(108,315,c),
(108,296,l),
(146,319,o),
(199,335,o),
(236,335,cs),
(314,335,o),
(371,268,o),
(371,174,c)
);
},
{
closed = 1;
nodes = (
(234,-232,l),
(234,-214,l),
(180,-204,o),
(144,-201,o),
(144,-164,cs),
(144,316,l),
(143,316,l),
(144,660,l),
(131,668,l),
(0,628,l),
(0,607,l),
(47,592,o),
(72,575,o),
(72,564,cs),
(72,-164,ls),
(72,-197,o),
(56,-200,o),
(18,-214,c),
(18,-232,l)
);
},
{
closed = 1;
nodes = (
(371,174,l),
(371,87,o),
(315,26,o),
(237,26,cs),
(194,26,o),
(143,64,o),
(118,117,c),
(92,28,l),
(124,5,o),
(176,-11,o),
(216,-11,cs),
(353,-11,o),
(450,78,o),
(450,205,c)
);
}
);
width = 486;
}
);
unicode = 254;
},
{
color = 2;
glyphname = q;
lastChange = "2025-01-11 07:08:04 +0000";
layers = (
{
anchors = (
{
name = bottom;
pos = (232,0);
},
{
name = top;
pos = (232,323);
}
);
color = 3;
layerId = m005;
shapes = (
{
closed = 1;
nodes = (
(320,-139,l),
(392,-139,l),
(391,-35,o),
(391,230,o),
(392,333,c),
(367,323,o),
(346,312,o),
(322,319,c)
);
},
{
closed = 1;
nodes = (
(111,169,l),
(112,242,o),
(156,300,o),
(219,300,cs),
(265,300,o),
(319,262,o),
(339,214,c),
(384,289,l),
(353,312,o),
(287,333,o),
(238,333,cs),
(123,333,o),
(38,245,o),
(39,139,c)
);
},
{
closed = 1;
nodes = (
(39,141,l),
(39,58,o),
(100,-10,o),
(186,-10,cs),
(233,-10,o),
(304,22,o),
(347,62,c),
(347,82,l),
(323,60,o),
(268,42,o),
(227,42,cs),
(159,42,o),
(110,98,o),
(111,171,c)
);
},
{
closed = 1;
nodes = (
(320,-168,o),
(298,-169,o),
(238,-179,c),
(238,-196,l),
(441,-196,l),
(441,-180,l),
(411,-169,o),
(392,-168,o),
(392,-137,c),
(320,-137,l)
);
}
);
width = 447;
}
);
unicode = 113;
},
{
color = 2;
glyphname = r;
lastChange = "2025-01-11 07:08:04 +0000";
layers = (
{
anchors = (
{
name = bottom;
pos = (122,0);
},
{
name = top;
pos = (157,323);
}
);
background = {
shapes = (
{
closed = 1;
nodes = (
(88,40,l,{
"Letterink-NibData" = {
AngleInDegrees = "0";
};
}),
(113,18,o),
(132,7,o),
(162,-3,c,{
"Letterink-NibData" = {
AngleInDegrees = "360";
};
}),
(236,40,l,{
"Letterink-NibData" = {
AngleInDegrees = "0";
};
}),
(198,52,o),
(184,60,o),
(160,80,c),
(160,342,l,{
"Letterink-NibData" = {
AngleInDegrees = "360";
};
}),
(161,341,l,{
"Letterink-NibData" = {
AngleInDegrees = "0";
};
}),
(184,347,o),
(196,349,o),
(214,349,cs),
(262,349,o),
(291,338,o),
(337,301,c,{
"Letterink-NibData" = {
AngleInDegrees = "0";
};
}),
(408,342,l,{
"Letterink-NibData" = {
AngleInDegrees = "0";
};
}),
(356,384,o),
(328,395,o),
(280,395,cs),
(232,395,o),
(201,383,o),
(157,347,c,{
"Letterink-NibData" = {
AngleInDegrees = "360";
};
}),
(158,346,ls,{
"Letterink-NibData" = {
AngleInDegrees = "359.99999";
};
}),
(134,367,o),
(116,377,o),
(87,387,c,{
"Letterink-NibData" = {
AngleInDegrees = "359.99999";
};
}),
(13,344,l,{
"Letterink-NibData" = {
AngleInDegrees = "0";
};
}),
(50,332,o),
(65,324,o),
(88,304,c)
);
}
);
};
color = 2;
guides = (
{
angle = 46;
lockAngle = 1;
pos = (326,376);
}
);
layerId = m005;
shapes = (
{
closed = 1;
nodes = (
(130,188,l),
(178,239,o),
(191,269,o),
(218,269,cs),
(227,269,o),
(235,258,o),
(246,248,cs),
(267,229,o),
(324,294,o),
(304,313,cs),
(294,322,o),
(277,329,o),
(257,329,cs),
(221,329,o),
(199,304,o),
(129,224,c)
);
},
{
closed = 1;
nodes = (
(242,-1,l),
(242,16,l),
(185,28,o),
(158,32,o),
(158,57,cs),
(158,247,l),
(159,247,l),
(162,331,l),
(146,340,l),
(23,305,l),
(23,285,l),
(51,279,o),
(85,268,o),
(86,250,cs),
(90,187,o),
(90,120,o),
(88,57,cs),
(87,31,o),
(63,28,o),
(23,16,c),
(23,-1,l)
);
}
);
width = 298;
}
);
note = r;
unicode = 114;
},
{
color = 2;
glyphname = s;
lastChange = "2025-01-11 07:08:04 +0000";
layers = (
{
anchors = (
{
name = bottom;
pos = (166,0);
},
{
name = top;
pos = (166,323);
}
);
background = {
shapes = (
{
closed = 1;
nodes = (
(82,386,l),
(82,387,l,{
"Letterink-NibData" = {
AngleInDegrees = "360";
};
}),
(9,346,l,{
"Letterink-NibData" = {
AngleInDegrees = "360";
};
}),
(12,341,l),
(82,341,l),
(82,40,l,{
"Letterink-NibData" = {
AngleInDegrees = "0";
};
}),
(107,18,o),
(126,7,o),
(155,-3,c,{
"Letterink-NibData" = {
AngleInDegrees = "0";
};
}),
(230,40,l,{
"Letterink-NibData" = {
AngleInDegrees = "0";
};
}),
(193,52,o),
(177,60,o),
(154,80,c),
(154,662,l,{
"Letterink-NibData" = {
AngleInDegrees = "360";
};
}),
(155,661,l,{
"Letterink-NibData" = {
AngleInDegrees = "0";
};
}),
(178,667,o),
(189,669,o),
(208,669,cs),
(256,669,o),
(285,657,o),
(331,621,c,{
"Letterink-NibData" = {
AngleInDegrees = "0";
};
}),
(402,662,l,{
"Letterink-NibData" = {
AngleInDegrees = "0";
};
}),
(348,705,o),
(323,715,o),
(273,715,cs),
(226,715,o),
(194,703,o),
(151,667,c,{
"Letterink-NibData" = {
AngleInDegrees = "360";
};
}),
(82,628,l)
);
}
);
};
color = 4;
layerId = m005;
shapes = (
{
closed = 1;
nodes = (
(235,-9,o),
(292,33,o),
(292,91,cs),
(292,190,o),
(110,186,o),
(111,260,cs),
(112,288,o),
(139,308,o),
(170,308,cs),
(213,308,o),
(244,281,o),
(245,238,c),
(273,238,l),
(272,272,o),
(273,305,o),
(276,316,c),
(247,326,o),
(202,334,o),
(170,334,cs),
(101,334,o),
(47,291,o),
(47,234,cs),
(47,129,o),
(225,143,o),
(225,67,cs),
(225,34,o),
(198,14,o),
(156,17,cs),
(116,19,o),
(72,68,o),
(68,109,c),
(39,109,l),
(42,100,o),
(44,46,o),
(42,9,c),
(80,-1,o),
(136,-9,o),
(154,-9,cs)
);
}
);
width = 315;
}
);
note = s;
unicode = 115;
},
{
color = 2;
glyphname = germandbls;
lastChange = "2025-01-11 07:08:04 +0000";
layers = (
{
anchors = (
{
name = bottom;
pos = (240,0);
},
{
name = top;
pos = (240,583);
}
);
background = {
shapes = (
{
closed = 1;
nodes = (
(418,-9,o),
(479,39,o),
(479,108,cs),
(479,226,o),
(286,222,o),
(288,310,cs),
(289,343,o),
(314,368,o),
(349,368,cs),
(397,368,o),
(431,334,o),
(433,285,c),
(459,285,l),
(458,325,o),
(459,362,o),
(462,376,c),
(429,388,o),
(382,396,o),
(349,396,cs),
(275,396,o),
(222,347,o),
(222,278,cs),
(222,154,o),
(411,171,o),
(411,80,cs),
(411,41,o),
(379,16,o),
(334,19,cs),
(290,22,o),
(246,79,o),
(241,128,c),
(214,128,l),
(217,114,o),
(219,55,o),
(217,12,c),
(259,0,o),
(312,-9,o),
(331,-9,cs)
);
}
);
};
color = 2;
layerId = m005;
shapes = (
{
closed = 1;
nodes = (
(147,-1,l),
(146,58,ls),
(142,158,o),
(142,308,o),
(145,419,cs),
(146,482,o),
(180,527,o),
(220,526,c),
(256,560,l),
(155,562,o),
(76,490,o),
(73,392,cs),
(72,329,o),
(73,200,o),
(73,58,cs),
(73,39,o),
(58,29,o),
(23,15,c),
(23,-1,l)
);
},
{
closed = 1;
nodes = (
(390,-6,o),
(457,39,o),
(457,108,cs),
(457,207,o),
(287,219,o),
(287,285,cs),
(287,360,o),
(387,331,o),
(380,462,cs),
(377,515,o),
(325,560,o),
(252,560,c),
(216,526,l),
(271,528,o),
(308,487,o),
(311,440,cs),
(317,326,o),
(220,354,o),
(220,260,cs),
(220,159,o),
(388,163,o),
(388,87,cs),
(388,42,o),
(351,17,o),
(321,19,cs),
(286,22,o),
(251,54,o),
(246,103,c),
(216,103,l),
(221,96,o),
(222,54,o),
(220,4,c),
(248,-4,o),
(295,-6,o),
(318,-6,cs)
);
},
{
closed = 1;
nodes = (
(127,280,l),
(127,328,l),
(71,324,l),
(5,302,l),
(5,292,l)
);
}
);
width = 464;
}
);
unicode = 223;
},
{
glyphname = t;
lastChange = "2025-01-10 19:56:31 +0000";
layers = (
{
anchors = (
{
name = bottom;
pos = (148,0);
},
{
name = center;
pos = (148,192);
},
{
name = top;
pos = (148,474);
},
{
name = topright;
pos = (276,694);
}
);
background = {
shapes = (
{
closed = 1;
nodes = (
(124,1,o),
(153,-11,o),
(201,-11,cs),
(250,-11,o),
(278,0,o),
(326,39,c,{
"Letterink-NibData" = {
AngleInDegrees = "0";
};
}),
(323,44,l),
(320,44,o),
(316,43,o),
(316,42,c,{
"Letterink-NibData" = {
AngleInDegrees = "0";
};
}),
(298,37,o),
(285,35,o),
(266,35,cs),
(220,35,o),
(188,47,o),
(147,80,c),
(147,342,l,{
"Letterink-NibData" = {
AngleInDegrees = "360";
};
}),
(148,341,l),
(254,341,l,{
"Letterink-NibData" = {
AngleInDegrees = "360";
};
}),
(327,382,l,{
"Letterink-NibData" = {
AngleInDegrees = "0";
};
}),
(324,387,l),
(147,387,l),
(147,429,l,{
"Letterink-NibData" = {
AngleInDegrees = "0";
};
}),
(2,346,l,{
"Letterink-NibData" = {
AngleInDegrees = "360";
};
}),
(5,341,l),
(75,341,l),
(75,40,l,{
"Letterink-NibData" = {
AngleInDegrees = "360";
};
})
);
}
);
};
color = 2;
guides = (
{
angle = 11.5;
pos = (285,39);
}
);
layerId = m005;
shapes = (
{
closed = 1;
nodes = (
(199,-11,o),
(253,5,o),
(288,27,c),
(278,48,l),
(259,40,o),
(230,34,o),
(210,34,cs),
(177,34,o),
(151,52,o),
(149,78,cs),
(147,108,o),
(146,153,o),
(146,186,cs),
(146,316,o),
(154,433,o),
(159,468,c),
(140,474,l),
(78,381,l),
(72,237,o),
(68,98,o),
(74,46,cs),
(78,13,o),
(113,-11,o),
(158,-11,cs)
);
},
{
closed = 1;
nodes = (
(282,334,l),
(282,389,l),
(82,384,l),
(0,359,l),
(0,349,l)
);
},
{
closed = 1;
nodes = (
(114,361,l),
(140,474,l),
(104,423,o),
(48,375,o),
(0,359,c)
);
}
);
width = 288;
}
);
note = t;
unicode = 116;
},
{
color = 2;
glyphname = u;
lastChange = "2025-01-11 07:08:04 +0000";
layers = (
{
anchors = (
{
name = bottom;
pos = (232,0);
},
{
name = ogonek;
pos = (410,8);
},
{
name = top;
pos = (232,323);
},
{
name = topright;
pos = (327,278);
}
);
background = {
shapes = (
{
closed = 1;
nodes = (
(71,40,l,{
"Letterink-NibData" = {
AngleInDegrees = "360";
};
}),
(120,1,o),
(149,-11,o),
(197,-11,cs),
(244,-11,o),
(276,1,o),
(320,37,c,{
"Letterink-NibData" = {
AngleInDegrees = "360";
};
}),
(319,38,ls,{
"Letterink-NibData" = {
AngleInDegrees = "0";
};
}),
(342,17,o),
(361,6,o),
(389,-3,c,{
"Letterink-NibData" = {
AngleInDegrees = "0";
};
}),
(464,40,l,{
"Letterink-NibData" = {
AngleInDegrees = "0";
};
}),
(426,52,o),
(411,60,o),
(388,80,c),
(388,344,l,{
"Letterink-NibData" = {
AngleInDegrees = "359.99999";
};
}),
(362,367,o),
(346,377,o),
(315,387,c,{
"Letterink-NibData" = {
AngleInDegrees = "359.99999";
};
}),
(241,344,l,{
"Letterink-NibData" = {
AngleInDegrees = "0";
};
}),
(278,332,o),
(293,324,o),
(316,304,c),
(316,42,l),
(316,43,l,{
"Letterink-NibData" = {
AngleInDegrees = "0";
};
}),
(292,37,o),
(281,35,o),
(263,35,cs),
(216,35,o),
(185,47,o),
(143,80,c),
(143,344,l,{
"Letterink-NibData" = {
AngleInDegrees = "359.99999";
};
}),
(117,367,o),
(101,377,o),
(70,387,c,{
"Letterink-NibData" = {
AngleInDegrees = "359.99999";
};
}),
(-4,344,l,{
"Letterink-NibData" = {
AngleInDegrees = "0";
};
}),
(33,332,o),
(48,324,o),
(71,304,c)
);
}
);
};
color = 1;
layerId = m005;
shapes = (
{
closed = 1;
nodes = (
(133,340,l),
(6,311,l),
(6,294,l),
(50,282,o),
(74,278,o),
(74,253,cs),
(72,93,ls),
(71,34,o),
(129,-10,o),
(191,-10,cs),
(233,-10,o),
(286,27,o),
(334,75,c),
(334,95,l),
(305,65,o),
(259,42,o),
(224,42,cs),
(178,42,o),
(144,65,o),
(142,122,cs),
(140,169,o),
(144,223,o),
(145,270,cs),
(145,289,o),
(146,312,o),
(146,331,c)
);
},
{
closed = 1;
nodes = (
(364,340,l),
(238,311,l),
(238,294,l),
(280,282,o),
(302,278,o),
(303,253,cs),
(308,184,o),
(305,122,o),
(301,53,c),
(303,53,l),
(303,-4,l),
(316,-10,l),
(441,13,l),
(441,33,l),
(409,35,o),
(373,47,o),
(373,64,cs),
(376,270,l),
(377,331,l)
);
}
);
width = 447;
}
);
note = u;
unicode = 117;
},
{
color = 2;
glyphname = v;
lastChange = "2025-01-11 07:08:04 +0000";
layers = (
{
anchors = (
{
name = bottom;
pos = (207,0);
},
{
name = top;
pos = (207,323);
}
);
background = {
shapes = (
{
closed = 1;
nodes = (
(233,-12,l,{
"Letterink-NibData" = {
AngleInDegrees = "360";
};
}),
(391,343,l,{
"Letterink-NibData" = {
AngleInDegrees = "0";
};
}),
(364,367,o),
(348,376,o),
(317,387,c,{
"Letterink-NibData" = {
AngleInDegrees = "0";
};
}),
(257,327,l,{
"Letterink-NibData" = {
AngleInDegrees = "360";
};
}),
(291,316,o),
(307,307,o),
(329,289,c,{
"Letterink-NibData" = {
AngleInDegrees = "360";
};
}),
(253,119,l,{
"Letterink-NibData" = {
AngleInDegrees = "360";
};
}),
(143,346,l,{
"Letterink-NibData" = {
AngleInDegrees = "359.99999";
};
}),
(119,367,o),
(102,377,o),
(72,387,c,{
"Letterink-NibData" = {
AngleInDegrees = "0";
};
}),
(12,327,l,{
"Letterink-NibData" = {
AngleInDegrees = "0";
};
}),
(48,315,o),
(63,307,o),
(88,286,c,{
"Letterink-NibData" = {
AngleInDegrees = "360";
};
})
);
}
);
};
color = 4;
layerId = m005;
shapes = (
{
closed = 1;
nodes = (
(185,-1,l),
(214,-1,l),
(347,254,ls),
(355,270,o),
(363,280,o),
(373,289,cs),
(382,296,o),
(393,300,o),
(408,302,c),
(408,324,l),
(271,324,l),
(271,302,l),
(280,301,o),
(300,300,o),
(310,294,cs),
(315,291,o),
(318,288,o),
(318,282,cs),
(318,277,o),
(316,268,o),
(310,255,cs),
(210,59,l),
(234,59,l),
(145,267,ls),
(142,275,o),
(140,280,o),
(140,283,cs),
(140,289,o),
(143,292,o),
(149,296,c),
(161,301,o),
(183,301,o),
(192,302,c),
(192,324,l),
(23,324,l),
(23,302,l),
(28,302,o),
(39,299,o),
(49,291,cs),
(56,285,o),
(61,276,o),
(69,259,cs)
);
}
);
width = 397;
}
);
note = v;
unicode = 118;
},
{
color = 2;
glyphname = w;
lastChange = "2025-01-11 07:08:04 +0000";
layers = (
{
anchors = (
{
name = bottom;
pos = (298,0);
},
{
name = top;
pos = (298,323);
}
);
color = 4;
layerId = m005;
shapes = (
{
closed = 1;
nodes = (
(380,-1,l),
(410,-1,l),
(529,254,ls),
(537,270,o),
(545,280,o),
(555,289,cs),
(564,296,o),
(575,300,o),
(590,302,c),
(590,324,l),
(453,324,l),
(453,302,l),
(463,301,o),
(482,300,o),
(492,294,cs),
(498,291,o),
(500,288,o),
(500,282,cs),
(500,277,o),
(498,268,o),
(492,255,cs),
(406,59,l),
(430,59,l),
(333,267,ls),
(330,275,o),
(329,280,o),
(329,283,cs),
(329,289,o),
(331,292,o),
(338,296,cs),
(350,301,o),
(377,301,o),
(391,302,c),
(391,324,l),
(222,324,l),
(222,302,l),
(226,302,o),
(229,299,o),
(238,291,cs),
(246,285,o),
(250,276,o),
(258,259,cs)
);
},
{
closed = 1;
nodes = (
(297,238,l),
(217,59,l),
(240,59,l),
(144,267,ls),
(140,275,o),
(139,280,o),
(139,283,cs),
(139,289,o),
(142,292,o),
(148,296,c),
(160,301,o),
(162,301,o),
(176,302,c),
(176,324,l),
(23,324,l),
(23,302,l),
(32,301,o),
(40,298,o),
(49,291,cs),
(56,285,o),
(61,276,o),
(69,259,cs),
(185,-1,l),
(220,-1,l),
(317,202,l)
);
}
);
width = 580;
}
);
unicode = 119;
},
{
color = 2;
glyphname = x;
lastChange = "2025-01-11 07:08:04 +0000";
layers = (
{
anchors = (
{
name = bottom;
pos = (207,0);
},
{
name = top;
pos = (207,323);
}
);
color = 4;
guides = (
{
angle = 270;
pos = (0,373);
},
{
angle = -54.195;
pos = (-18,459);
},
{
angle = 229.466;
pos = (233,183);
}
);
layerId = m005;
shapes = (
{
closed = 1;
nodes = (
(182,143,l),
(211,138,l),
(333,269,ls),
(346,284,o),
(368,298,o),
(408,302,c),
(408,324,l),
(255,324,l),
(255,306,l),
(284,302,o),
(294,290,o),
(280,273,cs),
(216,199,l),
(244,179,l),
(162,285,ls),
(148,303,o),
(175,305,o),
(184,306,c),
(184,324,l),
(23,324,l),
(23,302,l),
(49,300,o),
(64,290,o),
(76,275,cs)
);
},
{
closed = 1;
nodes = (
(238,188,l),
(212,202,l),
(74,53,ls),
(56,33,o),
(40,26,o),
(6,20,c),
(6,-1,l),
(159,-1,l),
(159,17,l),
(136,21,o),
(111,26,o),
(124,41,cs),
(211,144,l),
(183,141,l),
(266,38,ls),
(277,24,o),
(254,19,o),
(238,17,c),
(238,-1,l),
(391,-1,l),
(391,20,l),
(376,22,o),
(364,29,o),
(349,48,cs)
);
}
);
width = 397;
}
);
unicode = 120;
},
{
color = 2;
glyphname = y;
lastChange = "2025-01-11 07:08:04 +0000";
layers = (
{
anchors = (
{
name = bottom;
pos = (222,-50);
},
{
name = top;
pos = (207,323);
}
);
color = 4;
layerId = m005;
shapes = (
{
closed = 1;
nodes = (
(238,-1,l),
(347,254,ls),
(354,270,o),
(363,280,o),
(373,289,cs),
(382,296,o),
(393,300,o),
(408,302,c),
(408,324,l),
(271,324,l),
(271,302,l),
(283,301,o),
(298,300,o),
(308,294,cs),
(314,291,o),
(316,288,o),
(316,282,cs),
(316,277,o),
(314,268,o),
(308,255,cs),
(198,19,l),
(237,46,l),
(145,267,ls),
(142,275,o),
(140,280,o),
(140,283,cs),
(140,289,o),
(143,292,o),
(149,296,c),
(161,301,o),
(181,301,o),
(192,302,c),
(192,324,l),
(23,324,l),
(23,302,l),
(38,301,o),
(39,299,o),
(49,291,cs),
(56,285,o),
(61,276,o),
(69,259,cs),
(195,-39,l)
);
},
{
closed = 1;
nodes = (
(131,-196,o),
(178,-117,o),
(207,-63,cs),
(234,-14,o),
(239,2,o),
(238,0,c),
(202,23,l),
(156,-97,l),
(142,-119,o),
(134,-134,o),
(110,-134,cs),
(95,-134,o),
(93,-117,o),
(71,-117,cs),
(48,-117,o),
(23,-143,o),
(23,-170,cs),
(23,-191,o),
(41,-196,o),
(63,-196,cs)
);
}
);
width = 397;
},
{
associatedMasterId = m005;
layerId = "50AA2D8F-A47F-47B7-8402-81B2F32D7E55";
name = "29. Dez. 24, 16:03";
shapes = (
{
closed = 1;
nodes = (
(180,0,l),
(242,0,l),
(360,302,ls),
(368,322,o),
(378,335,o),
(389,345,cs),
(399,353,o),
(411,358,o),
(426,361,c),
(426,384,l),
(280,384,l),
(280,361,l),
(293,359,o),
(310,358,o),
(321,351,cs),
(327,348,o),
(331,343,o),
(331,336,cs),
(331,330,o),
(328,319,o),
(322,304,cs),
(217,27,l),
(240,55,l),
(152,318,ls),
(149,327,o),
(147,333,o),
(147,337,cs),
(147,344,o),
(151,349,o),
(158,353,cs),
(171,359,o),
(193,360,o),
(207,361,c),
(207,384,l),
(6,384,l),
(6,361,l),
(21,359,o),
(42,356,o),
(51,348,cs),
(59,340,o),
(67,328,o),
(74,308,cs)
);
},
{
closed = 1;
nodes = (
(213,25,l),
(167,-106,o),
(128,-166,o),
(113,-166,cs),
(102,-166,o),
(93,-160,o),
(84,-149,cs),
(74,-137,o),
(74,-125,o),
(68,-119,cs),
(45,-98,o),
(-17,-165,o),
(5,-188,cs),
(21,-204,o),
(59,-215,o),
(97,-215,cs),
(110,-215,o),
(124,-208,o),
(136,-196,cs),
(181,-153,o),
(222,-46,o),
(242,0,c)
);
},
{
closed = 0;
nodes = (
(338,-122,l)
);
}
);
width = 426;
}
);
unicode = 121;
},
{
color = 2;
glyphname = z;
lastChange = "2025-01-11 07:08:04 +0000";
layers = (
{
anchors = (
{
name = bottom;
pos = (199,0);
},
{
name = center;
pos = (199,161);
},
{
name = top;
pos = (199,323);
}
);
background = {
shapes = (
{
closed = 1;
nodes = (
(150,1,o),
(267,0,o),
(378,0,c),
(378,157,l),
(350,157,l),
(341,102,o),
(333,65,o),
(308,65,cs),
(83,65,l),
(93,46,l),
(372,354,l),
(372,391,l),
(281,386,o),
(229,384,o),
(137,384,cs),
(125,384,o),
(105,388,o),
(109,403,c),
(79,412,l),
(36,264,l),
(66,255,l),
(79,307,o),
(98,319,o),
(119,319,cs),
(322,319,l),
(322,359,l),
(39,44,l),
(39,-5,l)
);
}
);
};
color = 4;
layerId = m005;
shapes = (
{
closed = 1;
nodes = (
(144,0,o),
(255,-1,o),
(358,-1,c),
(358,103,l),
(328,103,l),
(320,56,o),
(313,30,o),
(292,30,cs),
(78,30,l),
(135,12,l),
(351,297,l),
(351,329,l),
(266,325,o),
(235,323,o),
(132,323,cs),
(121,323,o),
(104,325,o),
(109,339,c),
(77,346,l),
(38,221,l),
(69,211,l),
(80,255,o),
(116,291,o),
(133,291,cs),
(308,292,l),
(268,309,l),
(42,11,l),
(42,-5,l)
);
}
);
width = 381;
},
{
anchors = (
{
name = bottom;
pos = (207,0);
},
{
name = center;
pos = (207,192);
},
{
name = top;
pos = (207,384);
}
);
associatedMasterId = m005;
background = {
shapes = (
{
closed = 1;
nodes = (
(150,1,o),
(267,0,o),
(378,0,c),
(378,157,l),
(350,157,l),
(341,102,o),
(333,65,o),
(308,65,cs),
(83,65,l),
(93,46,l),
(372,354,l),
(372,391,l),
(281,386,o),
(229,384,o),
(137,384,cs),
(125,384,o),
(105,388,o),
(109,403,c),
(79,412,l),
(36,264,l),
(66,255,l),
(79,307,o),
(98,319,o),
(119,319,cs),
(322,319,l),
(322,359,l),
(39,44,l),
(39,-5,l)
);
}
);
};
color = 4;
layerId = "E72B9F17-428E-4597-99DF-931390CFA527";
name = "10. Jan. 25, 21:06";
shapes = (
{
closed = 1;
nodes = (
(150,1,o),
(267,0,o),
(378,0,c),
(378,157,l),
(350,157,l),
(341,102,o),
(333,65,o),
(308,65,cs),
(83,65,l),
(93,46,l),
(372,354,l),
(372,391,l),
(281,386,o),
(229,384,o),
(137,384,cs),
(125,384,o),
(105,388,o),
(109,403,c),
(79,412,l),
(36,264,l),
(66,255,l),
(79,307,o),
(98,319,o),
(119,319,cs),
(322,319,l),
(322,359,l),
(39,44,l),
(39,-5,l)
);
}
);
width = 414;
}
);
unicode = 122;
},
{
glyphname = "a.-1";
lastChange = "2025-01-10 21:57:05 +0000";
layers = (
{
layerId = m005;
shapes = (
{
closed = 1;
nodes = (
(308,-6,o),
(341,8,o),
(380,27,c),
(378,40,l),
(346,41,ls),
(321,42,o),
(303,60,o),
(303,84,cs),
(303,51,o),
(305,133,o),
(307,290,c),
(307,351,o),
(282,395,o),
(215,395,cs),
(186,395,o),
(143,378,o),
(104,354,cs),
(72,332,o),
(50,295,o),
(50,264,cs),
(50,233,o),
(122,247,o),
(122,278,cs),
(122,294,o),
(115,290,o),
(115,305,cs),
(115,332,o),
(141,351,o),
(169,351,cs),
(219,351,o),
(237,324,o),
(235,284,cs),
(232,218,l),
(231,205,o),
(231,138,o),
(231,57,cs),
(235,20,o),
(263,-6,o),
(299,-6,cs)
);
},
{
closed = 1;
nodes = (
(165,-6,o),
(212,24,o),
(252,66,c),
(252,85,l),
(221,61,o),
(191,44,o),
(163,44,cs),
(134,44,o),
(115,71,o),
(115,110,c),
(36,94,l),
(36,35,o),
(67,-6,o),
(119,-6,cs)
);
},
{
closed = 1;
nodes = (
(115,110,l),
(115,131,o),
(168,158,o),
(263,175,c),
(264,206,l),
(122,183,o),
(36,137,o),
(36,94,c)
);
}
);
width = 378;
}
);
},
{
glyphname = "d.-1";
lastChange = "2025-01-10 21:59:01 +0000";
layers = (
{
layerId = m005;
shapes = (
{
closed = 1;
nodes = (
(36,189,l),
(36,72,o),
(95,-11,o),
(190,-11,cs),
(237,-11,o),
(299,22,o),
(356,69,c),
(356,88,l),
(318,65,o),
(274,49,o),
(237,49,cs),
(160,49,o),
(113,120,o),
(113,220,c)
);
},
{
closed = 1;
nodes = (
(324,58,l),
(325,58,l),
(324,-6,l),
(337,-12,l),
(458,21,l),
(458,42,l),
(422,57,o),
(396,75,o),
(396,85,c)
);
},
{
closed = 1;
nodes = (
(113,220,l),
(113,301,o),
(157,358,o),
(228,358,cs),
(277,358,o),
(321,320,o),
(346,267,c),
(372,356,l),
(340,379,o),
(295,395,o),
(249,395,cs),
(120,395,o),
(36,310,o),
(36,189,c)
);
},
{
closed = 1;
nodes = (
(396,85,l),
(396,557,l),
(398,658,l),
(383,668,l),
(254,637,l),
(254,616,l),
(295,599,o),
(324,577,o),
(324,563,cs),
(324,58,l)
);
}
);
width = 468;
}
);
},
{
glyphname = "e.-1";
lastChange = "2025-01-10 21:46:11 +0000";
layers = (
{
layerId = m005;
shapes = (
{
closed = 1;
nodes = (
(111,302,o),
(147,362,o),
(207,362,cs),
(252,362,o),
(278,325,o),
(281,266,c),
(88,260,l),
(84,231,l),
(350,225,l),
(362,239,l),
(362,330,o),
(308,395,o),
(221,395,cs),
(109,395,o),
(36,309,o),
(36,188,cs),
(36,71,o),
(101,-11,o),
(202,-11,cs),
(264,-11,o),
(325,33,o),
(360,95,c),
(342,108,l),
(319,75,o),
(275,52,o),
(223,52,cs),
(154,52,o),
(111,117,o),
(111,210,cs)
);
}
);
width = 378;
}
);
},
{
glyphname = "h.-1";
lastChange = "2025-01-10 22:01:08 +0000";
layers = (
{
layerId = m005;
shapes = (
{
closed = 1;
nodes = (
(18,0,l),
(216,0,l),
(216,18,l),
(169,32,o),
(144,39,o),
(144,68,cs),
(144,557,l),
(146,658,l),
(131,668,l),
(0,637,l),
(0,616,l),
(21,608,o),
(72,595,o),
(72,563,cs),
(72,68,ls),
(72,39,o),
(48,32,o),
(18,18,c)
);
},
{
closed = 1;
nodes = (
(451,0,l),
(451,18,l),
(413,32,o),
(397,37,o),
(397,68,cs),
(397,273,ls),
(397,355,o),
(371,395,o),
(301,395,cs),
(251,395,o),
(189,365,o),
(123,305,c),
(123,286,l),
(183,329,o),
(221,335,o),
(256,335,cs),
(308,335,o),
(321,306,o),
(325,246,cs),
(329,187,o),
(329,127,o),
(325,68,cs),
(323,38,o),
(298,32,o),
(271,18,c),
(271,0,l)
);
}
);
width = 485;
}
);
},
{
glyphname = "n.-1";
lastChange = "2025-01-10 21:48:44 +0000";
layers = (
{
layerId = m005;
shapes = (
{
closed = 1;
nodes = (
(468,0,l),
(468,18,l),
(420,32,o),
(396,37,o),
(396,68,cs),
(396,273,ls),
(396,355,o),
(373,395,o),
(303,395,cs),
(253,395,o),
(205,365,o),
(139,305,c),
(139,286,l),
(199,329,o),
(223,335,o),
(258,335,cs),
(310,335,o),
(320,306,o),
(324,246,cs),
(328,189,o),
(328,125,o),
(324,68,cs),
(322,38,o),
(298,24,o),
(270,18,c),
(270,0,l)
);
},
{
closed = 1;
nodes = (
(216,0,l),
(216,18,l),
(182,32,o),
(162,38,o),
(162,68,cs),
(162,315,l),
(164,315,l),
(165,397,l),
(150,403,l),
(18,362,l),
(18,341,l),
(46,333,o),
(86,319,o),
(89,298,cs),
(91,284,o),
(91,129,o),
(89,68,cs),
(88,37,o),
(76,32,o),
(36,18,c),
(36,0,l)
);
}
);
width = 468;
}
);
},
{
glyphname = "r.-1";
lastChange = "2025-01-10 21:51:11 +0000";
layers = (
{
layerId = m005;
shapes = (
{
closed = 1;
nodes = (
(117,228,l),
(165,287,o),
(179,321,o),
(210,321,cs),
(221,321,o),
(230,308,o),
(242,296,cs),
(263,275,o),
(323,350,o),
(302,371,cs),
(291,382,o),
(273,390,o),
(252,390,cs),
(214,390,o),
(191,362,o),
(115,267,c)
);
},
{
closed = 1;
nodes = (
(252,0,l),
(252,18,l),
(190,32,o),
(161,38,o),
(161,68,cs),
(161,295,l),
(162,295,l),
(165,394,l),
(150,403,l),
(18,362,l),
(18,341,l),
(47,333,o),
(86,319,o),
(87,298,cs),
(91,223,o),
(91,143,o),
(89,68,cs),
(88,37,o),
(62,32,o),
(18,18,c),
(18,0,l)
);
}
);
width = 306;
}
);
},
{
glyphname = "s.-1";
lastChange = "2025-01-10 21:54:04 +0000";
layers = (
{
anchors = (
{
name = bottom;
pos = (171,0);
},
{
name = top;
pos = (171,384);
}
);
layerId = m005;
shapes = (
{
closed = 1;
nodes = (
(230,-9,o),
(288,39,o),
(288,108,cs),
(288,226,o),
(108,222,o),
(110,310,cs),
(111,344,o),
(135,368,o),
(167,368,cs),
(209,368,o),
(240,334,o),
(242,285,c),
(268,285,l),
(267,325,o),
(268,363,o),
(271,376,c),
(239,388,o),
(196,396,o),
(167,396,cs),
(95,396,o),
(44,347,o),
(44,278,cs),
(44,154,o),
(220,171,o),
(220,80,cs),
(220,42,o),
(192,16,o),
(152,19,cs),
(106,22,o),
(69,67,o),
(63,128,c),
(36,128,l),
(40,109,o),
(41,61,o),
(39,12,c),
(82,0,o),
(128,-9,o),
(149,-9,cs)
);
}
);
width = 324;
}
);
},
{
glyphname = "t.-1";
lastChange = "2025-01-10 21:55:07 +0000";
layers = (
{
layerId = m005;
shapes = (
{
closed = 1;
nodes = (
(190,-11,o),
(235,5,o),
(270,27,c),
(260,48,l),
(241,40,o),
(221,34,o),
(201,34,cs),
(168,34,o),
(151,52,o),
(149,78,cs),
(147,108,o),
(146,153,o),
(146,186,cs),
(146,316,o),
(154,433,o),
(159,468,c),
(140,474,l),
(78,381,l),
(72,237,o),
(68,98,o),
(74,46,cs),
(78,13,o),
(104,-11,o),
(149,-11,cs)
);
},
{
closed = 1;
nodes = (
(264,334,l),
(264,389,l),
(82,384,l),
(0,359,l),
(0,349,l)
);
},
{
closed = 1;
nodes = (
(114,361,l),
(140,474,l),
(104,423,o),
(48,375,o),
(0,359,c)
);
}
);
width = 270;
}
);
},
{
glyphname = a.1;
lastChange = "2025-01-10 21:58:01 +0000";
layers = (
{
anchors = (
{
name = bottom;
pos = (198,0);
},
{
name = ogonek;
pos = (356,10);
},
{
name = top;
pos = (198,384);
}
);
layerId = m005;
shapes = (
{
closed = 1;
nodes = (
(344,-6,o),
(377,8,o),
(416,27,c),
(414,40,l),
(382,41,ls),
(357,42,o),
(339,60,o),
(339,84,cs),
(339,51,o),
(341,133,o),
(343,290,c),
(343,351,o),
(300,395,o),
(233,395,cs),
(204,395,o),
(143,378,o),
(104,354,cs),
(72,332,o),
(50,295,o),
(50,264,cs),
(50,233,o),
(122,247,o),
(122,278,cs),
(122,294,o),
(115,290,o),
(115,305,cs),
(115,332,o),
(159,351,o),
(187,351,cs),
(237,351,o),
(273,324,o),
(271,284,cs),
(268,218,l),
(267,205,o),
(267,138,o),
(267,57,cs),
(271,20,o),
(299,-6,o),
(335,-6,cs)
);
},
{
closed = 1;
nodes = (
(165,-6,o),
(248,24,o),
(288,66,c),
(288,85,l),
(257,61,o),
(191,44,o),
(163,44,cs),
(134,44,o),
(115,71,o),
(115,110,c),
(36,94,l),
(36,35,o),
(67,-6,o),
(119,-6,cs)
);
},
{
closed = 1;
nodes = (
(115,110,l),
(115,131,o),
(204,158,o),
(299,175,c),
(300,206,l),
(158,183,o),
(36,137,o),
(36,94,c)
);
}
);
width = 414;
}
);
},
{
glyphname = d.1;
lastChange = "2025-01-10 21:59:58 +0000";
layers = (
{
layerId = m005;
shapes = (
{
closed = 1;
nodes = (
(36,189,l),
(36,72,o),
(113,-11,o),
(208,-11,cs),
(255,-11,o),
(335,22,o),
(392,69,c),
(392,88,l),
(354,65,o),
(292,49,o),
(255,49,cs),
(178,49,o),
(113,120,o),
(113,220,c)
);
},
{
closed = 1;
nodes = (
(360,58,l),
(361,58,l),
(360,-6,l),
(373,-12,l),
(494,21,l),
(494,42,l),
(458,57,o),
(432,75,o),
(432,85,c)
);
},
{
closed = 1;
nodes = (
(113,220,l),
(113,301,o),
(175,358,o),
(246,358,cs),
(295,358,o),
(357,320,o),
(382,267,c),
(408,356,l),
(376,379,o),
(313,395,o),
(267,395,cs),
(138,395,o),
(36,310,o),
(36,189,c)
);
},
{
closed = 1;
nodes = (
(432,85,l),
(432,557,l),
(434,658,l),
(419,668,l),
(290,637,l),
(290,616,l),
(331,599,o),
(360,577,o),
(360,563,cs),
(360,58,l)
);
}
);
width = 504;
}
);
},
{
glyphname = e.1;
lastChange = "2025-01-10 21:47:38 +0000";
layers = (
{
anchors = (
{
name = bottom;
pos = (210,0);
},
{
name = ogonek;
pos = (301,10);
},
{
name = top;
pos = (224,384);
}
);
layerId = m005;
shapes = (
{
closed = 1;
nodes = (
(111,302,o),
(163,362,o),
(223,362,cs),
(268,362,o),
(311,325,o),
(314,266,c),
(88,260,l),
(84,231,l),
(383,225,l),
(395,239,l),
(395,330,o),
(324,395,o),
(237,395,cs),
(125,395,o),
(36,309,o),
(36,188,cs),
(36,71,o),
(117,-11,o),
(218,-11,cs),
(280,-11,o),
(358,33,o),
(393,95,c),
(375,108,l),
(352,75,o),
(291,52,o),
(239,52,cs),
(170,52,o),
(111,117,o),
(111,210,cs)
);
}
);
width = 414;
}
);
},
{
glyphname = h.1;
lastChange = "2025-01-10 22:02:07 +0000";
layers = (
{
layerId = m005;
shapes = (
{
closed = 1;
nodes = (
(18,0,l),
(216,0,l),
(216,18,l),
(169,32,o),
(144,39,o),
(144,68,cs),
(144,557,l),
(146,658,l),
(131,668,l),
(0,637,l),
(0,616,l),
(21,608,o),
(72,595,o),
(72,563,cs),
(72,68,ls),
(72,39,o),
(48,32,o),
(18,18,c)
);
},
{
closed = 1;
nodes = (
(486,0,l),
(486,18,l),
(448,32,o),
(432,37,o),
(432,68,cs),
(432,273,ls),
(432,355,o),
(389,395,o),
(319,395,cs),
(269,395,o),
(189,365,o),
(123,305,c),
(123,286,l),
(183,329,o),
(239,335,o),
(274,335,cs),
(326,335,o),
(356,306,o),
(360,246,cs),
(364,187,o),
(364,127,o),
(360,68,cs),
(358,38,o),
(333,32,o),
(306,18,c),
(306,0,l)
);
}
);
width = 504;
}
);
},
{
glyphname = n.1;
lastChange = "2025-01-10 21:49:54 +0000";
layers = (
{
anchors = (
{
name = bottom;
pos = (243,0);
},
{
name = top;
pos = (243,384);
}
);
layerId = m005;
shapes = (
{
closed = 1;
nodes = (
(504,0,l),
(504,18,l),
(456,32,o),
(432,37,o),
(432,68,cs),
(432,273,ls),
(432,355,o),
(391,395,o),
(321,395,cs),
(271,395,o),
(205,365,o),
(139,305,c),
(139,286,l),
(199,329,o),
(241,335,o),
(276,335,cs),
(328,335,o),
(356,306,o),
(360,246,cs),
(364,189,o),
(364,125,o),
(360,68,cs),
(358,38,o),
(334,24,o),
(306,18,c),
(306,0,l)
);
},
{
closed = 1;
nodes = (
(216,0,l),
(216,18,l),
(182,32,o),
(162,38,o),
(162,68,cs),
(162,315,l),
(164,315,l),
(165,397,l),
(150,403,l),
(18,362,l),
(18,341,l),
(46,333,o),
(86,319,o),
(89,298,cs),
(91,284,o),
(91,129,o),
(89,68,cs),
(88,37,o),
(76,32,o),
(36,18,c),
(36,0,l)
);
}
);
width = 504;
}
);
},
{
color = 2;
glyphname = i.original;
lastChange = "2025-01-11 07:08:04 +0000";
layers = (
{
anchors = (
{
name = bottom;
pos = (116,0);
}
);
background = {
shapes = (
{
closed = 1;
nodes = (
(87,40,l,{
"Letterink-NibData" = {
AngleInDegrees = "0";
};
}),
(112,18,o),
(131,7,o),
(161,-3,c,{
"Letterink-NibData" = {
AngleInDegrees = "360";
};
}),
(235,40,l,{
"Letterink-NibData" = {
AngleInDegrees = "0";
};
}),
(197,52,o),
(183,60,o),
(159,80,c),
(159,344,l,{
"Letterink-NibData" = {
AngleInDegrees = "359.99999";
};
}),
(133,367,o),
(117,377,o),
(86,387,c,{
"Letterink-NibData" = {
AngleInDegrees = "359.99999";
};
}),
(12,344,l,{
"Letterink-NibData" = {
AngleInDegrees = "0";
};
}),
(49,332,o),
(64,324,o),
(87,304,c)
);
},
{
closed = 1;
nodes = (
(215,0,l),
(215,18,l),
(176,32,o),
(159,38,o),
(159,68,cs),
(159,315,l),
(158,315,l),
(159,389,l),
(146,395,l),
(37,357,l),
(37,336,l),
(56,328,o),
(87,314,o),
(87,293,cs),
(87,68,ls),
(87,37,o),
(71,32,o),
(32,18,c),
(32,0,l)
);
}
);
};
color = 1;
layerId = m005;
shapes = (
{
closed = 1;
nodes = (
(27,-1,l),
(220,-1,l),
(220,16,l),
(182,28,o),
(159,33,o),
(159,57,cs),
(159,124,o),
(157,197,o),
(159,264,cs),
(161,330,l),
(144,340,l),
(31,305,l),
(31,286,l),
(48,280,o),
(85,269,o),
(86,250,cs),
(90,187,o),
(90,120,o),
(86,57,cs),
(84,33,o),
(65,28,o),
(27,16,c)
);
},
{
closed = 1;
nodes = (
(72,453,o),
(95,432,o),
(119,432,cs),
(145,432,o),
(168,453,o),
(168,474,cs),
(168,496,o),
(145,518,o),
(119,518,cs),
(95,518,o),
(72,496,o),
(72,474,cs)
);
}
);
width = 215;
}
);
note = i;
},
{
color = 2;
glyphname = j.original;
lastChange = "2025-01-11 07:08:04 +0000";
layers = (
{
color = 1;
layerId = m005;
shapes = (
{
closed = 1;
nodes = (
(29,-188,o),
(30,-187,o),
(30,-187,c),
(40,-184,o),
(53,-176,o),
(62,-170,cs),
(110,-139,o),
(143,-43,o),
(143,57,cs),
(143,264,l),
(145,330,l),
(129,340,l),
(15,305,l),
(15,286,l),
(48,274,o),
(71,259,o),
(71,250,cs),
(73,213,o),
(73,108,o),
(73,1,cs),
(73,-73,o),
(58,-134,o),
(39,-149,c),
(36,-149,o),
(33,-149,o),
(29,-149,cs),
(26,-149,o),
(21,-149,o),
(19,-149,c),
(9,-146,o),
(12,-140,o),
(-3,-137,cs),
(-22,-132,o),
(-45,-160,o),
(-45,-178,cs),
(-45,-186,o),
(-41,-193,o),
(-32,-194,cs),
(-27,-195,o),
(-21,-196,o),
(-15,-196,cs),
(-1,-196,o),
(15,-193,o),
(27,-189,cs)
);
},
{
closed = 1;
nodes = (
(132,432,o),
(152,449,o),
(152,474,cs),
(152,499,o),
(132,518,o),
(103,518,cs),
(75,518,o),
(56,499,o),
(56,474,cs),
(56,449,o),
(75,432,o),
(103,432,cs)
);
}
);
width = 199;
}
);
},
{
glyphname = r.1;
lastChange = "2025-01-10 21:51:49 +0000";
layers = (
{
anchors = (
{
name = bottom;
pos = (124,0);
},
{
name = top;
pos = (162,384);
}
);
layerId = m005;
shapes = (
{
closed = 1;
nodes = (
(153,228,l),
(201,287,o),
(215,321,o),
(246,321,cs),
(257,321,o),
(266,308,o),
(278,296,cs),
(299,275,o),
(359,350,o),
(338,371,cs),
(327,382,o),
(309,390,o),
(288,390,cs),
(250,390,o),
(227,362,o),
(151,267,c)
);
},
{
closed = 1;
nodes = (
(252,0,l),
(252,18,l),
(190,32,o),
(161,38,o),
(161,68,cs),
(161,295,l),
(162,295,l),
(165,394,l),
(150,403,l),
(18,362,l),
(18,341,l),
(47,333,o),
(86,319,o),
(87,298,cs),
(91,223,o),
(91,143,o),
(89,68,cs),
(88,37,o),
(62,32,o),
(18,18,c),
(18,0,l)
);
}
);
width = 342;
}
);
},
{
glyphname = s.1;
lastChange = "2025-01-10 21:53:10 +0000";
layers = (
{
layerId = m005;
shapes = (
{
closed = 1;
nodes = (
(260,-9,o),
(325,39,o),
(325,108,cs),
(325,226,o),
(108,222,o),
(110,310,cs),
(111,344,o),
(142,368,o),
(185,368,cs),
(238,368,o),
(277,334,o),
(279,285,c),
(305,285,l),
(304,325,o),
(305,363,o),
(308,376,c),
(276,388,o),
(225,396,o),
(185,396,cs),
(102,396,o),
(44,347,o),
(44,278,cs),
(44,154,o),
(257,171,o),
(257,80,cs),
(257,41,o),
(221,16,o),
(170,19,cs),
(113,23,o),
(69,68,o),
(63,128,c),
(36,128,l),
(40,109,o),
(41,61,o),
(39,12,c),
(82,0,o),
(135,-9,o),
(167,-9,cs)
);
}
);
width = 360;
}
);
},
{
glyphname = t.1;
lastChange = "2025-01-10 21:56:11 +0000";
layers = (
{
anchors = (
{
name = bottom;
pos = (148,0);
},
{
name = center;
pos = (148,192);
},
{
name = top;
pos = (148,474);
},
{
name = topright;
pos = (276,694);
}
);
layerId = m005;
shapes = (
{
closed = 1;
nodes = (
(208,-11,o),
(271,5,o),
(306,27,c),
(296,48,l),
(277,40,o),
(239,34,o),
(219,34,cs),
(186,34,o),
(151,52,o),
(149,78,cs),
(147,108,o),
(146,153,o),
(146,186,cs),
(146,316,o),
(154,433,o),
(159,468,c),
(140,474,l),
(78,381,l),
(72,237,o),
(68,98,o),
(74,46,cs),
(78,13,o),
(122,-11,o),
(167,-11,cs)
);
},
{
closed = 1;
nodes = (
(300,334,l),
(300,389,l),
(82,384,l),
(0,359,l),
(0,349,l)
);
},
{
closed = 1;
nodes = (
(114,361,l),
(140,474,l),
(104,423,o),
(48,375,o),
(0,359,c)
);
}
);
width = 306;
}
);
},
{
glyphname = c_t;
lastChange = "2025-01-08 19:27:58 +0000";
layers = (
{
color = 10;
layerId = m005;
shapes = (
{
ref = c;
},
{
pos = (396,0);
ref = t;
},
{
closed = 1;
nodes = (
(555,466,l),
(555,546,o),
(498,603,o),
(417,603,cs),
(336,603,o),
(279,546,o),
(279,465,cs),
(279,419,o),
(297,381,o),
(327,356,c),
(350,372,l),
(323,392,o),
(306,426,o),
(306,465,cs),
(306,529,o),
(352,575,o),
(417,575,cs),
(481,575,o),
(531,529,o),
(531,465,cs),
(531,455,o),
(530,446,o),
(528,437,c)
);
}
);
width = 684;
}
);
metricLeft = c;
metricRight = t;
},
{
glyphname = f_f;
lastChange = "2025-01-08 19:27:58 +0000";
layers = (
{
color = 10;
layerId = m005;
shapes = (
{
closed = 1;
nodes = (
(20,0,l),
(253,0,l),
(253,18,l),
(199,31,o),
(162,31,o),
(160,69,cs),
(155,163,o),
(147,354,o),
(159,499,cs),
(164,560,o),
(177,627,o),
(246,627,cs),
(269,627,o),
(279,619,o),
(288,608,cs),
(297,595,o),
(301,578,o),
(312,569,cs),
(335,548,o),
(397,615,o),
(375,638,cs),
(357,656,o),
(324,665,o),
(283,665,cs),
(225,665,o),
(170,644,o),
(132,603,cs),
(90,559,o),
(89,522,o),
(85,417,cs),
(84,385,o),
(84,221,o),
(85,69,cs),
(85,30,o),
(52,32,o),
(20,18,c)
);
},
{
closed = 1;
nodes = (
(580,334,l),
(580,389,l),
(91,384,l),
(15,359,l),
(15,349,l)
);
},
{
pos = (287,0);
ref = f;
}
);
width = 594;
}
);
metricLeft = f;
metricRight = f;
},
{
glyphname = f_f_i;
lastChange = "2025-01-08 19:27:58 +0000";
layers = (
{
color = 10;
layerId = m005;
shapes = (
{
closed = 1;
nodes = (
(24,0,l),
(257,0,l),
(257,18,l),
(203,31,o),
(167,31,o),
(165,69,cs),
(160,163,o),
(160,304,o),
(165,449,cs),
(167,510,o),
(162,624,o),
(231,624,cs),
(254,624,o),
(263,617,o),
(272,606,cs),
(281,593,o),
(285,576,o),
(296,567,cs),
(319,546,o),
(381,615,o),
(359,638,cs),
(341,656,o),
(308,665,o),
(267,665,cs),
(209,665,o),
(161,631,o),
(133,590,cs),
(99,540,o),
(93,492,o),
(89,387,cs),
(88,355,o),
(88,221,o),
(89,69,cs),
(89,30,o),
(56,32,o),
(24,18,c)
);
},
{
closed = 1;
nodes = (
(718,334,l),
(718,389,l),
(95,384,l),
(19,359,l),
(19,349,l)
);
},
{
pos = (289,0);
ref = f_i;
}
);
width = 792;
}
);
metricLeft = f;
metricRight = i;
},
{
glyphname = f_f_l;
lastChange = "2025-01-08 19:27:58 +0000";
layers = (
{
color = 10;
layerId = m005;
shapes = (
{
closed = 1;
nodes = (
(24,0,l),
(257,0,l),
(257,18,l),
(203,31,o),
(167,31,o),
(165,69,cs),
(160,163,o),
(160,304,o),
(165,449,cs),
(167,510,o),
(162,624,o),
(231,624,cs),
(254,624,o),
(263,617,o),
(272,606,cs),
(281,593,o),
(285,576,o),
(296,567,cs),
(319,546,o),
(381,615,o),
(359,638,cs),
(341,656,o),
(308,665,o),
(267,665,cs),
(209,665,o),
(161,631,o),
(133,590,cs),
(99,540,o),
(93,492,o),
(89,387,cs),
(88,355,o),
(88,221,o),
(89,69,cs),
(89,30,o),
(56,32,o),
(24,18,c)
);
},
{
closed = 1;
nodes = (
(588,334,l),
(588,389,l),
(95,384,l),
(19,359,l),
(19,349,l)
);
},
{
pos = (291,0);
ref = f_l;
}
);
width = 792;
}
);
metricLeft = f;
metricRight = l;
},
{
glyphname = f_i;
lastChange = "2025-01-08 19:27:58 +0000";
layers = (
{
color = 10;
layerId = m005;
shapes = (
{
closed = 1;
nodes = (
(253,0,l),
(253,18,l),
(199,31,o),
(161,52,o),
(160,69,cs),
(152,227,o),
(159,405,o),
(159,499,cs),
(159,603,o),
(203,627,o),
(236,627,cs),
(287,627,o),
(307,600,o),
(326,561,cs),
(335,543,o),
(352,525,o),
(373,525,cs),
(400,525,o),
(424,549,o),
(424,574,cs),
(424,591,o),
(414,607,o),
(401,616,c),
(379,636,o),
(353,665,o),
(263,665,cs),
(212,665,o),
(174,647,o),
(147,616,cs),
(106,571,o),
(88,499,o),
(85,417,cs),
(84,382,o),
(84,237,o),
(85,69,cs),
(85,56,o),
(58,35,o),
(20,18,c),
(20,0,l)
);
},
{
closed = 1;
nodes = (
(417,395,l),
(91,384,l),
(15,359,l),
(15,349,l),
(417,332,l)
);
},
{
closed = 1;
nodes = (
(497,0,l),
(497,18,l),
(456,32,o),
(432,39,o),
(431,68,cs),
(429,148,o),
(429,229,o),
(431,309,cs),
(433,388,l),
(418,395,l),
(299,387,l),
(299,376,l),
(318,368,o),
(358,355,o),
(359,333,cs),
(362,258,o),
(362,143,o),
(359,68,cs),
(358,39,o),
(335,32,o),
(294,18,c),
(294,0,l)
);
}
);
width = 504;
}
);
metricLeft = f;
metricRight = i;
},
{
glyphname = f_l;
lastChange = "2025-01-08 19:27:58 +0000";
layers = (
{
color = 10;
layerId = m005;
shapes = (
{
closed = 1;
nodes = (
(20,0,l),
(253,0,l),
(253,18,l),
(199,31,o),
(162,31,o),
(160,69,cs),
(155,163,o),
(143,354,o),
(155,499,cs),
(160,560,o),
(157,627,o),
(226,627,cs),
(249,627,o),
(278,622,o),
(295,616,cs),
(330,603,o),
(407,605,o),
(385,628,cs),
(367,646,o),
(304,665,o),
(263,665,cs),
(205,665,o),
(170,644,o),
(132,603,cs),
(90,559,o),
(89,522,o),
(85,417,cs),
(84,385,o),
(84,221,o),
(85,69,cs),
(85,30,o),
(52,32,o),
(20,18,c)
);
},
{
closed = 1;
nodes = (
(300,334,l),
(300,389,l),
(91,384,l),
(15,359,l),
(15,349,l)
);
},
{
pos = (287,0);
ref = l;
}
);
width = 504;
}
);
metricLeft = f;
metricRight = l;
},
{
glyphname = s_t;
lastChange = "2025-01-08 19:27:58 +0000";
layers = (
{
color = 10;
layerId = m005;
shapes = (
{
ref = s;
},
{
pos = (342,0);
ref = t;
},
{
closed = 1;
nodes = (
(500,466,l),
(500,546,o),
(438,603,o),
(357,603,cs),
(276,603,o),
(219,546,o),
(219,465,cs),
(219,419,o),
(237,381,o),
(267,356,c),
(289,376,l),
(262,396,o),
(246,426,o),
(246,465,cs),
(246,529,o),
(292,575,o),
(357,575,cs),
(421,575,o),
(476,529,o),
(476,465,cs),
(476,455,o),
(475,446,o),
(473,437,c)
);
}
);
width = 630;
}
);
metricLeft = s;
metricRight = t;
},
{
color = 2;
glyphname = A.sc;
lastChange = "2025-01-11 07:08:04 +0000";
layers = (
{
anchors = (
{
name = bottom;
pos = (331,0);
},
{
name = ogonek;
pos = (590,8);
},
{
name = top;
pos = (331,517);
}
);
color = 4;
layerId = m005;
shapes = (
{
closed = 1;
nodes = (
(640,-1,l),
(640,22,l),
(574,34,o),
(556,54,o),
(528,113,cs),
(465,259,o),
(403,403,o),
(339,548,c),
(301,484,l),
(298,466,l),
(442,118,ls),
(476,37,o),
(463,37,o),
(387,22,c),
(387,-1,l)
);
},
{
closed = 1;
nodes = (
(259,-1,l),
(259,22,l),
(189,27,o),
(164,48,o),
(189,109,cs),
(335,474,l),
(302,486,l),
(242,341,o),
(178,166,o),
(121,71,cs),
(104,42,o),
(64,21,o),
(23,22,c),
(23,-1,l)
);
},
{
closed = 1;
nodes = (
(441,216,l),
(428,251,l),
(219,251,l),
(203,216,l)
);
}
);
width = 646;
}
);
},
{
color = 2;
glyphname = AE.sc;
lastChange = "2025-01-11 07:08:04 +0000";
layers = (
{
anchors = (
{
name = bottom;
pos = (422,0);
},
{
name = top;
pos = (422,517);
}
);
color = 10;
layerId = m005;
shapes = (
{
closed = 1;
nodes = (
(259,-1,l),
(259,20,l),
(187,19,o),
(154,49,o),
(190,108,cs),
(431,501,l),
(381,520,l),
(306,381,o),
(176,166,o),
(119,71,cs),
(102,42,o),
(62,21,o),
(23,22,c),
(23,-1,l)
);
},
{
closed = 1;
nodes = (
(496,229,l),
(483,265,l),
(239,265,l),
(223,229,l)
);
},
{
closed = 1;
nodes = (
(373,-2,o),
(420,-1,o),
(463,-1,cs),
(597,-1,o),
(715,-2,o),
(785,-4,c),
(798,36,o),
(807,93,o),
(807,133,c),
(776,133,l),
(765,76,o),
(731,39,o),
(692,36,cs),
(662,35,o),
(633,34,o),
(582,34,cs),
(547,34,o),
(520,43,o),
(513,57,cs),
(510,62,o),
(508,77,o),
(508,90,cs),
(506,260,ls),
(506,275,o),
(508,342,o),
(508,428,cs),
(508,484,l),
(578,484,o),
(581,485,o),
(645,482,cs),
(667,480,o),
(687,457,o),
(694,418,c),
(730,418,l),
(731,450,o),
(735,494,o),
(742,521,c),
(683,519,o),
(586,518,o),
(472,518,cs),
(426,518,o),
(332,519,o),
(313,521,c),
(310,501,l),
(350,491,o),
(356,482,o),
(370,475,c),
(433,475,l),
(434,262,l),
(432,76,ls),
(432,55,o),
(422,35,o),
(407,28,c),
(406,27,o),
(387,22,o),
(354,19,c),
(354,-4,l)
);
},
{
closed = 1;
nodes = (
(681,154,l),
(675,209,o),
(675,288,o),
(681,344,c),
(651,344,l),
(650,339,o),
(648,326,o),
(643,314,cs),
(630,284,o),
(636,265,o),
(584,265,cs),
(453,265,l),
(453,229,l),
(584,229,ls),
(642,229,o),
(635,213,o),
(644,185,cs),
(648,175,o),
(650,164,o),
(653,154,c)
);
}
);
width = 828;
}
);
},
{
color = 2;
glyphname = B.sc;
lastChange = "2025-01-11 07:08:04 +0000";
layers = (
{
anchors = (
{
name = bottom;
pos = (273,0);
},
{
name = center;
pos = (141,129);
},
{
name = top;
pos = (273,517);
}
);
color = 2;
guides = (
{
angle = 270;
pos = (18,13);
}
);
layerId = m005;
shapes = (
{
closed = 1;
nodes = (
(23,-1,l),
(295,-1,l),
(295,35,l),
(253,35,o),
(214,33,o),
(197,46,cs),
(189,53,o),
(185,62,o),
(185,76,cs),
(183,258,o),
(182,316,o),
(186,481,c),
(205,483,o),
(258,483,o),
(276,483,c),
(276,518,l),
(23,518,l),
(23,495,l),
(56,491,o),
(79,488,o),
(92,479,cs),
(101,474,o),
(105,463,o),
(105,441,cs),
(106,211,o),
(111,97,o),
(111,262,cs),
(111,432,o),
(106,314,o),
(105,76,cs),
(105,56,o),
(100,44,o),
(92,37,cs),
(77,25,o),
(52,27,o),
(23,22,c)
);
},
{
closed = 1;
nodes = (
(170,266,o),
(181,266,o),
(208,266,cs),
(358,266,o),
(454,318,o),
(454,404,cs),
(454,471,o),
(379,519,o),
(272,518,c),
(272,483,l),
(329,484,o),
(368,444,o),
(368,388,cs),
(368,325,o),
(305,293,o),
(201,293,cs),
(144,293,l),
(145,266,l)
);
},
{
closed = 1;
nodes = (
(409,-2,o),
(491,65,o),
(491,160,cs),
(491,235,o),
(410,281,o),
(299,285,cs),
(128,292,l),
(128,263,l),
(149,263,o),
(160,263,o),
(195,263,cs),
(318,263,o),
(401,221,o),
(401,144,cs),
(401,79,o),
(356,34,o),
(291,35,c),
(291,-1,l)
);
}
);
width = 530;
}
);
},
{
color = 2;
glyphname = C.sc;
lastChange = "2025-01-11 07:08:04 +0000";
layers = (
{
anchors = (
{
name = bottom;
pos = (384,0);
},
{
name = top;
pos = (383,517);
}
);
backgroundImage = {
imagePath = "../../Desktop/Bildschirmfoto 2024-12-24 um 08.52.09.png";
pos = (714,-952);
scale = (-1.288,1.176);
};
color = 4;
layerId = m005;
shapes = (
{
closed = 1;
nodes = (
(450,-10,o),
(538,8,o),
(588,32,c),
(605,89,o),
(619,147,o),
(623,170,c),
(586,169,l),
(564,86,o),
(486,29,o),
(397,29,cs),
(256,29,o),
(159,133,o),
(159,281,cs),
(159,405,o),
(253,491,o),
(389,491,cs),
(473,491,o),
(542,438,o),
(556,362,c),
(596,362,l),
(594,505,l),
(546,483,l),
(514,510,o),
(447,528,o),
(380,528,cs),
(189,528,o),
(56,417,o),
(56,262,cs),
(56,103,o),
(189,-10,o),
(380,-10,cs)
);
}
);
width = 662;
}
);
},
{
color = 2;
glyphname = D.sc;
lastChange = "2025-01-11 07:08:04 +0000";
layers = (
{
anchors = (
{
name = bottom;
pos = (331,0);
},
{
name = center;
pos = (170,259);
},
{
name = top;
pos = (331,517);
}
);
background = {
shapes = (
{
closed = 1;
nodes = (
(20,0,l),
(303,0,l),
(303,40,l),
(258,40,o),
(223,38,o),
(204,54,cs),
(195,62,o),
(190,73,o),
(190,91,cs),
(188,307,o),
(187,377,o),
(191,574,c),
(208,576,o),
(260,576,o),
(283,576,c),
(283,616,l),
(20,616,l),
(20,591,l),
(54,581,o),
(78,582,o),
(92,572,cs),
(102,565,o),
(107,552,o),
(107,525,cs),
(108,341,o),
(109,253,o),
(109,312,cs),
(109,373,o),
(108,282,o),
(107,91,cs),
(107,65,o),
(101,51,o),
(92,43,cs),
(76,29,o),
(50,31,o),
(20,25,c)
);
}
);
};
backgroundImage = {
imagePath = "../../Desktop/Bildschirmfoto 2024-12-24 um 13.06.05.png";
pos = (759,-1011);
scale = (-1.288,1.176);
};
color = 2;
layerId = m005;
shapes = (
{
closed = 1;
nodes = (
(23,-1,l),
(42,-1,o),
(102,-1,o),
(142,-1,cs),
(162,-1,o),
(211,-1,o),
(290,-4,c),
(303,33,l),
(255,33,o),
(218,29,o),
(197,47,cs),
(189,54,o),
(185,62,o),
(185,76,cs),
(185,159,o),
(185,398,o),
(186,481,c),
(228,484,o),
(258,485,o),
(300,485,c),
(315,521,l),
(238,520,o),
(181,518,o),
(144,518,cs),
(101,518,o),
(51,518,o),
(23,518,c),
(23,495,l),
(58,489,o),
(80,488,o),
(92,479,c),
(100,475,o),
(105,463,o),
(105,441,cs),
(106,345,o),
(107,271,o),
(107,262,cs),
(107,254,o),
(106,176,o),
(105,76,cs),
(105,56,o),
(101,45,o),
(92,37,cs),
(79,27,o),
(55,26,o),
(23,22,c)
);
},
{
closed = 1;
nodes = (
(286,-4,l),
(472,-4,o),
(606,112,o),
(606,275,cs),
(606,419,o),
(485,522,o),
(311,521,c),
(296,485,l),
(425,486,o),
(517,389,o),
(517,250,cs),
(517,123,o),
(428,32,o),
(299,33,c)
);
}
);
width = 646;
}
);
},
{
color = 9;
glyphname = Dcroat.sc;
lastChange = "2025-01-11 07:08:04 +0000";
layers = (
{
layerId = m005;
shapes = (
{
pos = (-1,0);
ref = D;
},
{
closed = 1;
nodes = (
(49,223,l),
(261,295,l),
(248,328,l),
(36,256,l)
);
}
);
width = 646;
}
);
},
{
color = 2;
glyphname = E.sc;
lastChange = "2025-01-11 07:08:04 +0000";
layers = (
{
anchors = (
{
name = bottom;
pos = (273,0);
},
{
name = ogonek;
pos = (468,8);
},
{
name = top;
pos = (273,517);
},
{
name = topleft;
pos = (27,517);
}
);
background = {
shapes = (
{
closed = 1;
nodes = (
(20,0,l),
(303,0,l),
(303,40,l),
(258,40,o),
(223,38,o),
(204,54,cs),
(195,62,o),
(190,73,o),
(190,91,cs),
(188,307,o),
(187,377,o),
(191,574,c),
(208,576,o),
(260,576,o),
(283,576,c),
(283,616,l),
(20,616,l),
(20,591,l),
(54,581,o),
(78,582,o),
(92,572,cs),
(102,565,o),
(107,552,o),
(107,525,cs),
(108,341,o),
(109,253,o),
(109,312,cs),
(109,373,o),
(108,282,o),
(107,91,cs),
(107,65,o),
(101,51,o),
(92,43,cs),
(76,29,o),
(50,31,o),
(20,25,c)
);
}
);
};
color = 2;
layerId = m005;
shapes = (
{
closed = 1;
nodes = (
(47,-2,o),
(93,-1,o),
(135,-1,cs),
(268,-1,o),
(415,-2,o),
(485,-4,c),
(496,36,o),
(505,92,o),
(507,133,c),
(476,133,l),
(465,76,o),
(431,39,o),
(392,36,cs),
(362,35,o),
(304,34,o),
(251,34,cs),
(220,34,o),
(206,38,o),
(196,46,cs),
(188,54,o),
(185,66,o),
(185,82,cs),
(185,224,o),
(184,347,o),
(186,481,c),
(220,483,o),
(245,483,o),
(265,483,cs),
(291,483,o),
(323,483,o),
(352,481,cs),
(375,479,o),
(395,457,o),
(402,418,c),
(437,418,l),
(438,450,o),
(443,494,o),
(449,521,c),
(391,519,o),
(257,518,o),
(144,518,cs),
(98,518,o),
(49,519,o),
(23,520,c),
(23,494,l),
(55,490,o),
(78,487,o),
(92,475,cs),
(100,468,o),
(105,456,o),
(105,438,cs),
(107,316,o),
(107,198,o),
(105,76,cs),
(105,57,o),
(100,44,o),
(92,36,cs),
(79,25,o),
(57,23,o),
(23,20,c),
(23,-3,l)
);
},
{
closed = 1;
nodes = (
(381,172,l),
(376,227,o),
(376,307,o),
(381,362,c),
(353,362,l),
(352,357,o),
(348,344,o),
(343,333,cs),
(327,302,o),
(307,283,o),
(253,283,cs),
(127,283,l),
(127,248,l),
(253,248,ls),
(314,248,o),
(333,230,o),
(344,203,cs),
(354,172,l)
);
}
);
width = 530;
}
);
},
{
color = 9;
glyphname = Schwa.sc;
lastChange = "2025-01-11 07:08:04 +0000";
layers = (
{
anchors = (
{
name = bottom;
pos = (244,511);
},
{
name = ogonek;
pos = (135,498);
},
{
name = top;
pos = (228,5);
}
);
layerId = m005;
shapes = (
{
closed = 1;
nodes = (
(379,112,o),
(335,26,o),
(254,26,cs),
(192,26,o),
(129,88,o),
(125,175,c),
(394,179,l),
(399,208,l),
(39,212,l),
(39,197,ls),
(39,76,o),
(130,-10,o),
(236,-10,cs),
(376,-10,o),
(457,104,o),
(457,264,cs),
(457,417,o),
(369,527,o),
(244,527,cs),
(168,527,o),
(83,467,o),
(41,386,c),
(66,367,l),
(103,427,o),
(166,468,o),
(219,468,cs),
(312,468,o),
(379,371,o),
(379,234,cs)
);
}
);
width = 480;
}
);
},
{
color = 2;
glyphname = F.sc;
lastChange = "2025-01-11 07:08:04 +0000";
layers = (
{
anchors = (
{
name = bottom;
pos = (232,0);
},
{
name = top;
pos = (232,517);
}
);
background = {
shapes = (
{
closed = 1;
nodes = (
(20,0,l),
(303,0,l),
(303,40,l),
(258,40,o),
(223,38,o),
(204,54,cs),
(195,62,o),
(190,73,o),
(190,91,cs),
(188,307,o),
(187,377,o),
(191,574,c),
(208,576,o),
(260,576,o),
(283,576,c),
(283,616,l),
(20,616,l),
(20,591,l),
(54,581,o),
(78,582,o),
(92,572,cs),
(102,565,o),
(107,552,o),
(107,525,cs),
(108,341,o),
(109,253,o),
(109,312,cs),
(109,373,o),
(108,282,o),
(107,91,cs),
(107,65,o),
(101,51,o),
(92,43,cs),
(76,29,o),
(50,31,o),
(20,25,c)
);
}
);
};
color = 2;
layerId = m005;
shapes = (
{
closed = 1;
nodes = (
(35,-1,o),
(243,-1,o),
(292,-1,c),
(292,25,l),
(244,30,o),
(213,30,o),
(196,46,cs),
(188,55,o),
(184,67,o),
(184,87,cs),
(182,218,o),
(183,349,o),
(186,481,c),
(207,482,o),
(249,483,o),
(269,483,cs),
(294,483,o),
(315,483,o),
(344,481,cs),
(367,479,o),
(385,457,o),
(393,418,c),
(426,418,l),
(428,450,o),
(434,494,o),
(441,521,c),
(383,519,o),
(256,518,o),
(144,518,cs),
(98,518,o),
(49,519,o),
(24,520,c),
(24,496,l),
(56,491,o),
(78,490,o),
(92,479,cs),
(100,472,o),
(105,461,o),
(105,441,cs),
(107,319,o),
(107,198,o),
(105,76,cs),
(105,57,o),
(101,45,o),
(94,38,cs),
(82,26,o),
(60,24,o),
(23,20,c),
(23,-2,l)
);
},
{
closed = 1;
nodes = (
(386,172,l),
(380,227,o),
(380,307,o),
(386,362,c),
(361,362,l),
(360,357,o),
(356,344,o),
(351,333,cs),
(336,302,o),
(315,283,o),
(261,283,cs),
(136,283,l),
(136,248,l),
(261,248,ls),
(322,248,o),
(341,230,o),
(352,203,cs),
(362,172,l)
);
}
);
width = 447;
}
);
},
{
color = 2;
glyphname = G.sc;
lastChange = "2025-01-11 07:08:04 +0000";
layers = (
{
anchors = (
{
name = bottom;
pos = (339,0);
},
{
name = top;
pos = (339,517);
}
);
backgroundImage = {
imagePath = "../../Desktop/Bildschirmfoto 2024-12-23 um 19.38.00.png";
pos = (715,-876);
scale = (-1.2604,1.1501);
};
color = 3;
layerId = m005;
shapes = (
{
closed = 1;
nodes = (
(458,-10,o),
(553,9,o),
(603,36,c),
(599,48,l),
(583,48,o),
(573,56,o),
(573,66,cs),
(573,175,ls),
(573,196,o),
(584,213,o),
(604,217,cs),
(640,222,l),
(640,249,l),
(404,249,l),
(404,218,l),
(453,211,o),
(493,196,o),
(493,165,cs),
(493,64,ls),
(493,46,o),
(462,29,o),
(421,29,cs),
(255,29,o),
(146,118,o),
(146,280,cs),
(146,405,o),
(251,493,o),
(393,493,cs),
(480,493,o),
(545,443,o),
(548,372,c),
(581,372,l),
(583,416,o),
(589,469,o),
(595,500,c),
(550,516,o),
(462,528,o),
(385,528,cs),
(196,528,o),
(56,416,o),
(56,259,cs),
(56,102,o),
(194,-10,o),
(380,-10,cs)
);
}
);
width = 662;
}
);
},
{
color = 2;
glyphname = H.sc;
lastChange = "2025-01-11 07:08:04 +0000";
layers = (
{
anchors = (
{
name = bottom;
pos = (356,0);
},
{
name = center;
pos = (356,388);
},
{
name = top;
pos = (356,517);
},
{
name = topleft;
pos = (27,517);
}
);
background = {
shapes = (
{
closed = 1;
nodes = (
(180,609,l,{
"Letterink-NibData" = {
AngleInDegrees = "0";
};
}),
(176,616,l,{
"Letterink-NibData" = {
AngleInDegrees = "360";
};
}),
(107,576,l),
(107,7,l,{
"Letterink-NibData" = {
AngleInDegrees = "360";
};
}),
(111,0,l,{
"Letterink-NibData" = {
AngleInDegrees = "360";
};
}),
(180,40,l),
(180,304,l),
(594,304,l),
(594,7,l,{
"Letterink-NibData" = {
AngleInDegrees = "360";
};
}),
(598,0,l,{
"Letterink-NibData" = {
AngleInDegrees = "360";
};
}),
(668,40,l),
(668,609,l,{
"Letterink-NibData" = {
AngleInDegrees = "0";
};
}),
(664,616,l,{
"Letterink-NibData" = {
AngleInDegrees = "359.99999";
};
}),
(594,576,l),
(594,351,l),
(180,351,l)
);
},
{
closed = 0;
nodes = (
(252,616,l),
(252,591,l),
(224,583,o),
(206,576,o),
(195,564,cs),
(186,553,o),
(182,538,o),
(182,512,cs)
);
}
);
};
color = 1;
layerId = m005;
shapes = (
{
closed = 1;
nodes = (
(275,-1,l),
(275,22,l),
(248,29,o),
(206,34,o),
(196,44,cs),
(187,52,o),
(183,66,o),
(183,87,cs),
(182,150,o),
(182,212,o),
(181,274,cs),
(180,326,o),
(182,378,o),
(183,430,cs),
(183,452,o),
(189,467,o),
(196,474,cs),
(206,484,o),
(248,489,o),
(275,495,c),
(275,518,l),
(23,518,l),
(23,495,l),
(42,489,o),
(84,483,o),
(94,473,cs),
(102,464,o),
(105,451,o),
(105,430,cs),
(106,378,o),
(107,327,o),
(107,275,cs),
(107,213,o),
(106,150,o),
(105,87,cs),
(105,67,o),
(102,54,o),
(94,45,cs),
(84,35,o),
(42,28,o),
(23,21,c),
(23,-1,l)
);
},
{
closed = 1;
nodes = (
(689,-1,l),
(689,21,l),
(671,28,o),
(630,34,o),
(620,44,cs),
(611,52,o),
(607,66,o),
(607,87,cs),
(606,150,o),
(606,215,o),
(606,277,cs),
(605,328,o),
(606,379,o),
(607,430,cs),
(607,452,o),
(611,465,o),
(620,474,cs),
(630,484,o),
(671,490,o),
(689,496,c),
(689,518,l),
(437,518,l),
(437,495,l),
(466,489,o),
(508,483,o),
(518,473,cs),
(526,464,o),
(529,451,o),
(529,430,cs),
(530,379,o),
(531,328,o),
(531,276,cs),
(531,213,o),
(530,150,o),
(529,87,cs),
(529,67,o),
(526,54,o),
(518,45,cs),
(508,35,o),
(465,29,o),
(437,22,c),
(437,-1,l)
);
},
{
closed = 1;
nodes = (
(563,254,l),
(563,294,l),
(148,294,l),
(148,254,l)
);
}
);
width = 696;
}
);
note = H;
},
{
glyphname = Hbar.sc;
lastChange = "2025-01-11 07:05:53 +0000";
layers = (
{
layerId = m005;
shapes = (
{
ref = H;
},
{
closed = 1;
nodes = (
(55,487,l),
(703,487,l),
(703,527,l),
(55,527,l)
);
}
);
width = 756;
}
);
},
{
color = 2;
glyphname = I.sc;
lastChange = "2025-01-11 07:08:04 +0000";
layers = (
{
anchors = (
{
name = bottom;
pos = (141,0);
},
{
name = ogonek;
pos = (247,8);
},
{
name = top;
pos = (141,517);
},
{
name = topleft;
pos = (27,517);
}
);
background = {
shapes = (
{
closed = 1;
nodes = (
(182,40,l),
(182,609,l,{
"Letterink-NibData" = {
AngleInDegrees = "0";
};
}),
(178,616,l,{
"Letterink-NibData" = {
AngleInDegrees = "360";
};
}),
(109,576,l),
(109,7,l,{
"Letterink-NibData" = {
AngleInDegrees = "360";
};
}),
(113,0,l,{
"Letterink-NibData" = {
AngleInDegrees = "360";
};
})
);
}
);
};
color = 1;
layerId = m005;
shapes = (
{
closed = 1;
nodes = (
(23,-1,l),
(259,-1,l),
(259,22,l),
(223,27,o),
(201,28,o),
(190,35,cs),
(179,42,o),
(177,54,o),
(177,76,cs),
(175,182,o),
(177,275,o),
(177,441,cs),
(177,466,o),
(184,478,o),
(198,484,cs),
(214,491,o),
(237,491,o),
(259,495,c),
(259,518,l),
(23,518,l),
(23,497,l),
(57,492,o),
(80,491,o),
(92,482,cs),
(101,474,o),
(105,463,o),
(105,441,cs),
(107,321,o),
(107,197,o),
(105,76,cs),
(105,53,o),
(102,40,o),
(93,34,cs),
(79,24,o),
(55,26,o),
(23,22,c)
);
}
);
width = 265;
}
);
note = I;
},
{
color = 2;
glyphname = J.sc;
lastChange = "2025-01-11 07:08:04 +0000";
layers = (
{
anchors = (
{
name = bottom;
pos = (132,0);
},
{
name = top;
pos = (132,517);
}
);
color = 1;
layerId = m005;
shapes = (
{
closed = 1;
nodes = (
(37,-196,o),
(87,-161,o),
(103,-140,cs),
(146,-82,o),
(179,24,o),
(177,124,cs),
(175,283,o),
(175,282,o),
(177,441,cs),
(177,465,o),
(180,477,o),
(192,484,cs),
(205,490,o),
(227,490,o),
(259,495,c),
(259,518,l),
(23,518,l),
(23,495,l),
(55,492,o),
(78,491,o),
(92,481,cs),
(102,474,o),
(106,463,o),
(106,441,cs),
(106,68,ls),
(106,28,o),
(106,-75,o),
(77,-115,c),
(71,-126,o),
(61,-131,o),
(52,-131,cs),
(36,-132,o),
(35,-112,o),
(16,-112,cs),
(-16,-112,o),
(-38,-137,o),
(-38,-171,cs),
(-38,-185,o),
(-21,-196,o),
(5,-196,cs)
);
}
);
width = 248;
}
);
},
{
color = 2;
glyphname = K.sc;
lastChange = "2025-01-11 07:08:04 +0000";
layers = (
{
anchors = (
{
name = bottom;
pos = (298,0);
},
{
name = top;
pos = (298,517);
}
);
background = {
shapes = (
{
closed = 0;
nodes = (
(471,91,l),
(471,55,o),
(465,41,o),
(444,31,cs),
(433,26,o),
(415,25,o),
(388,18,c),
(388,0,l),
(633,0,l),
(633,18,l),
(587,31,o),
(564,33,o),
(555,51,cs),
(551,60,o),
(549,73,o),
(549,91,c)
);
},
{
closed = 0;
nodes = (
(493,525,l),
(493,561,o),
(499,575,o),
(520,585,cs),
(531,590,o),
(549,591,o),
(576,598,c),
(576,616,l),
(331,616,l),
(331,598,l),
(377,585,o),
(400,583,o),
(409,565,cs),
(413,556,o),
(415,543,o),
(415,525,cs)
);
}
);
};
color = 2;
layerId = m005;
shapes = (
{
closed = 1;
nodes = (
(23,-1,l),
(259,-1,l),
(259,16,l),
(226,24,o),
(207,25,o),
(197,31,cs),
(186,38,o),
(180,50,o),
(180,76,cs),
(179,131,o),
(180,356,o),
(180,441,cs),
(180,467,o),
(185,479,o),
(197,487,cs),
(209,495,o),
(229,498,o),
(259,501,c),
(259,518,l),
(23,518,l),
(23,496,l),
(70,490,o),
(91,490,o),
(99,475,cs),
(103,467,o),
(105,455,o),
(105,441,cs),
(107,321,o),
(107,197,o),
(105,76,cs),
(105,56,o),
(101,45,o),
(92,38,cs),
(79,29,o),
(56,29,o),
(23,22,c)
);
},
{
closed = 1;
nodes = (
(393,422,ls),
(426,453,o),
(467,481,o),
(493,491,cs),
(506,496,o),
(534,500,o),
(540,501,c),
(540,518,l),
(321,518,l),
(321,501,l),
(342,498,o),
(365,487,o),
(365,468,cs),
(365,456,o),
(358,443,o),
(341,425,cs),
(133,224,l),
(156,200,l)
);
},
{
closed = 1;
nodes = (
(590,16,l),
(532,30,o),
(502,41,o),
(456,84,c),
(239,306,l),
(184,253,l),
(250,182,o),
(369,59,o),
(396,33,cs),
(422,6,o),
(447,-4,o),
(487,-4,cs),
(590,-1,l)
);
}
);
width = 580;
}
);
},
{
color = 2;
glyphname = L.sc;
lastChange = "2025-01-11 07:08:04 +0000";
layers = (
{
anchors = (
{
name = bottom;
pos = (290,0);
},
{
name = center;
pos = (290,259);
},
{
name = top;
pos = (290,517);
},
{
name = topright;
pos = (553,517);
}
);
color = 2;
layerId = m005;
shapes = (
{
closed = 1;
nodes = (
(23,-4,l),
(107,-2,o),
(183,-1,o),
(257,-1,c),
(257,35,l),
(199,37,o),
(184,37,o),
(184,88,cs),
(182,197,o),
(181,267,o),
(184,434,cs),
(184,464,o),
(185,475,o),
(204,484,cs),
(214,488,o),
(232,490,o),
(259,493,c),
(259,518,l),
(25,518,l),
(25,496,l),
(57,492,o),
(79,490,o),
(91,483,cs),
(101,476,o),
(104,465,o),
(105,441,cs),
(107,321,o),
(107,197,o),
(104,76,cs),
(103,53,o),
(101,42,o),
(92,35,cs),
(80,26,o),
(59,25,o),
(23,20,c)
);
},
{
closed = 1;
nodes = (
(309,1,o),
(416,0,o),
(479,-4,c),
(503,59,o),
(526,116,o),
(540,149,c),
(512,161,l),
(475,83,o),
(402,40,o),
(336,39,cs),
(294,38,o),
(272,35,o),
(253,35,c),
(253,-1,l)
);
}
);
width = 563;
}
);
},
{
glyphname = Lslash.sc;
lastChange = "2025-01-11 07:05:53 +0000";
layers = (
{
layerId = m005;
shapes = (
{
ref = L;
},
{
closed = 1;
nodes = (
(43,268,l),
(270,351,l),
(258,388,l),
(30,305,l)
);
}
);
width = 612;
}
);
},
{
color = 2;
glyphname = M.sc;
lastChange = "2025-01-11 07:08:04 +0000";
layers = (
{
anchors = (
{
name = bottom;
pos = (406,0);
},
{
name = top;
pos = (406,517);
}
);
backgroundImage = {
imagePath = "../../Desktop/Bildschirmfoto 2024-12-24 um 15.40.08.png";
pos = (847,-1015);
scale = (-1.288,1.176);
};
color = 1;
layerId = m005;
shapes = (
{
closed = 1;
nodes = (
(656,492,l),
(626,520,l),
(390,87,l),
(412,98,l),
(206,518,l),
(39,518,l),
(39,495,l),
(86,492,ls),
(112,490,o),
(138,475,o),
(148,454,cs),
(381,-17,l)
);
},
{
closed = 1;
nodes = (
(242,-1,l),
(242,22,l),
(210,29,o),
(164,35,o),
(154,45,cs),
(146,53,o),
(142,66,o),
(143,88,cs),
(161,471,l),
(120,499,l),
(102,88,ls),
(101,66,o),
(97,51,o),
(89,44,cs),
(79,34,o),
(43,28,o),
(23,21,c),
(23,-1,l)
);
},
{
closed = 1;
nodes = (
(789,-1,l),
(789,22,l),
(752,29,o),
(729,35,o),
(720,44,cs),
(707,56,o),
(707,70,o),
(707,87,cs),
(705,181,o),
(703,337,o),
(703,444,cs),
(703,457,o),
(709,467,o),
(716,474,cs),
(727,485,o),
(743,491,o),
(772,495,c),
(772,518,l),
(625,518,l),
(631,87,ls),
(631,68,o),
(632,54,o),
(620,43,cs),
(605,30,o),
(570,24,o),
(553,22,c),
(553,-1,l)
);
}
);
width = 795;
}
);
},
{
color = 2;
glyphname = N.sc;
lastChange = "2025-01-11 07:08:04 +0000";
layers = (
{
anchors = (
{
name = bottom;
pos = (348,0);
},
{
name = top;
pos = (348,517);
}
);
color = 1;
layerId = m005;
shapes = (
{
closed = 1;
nodes = (
(606,-10,l),
(606,131,o),
(606,375,o),
(606,431,c),
(566,431,l),
(566,79,l),
(588,89,l),
(146,518,l),
(23,518,l),
(23,495,l),
(45,492,o),
(64,485,o),
(77,474,cs),
(89,464,o),
(109,446,o),
(126,431,cs),
(580,-10,l)
);
},
{
closed = 1;
nodes = (
(242,-1,l),
(242,22,l),
(208,25,o),
(170,30,o),
(157,45,cs),
(145,58,o),
(146,67,o),
(146,88,c),
(106,88,l),
(106,66,o),
(106,56,o),
(93,44,cs),
(77,30,o),
(43,29,o),
(23,21,c),
(23,-1,l)
);
},
{
closed = 1;
nodes = (
(146,86,l),
(146,471,l),
(106,499,l),
(106,86,l)
);
},
{
closed = 1;
nodes = (
(606,429,l),
(606,454,o),
(610,468,o),
(621,475,cs),
(632,484,o),
(652,487,o),
(673,493,c),
(673,518,l),
(470,518,l),
(470,495,l),
(512,490,o),
(538,488,o),
(552,476,cs),
(562,467,o),
(566,453,o),
(566,429,c)
);
}
);
width = 679;
}
);
},
{
color = 2;
glyphname = O.sc;
lastChange = "2025-01-11 07:08:04 +0000";
layers = (
{
anchors = (
{
name = bottom;
pos = (356,0);
},
{
name = center;
pos = (356,259);
},
{
name = ogonek;
pos = (634,8);
},
{
name = top;
pos = (356,517);
},
{
name = topleft;
pos = (27,517);
},
{
name = topright;
pos = (573,322);
}
);
background = {
shapes = (
{
closed = 1;
nodes = (
(646,111,o),
(701,209,o),
(704,323,c,{
"Letterink-NibData" = {
AngleInDegrees = "359.99999";
};
}),
(701,395,o),
(690,434,o),
(660,483,cs,{
"Letterink-NibData" = {
AngleInDegrees = "0";
};
}),
(599,582,o),
(513,633,o),
(409,633,cs),
(360,633,o),
(312,621,o),
(271,597,cs,{
"Letterink-NibData" = {
AngleInDegrees = "359.99999";
};
}),
(201,557,ls,{
"Letterink-NibData" = {
AngleInDegrees = "359.99999";
};
}),
(175,542,o),
(123,495,o),
(106,471,cs,{
"Letterink-NibData" = {
AngleInDegrees = "360";
};
}),
(66,415,o),
(48,359,o),
(48,290,cs),
(48,121,o),
(183,-21,o),
(343,-21,cs),
(392,-21,o),
(444,-7,o),
(488,19,cs,{
"Letterink-NibData" = {
AngleInDegrees = "360";
};
}),
(557,59,ls,{
"Letterink-NibData" = {
AngleInDegrees = "0";
};
})
);
},
{
closed = 1;
nodes = (
(482,32,o),
(450,26,o),
(409,26,cs),
(335,26,o),
(252,61,o),
(207,111,cs,{
"Letterink-NibData" = {
AngleInDegrees = "360";
};
}),
(195,123,o),
(182,141,o),
(162,168,c,{
"Letterink-NibData" = {
AngleInDegrees = "359.99999";
};
}),
(131,236,o),
(121,271,o),
(121,323,cs),
(121,425,o),
(159,501,o),
(243,566,c,{
"Letterink-NibData" = {
AngleInDegrees = "0";
};
}),
(285,583,o),
(301,586,o),
(343,586,cs),
(448,586,o),
(529,538,o),
(593,438,c,{
"Letterink-NibData" = {
AngleInDegrees = "359.99999";
};
}),
(620,389,o),
(631,347,o),
(631,289,cs,{
"Letterink-NibData" = {
AngleInDegrees = "359.99999";
};
}),
(629,192,o),
(586,102,o),
(515,47,c,{
"Letterink-NibData" = {
AngleInDegrees = "0";
};
})
);
}
);
};
color = 4;
layerId = m005;
shapes = (
{
closed = 1;
nodes = (
(534,-10,o),
(656,102,o),
(656,259,cs),
(656,415,o),
(534,527,o),
(353,527,cs),
(184,527,o),
(56,415,o),
(56,259,cs),
(56,102,o),
(184,-10,o),
(353,-10,cs)
);
},
{
closed = 1;
nodes = (
(148,398,o),
(231,490,o),
(338,490,cs),
(474,490,o),
(564,391,o),
(564,250,cs),
(564,118,o),
(487,26,o),
(369,26,cs),
(245,26,o),
(148,125,o),
(148,267,cs)
);
}
);
width = 696;
}
);
note = O;
},
{
glyphname = Oslash.sc;
lastChange = "2025-01-11 07:05:53 +0000";
layers = (
{
layerId = m005;
shapes = (
{
ref = O;
},
{
closed = 1;
nodes = (
(79,38,l),
(107,10,l),
(675,578,l),
(647,606,l)
);
}
);
width = 756;
}
);
},
{
color = 2;
glyphname = OE.sc;
lastChange = "2025-01-11 07:08:04 +0000";
layers = (
{
anchors = (
{
name = bottom;
pos = (505,0);
},
{
name = top;
pos = (505,517);
}
);
color = 10;
layerId = m005;
shapes = (
{
closed = 1;
nodes = (
(533,-10,o),
(614,102,o),
(614,259,cs),
(614,415,o),
(533,527,o),
(356,527,cs),
(181,527,o),
(58,415,o),
(58,259,cs),
(58,102,o),
(181,-10,o),
(356,-10,cs)
);
},
{
closed = 1;
nodes = (
(150,396,o),
(229,490,o),
(340,490,cs),
(473,490,o),
(544,389,o),
(544,250,cs),
(544,121,o),
(485,26,o),
(372,26,cs),
(242,26,o),
(150,128,o),
(150,267,cs)
);
},
{
closed = 1;
nodes = (
(549,-2,o),
(560,-1,o),
(573,-1,cs),
(709,-1,o),
(857,-2,o),
(927,-4,c),
(939,36,o),
(949,93,o),
(949,133,c),
(918,133,l),
(907,76,o),
(873,39,o),
(834,36,cs),
(804,35,o),
(745,34,o),
(693,34,cs),
(658,34,o),
(630,43,o),
(623,57,cs),
(620,62,o),
(618,77,o),
(618,90,cs),
(617,260,ls),
(617,337,o),
(617,371,o),
(618,484,c),
(693,484,ls),
(719,484,o),
(757,484,o),
(787,482,cs),
(809,480,o),
(829,457,o),
(836,418,c),
(871,418,l),
(872,450,o),
(877,494,o),
(883,521,c),
(826,519,o),
(698,518,o),
(582,518,cs),
(610,517,o),
(560,519,o),
(536,521,c),
(544,444,l),
(543,441,l),
(544,262,l),
(543,76,l),
(544,74,l),
(536,-4,l)
);
},
{
closed = 1;
nodes = (
(823,172,l),
(817,227,o),
(817,307,o),
(823,362,c),
(794,362,l),
(795,357,o),
(789,344,o),
(785,333,c),
(769,302,o),
(749,283,o),
(695,283,cs),
(565,283,l),
(565,248,l),
(695,248,ls),
(755,248,o),
(774,230,o),
(786,203,c),
(795,172,l)
);
}
);
width = 994;
}
);
},
{
color = 2;
glyphname = P.sc;
lastChange = "2025-01-11 07:08:04 +0000";
layers = (
{
anchors = (
{
name = bottom;
pos = (240,0);
},
{
name = top;
pos = (240,517);
}
);
background = {
anchors = (
{
name = bottom;
pos = (280,0);
},
{
name = center;
pos = (138,154);
},
{
name = top;
pos = (280,616);
}
);
shapes = (
{
closed = 1;
nodes = (
(20,0,l),
(303,0,l),
(303,40,l),
(258,40,o),
(223,38,o),
(204,54,cs),
(195,62,o),
(190,73,o),
(190,91,cs),
(188,307,o),
(187,377,o),
(191,574,c),
(208,576,o),
(260,576,o),
(283,576,c),
(283,616,l),
(20,616,l),
(20,591,l),
(54,581,o),
(78,582,o),
(92,572,cs),
(102,565,o),
(107,552,o),
(107,525,cs),
(108,341,o),
(109,253,o),
(109,312,cs),
(109,373,o),
(108,282,o),
(107,91,cs),
(107,65,o),
(101,51,o),
(92,43,cs),
(76,29,o),
(50,31,o),
(20,25,c)
);
},
{
closed = 1;
nodes = (
(177,318,o),
(189,318,o),
(217,318,cs),
(373,318,o),
(476,378,o),
(476,481,cs),
(476,560,o),
(396,616,o),
(283,616,c),
(283,576,l),
(344,576,o),
(387,529,o),
(387,462,cs),
(387,387,o),
(318,348,o),
(210,348,cs),
(150,348,l),
(151,318,l)
);
}
);
};
color = 2;
layerId = m005;
shapes = (
{
closed = 1;
nodes = (
(220,227,o),
(229,227,o),
(239,227,cs),
(359,227,o),
(441,283,o),
(441,376,cs),
(441,465,o),
(369,523,o),
(264,520,c),
(244,490,l),
(313,491,o),
(358,445,o),
(358,366,cs),
(358,291,o),
(301,248,o),
(209,249,c),
(209,227,l)
);
},
{
closed = 1;
nodes = (
(275,-1,l),
(275,22,l),
(228,31,o),
(208,34,o),
(197,44,cs),
(188,52,o),
(186,66,o),
(185,93,cs),
(183,158,o),
(183,317,o),
(186,489,c),
(248,490,l),
(268,520,l),
(233,519,o),
(174,518,o),
(144,518,cs),
(107,518,o),
(45,519,o),
(6,520,c),
(6,492,l),
(48,486,o),
(76,483,o),
(92,466,cs),
(100,458,o),
(105,445,o),
(105,426,cs),
(107,310,o),
(107,197,o),
(105,85,cs),
(105,64,o),
(101,50,o),
(93,42,cs),
(83,30,o),
(43,26,o),
(23,22,c),
(23,-1,l)
);
}
);
width = 464;
}
);
},
{
color = 9;
glyphname = Thorn.sc;
lastChange = "2025-01-11 07:08:04 +0000";
layers = (
{
layerId = m005;
shapes = (
{
closed = 1;
nodes = (
(259,-1,l),
(259,22,l),
(228,31,o),
(208,34,o),
(197,44,cs),
(189,51,o),
(185,68,o),
(185,93,cs),
(185,95,o),
(183,254,o),
(186,425,cs),
(186,446,o),
(191,467,o),
(198,475,cs),
(208,487,o),
(247,491,o),
(275,495,c),
(275,518,l),
(23,518,l),
(23,495,l),
(62,486,o),
(84,483,o),
(94,474,cs),
(101,467,o),
(105,452,o),
(106,424,cs),
(106,399,o),
(107,131,o),
(105,85,cs),
(104,63,o),
(100,50,o),
(93,42,cs),
(83,30,o),
(43,26,o),
(23,22,c),
(23,-1,l)
);
},
{
closed = 1;
nodes = (
(359,117,o),
(441,173,o),
(441,266,cs),
(441,355,o),
(369,413,o),
(264,410,c),
(244,380,l),
(313,381,o),
(358,334,o),
(358,256,cs),
(358,181,o),
(301,138,o),
(209,139,c),
(209,117,l),
(220,117,o),
(229,117,o),
(239,117,cs)
);
},
{
closed = 1;
nodes = (
(248,380,l),
(268,410,l),
(151,409,l),
(151,379,l)
);
}
);
width = 464;
}
);
},
{
color = 2;
glyphname = Q.sc;
lastChange = "2025-01-11 07:08:04 +0000";
layers = (
{
anchors = (
{
name = bottom;
pos = (356,0);
},
{
name = top;
pos = (356,517);
}
);
background = {
shapes = (
{
closed = 1;
nodes = (
(567,-11,o),
(702,121,o),
(702,308,cs),
(702,494,o),
(567,626,o),
(376,626,cs),
(187,626,o),
(54,494,o),
(54,308,cs),
(54,121,o),
(187,-11,o),
(376,-11,cs)
);
},
{
closed = 1;
nodes = (
(150,471,o),
(237,585,o),
(359,585,cs),
(504,585,o),
(606,463,o),
(606,298,cs),
(606,144,o),
(518,30,o),
(393,30,cs),
(251,30,o),
(150,152,o),
(150,318,cs)
);
},
{
closed = 1;
nodes = (
(567,-11,o),
(702,121,o),
(702,308,cs),
(702,494,o),
(567,626,o),
(376,626,cs),
(187,626,o),
(54,494,o),
(54,308,cs),
(54,121,o),
(187,-11,o),
(376,-11,cs)
);
},
{
closed = 1;
nodes = (
(150,471,o),
(237,585,o),
(359,585,cs),
(504,585,o),
(606,463,o),
(606,298,cs),
(606,144,o),
(518,30,o),
(393,30,cs),
(251,30,o),
(150,152,o),
(150,318,cs)
);
}
);
};
backgroundImage = {
imagePath = "../../Desktop/Bildschirmfoto 2024-12-24 um 15.25.09.png";
pos = (965,-1126);
scale = (-1.288,1.176);
};
color = 4;
layerId = m005;
shapes = (
{
closed = 1;
nodes = (
(533,-10,o),
(656,102,o),
(656,259,cs),
(656,415,o),
(533,527,o),
(359,527,cs),
(182,527,o),
(56,415,o),
(56,259,cs),
(56,102,o),
(182,-10,o),
(359,-10,cs)
);
},
{
closed = 1;
nodes = (
(148,398,o),
(226,490,o),
(338,490,cs),
(470,490,o),
(564,391,o),
(564,250,cs),
(564,117,o),
(486,26,o),
(374,26,cs),
(242,26,o),
(148,125,o),
(148,267,cs)
);
},
{
closed = 1;
nodes = (
(401,-121,o),
(587,-196,o),
(756,-196,cs),
(873,-196,o),
(984,-170,o),
(1051,-129,c),
(1040,-110,l),
(971,-136,o),
(889,-149,o),
(808,-149,cs),
(655,-149,o),
(503,-81,o),
(431,25,c),
(310,10,l)
);
}
);
width = 696;
}
);
metricWidth = O;
},
{
color = 2;
glyphname = R.sc;
lastChange = "2025-01-11 07:08:04 +0000";
layers = (
{
anchors = (
{
name = bottom;
pos = (298,0);
},
{
name = top;
pos = (298,517);
}
);
background = {
shapes = (
{
closed = 1;
nodes = (
(20,0,l),
(303,0,l),
(303,40,l),
(258,40,o),
(223,38,o),
(204,54,cs),
(195,62,o),
(190,73,o),
(190,91,cs),
(188,307,o),
(187,377,o),
(191,574,c),
(208,576,o),
(260,576,o),
(283,576,c),
(283,616,l),
(20,616,l),
(20,591,l),
(54,581,o),
(78,582,o),
(92,572,cs),
(102,565,o),
(107,552,o),
(107,525,cs),
(108,341,o),
(109,253,o),
(109,312,cs),
(109,373,o),
(108,282,o),
(107,91,cs),
(107,65,o),
(101,51,o),
(92,43,cs),
(76,29,o),
(50,31,o),
(20,25,c)
);
}
);
};
color = 2;
layerId = m005;
shapes = (
{
closed = 1;
nodes = (
(327,235,o),
(435,296,o),
(435,385,cs),
(435,463,o),
(358,523,o),
(256,520,c),
(237,483,l),
(302,484,o),
(352,443,o),
(352,375,cs),
(352,304,o),
(279,271,o),
(172,271,c),
(172,236,l)
);
},
{
closed = 1;
nodes = (
(275,-1,l),
(275,24,l),
(238,27,o),
(203,35,o),
(193,46,cs),
(184,54,o),
(183,66,o),
(183,89,cs),
(183,313,o),
(182,380,o),
(186,481,c),
(242,483,l),
(261,520,l),
(215,519,o),
(188,518,o),
(142,518,cs),
(105,518,o),
(66,519,o),
(24,520,c),
(24,496,l),
(56,490,o),
(85,485,o),
(96,475,cs),
(104,466,o),
(105,451,o),
(105,430,cs),
(107,316,o),
(107,200,o),
(105,87,cs),
(105,59,o),
(102,46,o),
(92,38,cs),
(81,30,o),
(61,28,o),
(23,22,c),
(23,-1,l)
);
},
{
closed = 1;
nodes = (
(590,16,l),
(526,21,o),
(411,131,o),
(322,285,c),
(249,256,l),
(327,103,o),
(427,-5,o),
(494,-4,cs),
(590,-1,l)
);
}
);
width = 580;
}
);
},
{
color = 2;
glyphname = S.sc;
lastChange = "2025-01-11 07:08:04 +0000";
layers = (
{
anchors = (
{
name = bottom;
pos = (232,0);
},
{
name = top;
pos = (232,517);
}
);
color = 4;
layerId = m005;
shapes = (
{
closed = 1;
nodes = (
(325,-9,o),
(408,57,o),
(408,146,cs),
(408,286,o),
(126,296,o),
(129,412,cs),
(130,456,o),
(168,487,o),
(229,487,cs),
(297,487,o),
(340,449,o),
(334,395,c),
(372,395,l),
(371,441,o),
(372,485,o),
(376,498,c),
(331,513,o),
(268,525,o),
(229,525,cs),
(124,525,o),
(56,462,o),
(56,375,cs),
(56,228,o),
(332,234,o),
(332,114,cs),
(332,63,o),
(282,29,o),
(207,30,cs),
(138,32,o),
(93,89,o),
(95,166,c),
(55,166,l),
(58,147,o),
(59,87,o),
(58,30,c),
(117,8,o),
(179,-9,o),
(207,-9,cs)
);
}
);
width = 447;
}
);
},
{
color = 2;
glyphname = Germandbls.sc;
lastChange = "2025-01-11 07:08:04 +0000";
layers = (
{
anchors = (
{
name = bottom;
pos = (282,0);
},
{
name = top;
pos = (282,517);
}
);
color = 10;
layerId = m005;
shapes = (
{
closed = 1;
nodes = (
(188,-1,l),
(188,58,ls),
(188,223,o),
(189,361,o),
(187,411,cs),
(186,485,l),
(272,485,l),
(322,518,l),
(148,518,ls),
(106,518,o),
(56,519,o),
(23,521,c),
(23,498,l),
(85,485,o),
(107,488,o),
(108,438,cs),
(110,310,o),
(108,186,o),
(108,58,cs),
(108,33,o),
(75,29,o),
(23,16,c),
(23,-1,l)
);
},
{
closed = 1;
nodes = (
(465,-6,o),
(524,42,o),
(524,108,cs),
(524,208,o),
(354,216,o),
(354,281,cs),
(354,349,o),
(467,361,o),
(467,430,cs),
(467,481,o),
(404,518,o),
(317,518,c),
(267,485,l),
(338,486,o),
(389,456,o),
(389,412,cs),
(389,361,o),
(284,345,o),
(284,260,cs),
(284,159,o),
(450,163,o),
(450,87,cs),
(450,44,o),
(423,16,o),
(382,19,cs),
(338,23,o),
(305,56,o),
(299,103,c),
(270,103,l),
(272,90,o),
(272,46,o),
(271,4,c),
(294,-2,o),
(341,-6,o),
(382,-6,cs)
);
}
);
width = 546;
}
);
},
{
color = 2;
glyphname = T.sc;
lastChange = "2025-01-11 07:08:04 +0000";
layers = (
{
anchors = (
{
name = bottom;
pos = (290,0);
},
{
name = center;
pos = (290,259);
},
{
name = top;
pos = (290,517);
}
);
background = {
shapes = (
{
closed = 1;
nodes = (
(196,0,l),
(441,0,l),
(441,18,l),
(395,31,o),
(372,33,o),
(363,52,cs),
(359,60,o),
(358,73,o),
(358,91,cs),
(357,164,o),
(357,237,o),
(356,310,cs),
(355,382,o),
(357,453,o),
(358,525,cs),
(358,561,o),
(364,575,o),
(385,585,cs),
(396,590,o),
(414,591,o),
(441,598,c),
(441,616,l),
(196,616,l),
(196,598,l),
(242,585,o),
(265,583,o),
(274,565,cs),
(278,556,o),
(280,543,o),
(280,525,cs),
(281,454,o),
(282,383,o),
(282,312,cs),
(282,238,o),
(281,165,o),
(280,91,cs),
(280,55,o),
(273,42,o),
(252,32,cs),
(241,27,o),
(223,25,o),
(196,18,c)
);
}
);
};
color = 4;
layerId = m005;
shapes = (
{
closed = 1;
nodes = (
(441,-1,l),
(441,25,l),
(372,36,o),
(330,39,o),
(328,84,cs),
(323,221,o),
(323,364,o),
(328,501,c),
(302,470,l),
(362,470,o),
(428,470,o),
(454,470,cs),
(488,470,o),
(529,470,o),
(533,374,c),
(573,378,l),
(572,434,o),
(568,487,o),
(558,541,c),
(545,541,l),
(494,518,l),
(350,516,o),
(210,516,o),
(79,518,c),
(34,551,l),
(25,544,l),
(14,488,o),
(8,433,o),
(6,375,c),
(46,374,l),
(51,471,o),
(81,470,o),
(140,470,cs),
(281,470,l),
(250,500,l),
(252,396,o),
(252,123,o),
(250,84,cs),
(248,45,o),
(210,35,o),
(139,25,c),
(139,-1,l)
);
}
);
width = 563;
}
);
},
{
color = 2;
glyphname = U.sc;
lastChange = "2025-01-11 07:08:04 +0000";
layers = (
{
anchors = (
{
name = bottom;
pos = (323,0);
},
{
name = ogonek;
pos = (445,8);
},
{
name = top;
pos = (339,517);
},
{
name = topright;
pos = (563,460);
}
);
color = 1;
layerId = m005;
shapes = (
{
closed = 1;
nodes = (
(473,-10,o),
(555,49,o),
(557,167,cs),
(559,281,o),
(556,362,o),
(557,432,cs),
(558,486,o),
(579,493,o),
(623,493,c),
(623,518,l),
(437,518,l),
(437,496,l),
(483,489,o),
(513,465,o),
(514,404,cs),
(515,325,o),
(516,250,o),
(514,171,cs),
(512,78,o),
(450,36,o),
(347,36,cs),
(237,36,o),
(184,77,o),
(169,154,cs),
(168,163,o),
(167,268,o),
(167,423,cs),
(167,479,o),
(196,493,o),
(242,496,c),
(242,518,l),
(23,518,l),
(23,490,l),
(51,485,o),
(89,476,o),
(89,429,cs),
(89,408,o),
(89,304,o),
(89,165,cs),
(89,47,o),
(175,-10,o),
(320,-10,cs)
);
}
);
width = 596;
}
);
},
{
color = 2;
glyphname = V.sc;
lastChange = "2025-01-11 07:08:04 +0000";
layers = (
{
anchors = (
{
name = bottom;
pos = (331,0);
},
{
name = top;
pos = (331,517);
}
);
color = 4;
layerId = m005;
shapes = (
{
closed = 1;
nodes = (
(333,-21,l),
(397,128,o),
(516,373,o),
(541,424,cs),
(566,475,o),
(598,485,o),
(656,493,c),
(656,518,l),
(422,518,l),
(422,497,l),
(470,491,o),
(501,481,o),
(501,456,cs),
(501,438,o),
(489,410,o),
(475,380,cs),
(325,54,l),
(354,76,l),
(300,188,o),
(215,403,o),
(209,417,cs),
(203,430,o),
(198,444,o),
(198,456,cs),
(198,469,o),
(195,488,o),
(275,495,c),
(275,518,l),
(6,518,l),
(6,493,l),
(50,486,o),
(93,480,o),
(124,411,cs),
(317,-21,l)
);
}
);
width = 646;
}
);
},
{
color = 2;
glyphname = W.sc;
lastChange = "2025-01-11 07:08:04 +0000";
layers = (
{
anchors = (
{
name = bottom;
pos = (447,0);
},
{
name = top;
pos = (447,517);
}
);
color = 4;
layerId = m005;
shapes = (
{
closed = 1;
nodes = (
(466,398,l),
(320,59,l),
(355,82,l),
(205,417,ls),
(180,472,o),
(165,488,o),
(242,495,c),
(242,518,l),
(23,518,l),
(23,493,l),
(49,485,o),
(93,480,o),
(124,411,cs),
(318,-21,l),
(334,-21,l),
(373,90,o),
(450,254,o),
(489,353,c)
);
},
{
closed = 1;
nodes = (
(622,-21,l),
(684,128,o),
(786,373,o),
(807,424,cs),
(828,475,o),
(827,483,o),
(888,493,c),
(888,518,l),
(702,518,l),
(702,495,l),
(778,479,o),
(774,448,o),
(745,380,cs),
(610,54,l),
(648,83,l),
(603,196,o),
(520,403,o),
(515,417,cs),
(493,480,o),
(494,488,o),
(557,495,c),
(557,518,l),
(354,518,l),
(354,495,l),
(381,490,o),
(408,480,o),
(436,411,cs),
(606,-21,l)
);
}
);
width = 878;
}
);
},
{
color = 2;
glyphname = X.sc;
lastChange = "2025-01-11 07:08:04 +0000";
layers = (
{
anchors = (
{
name = bottom;
pos = (298,0);
},
{
name = top;
pos = (298,517);
}
);
color = 4;
guides = (
{
angle = 53;
pos = (574,661);
}
);
layerId = m005;
shapes = (
{
closed = 1;
nodes = (
(573,-1,l),
(573,25,l),
(533,29,o),
(533,24,o),
(475,97,cs),
(322,290,o),
(326,290,o),
(215,431,cs),
(195,454,o),
(189,466,o),
(189,475,cs),
(189,488,o),
(202,491,o),
(233,495,c),
(233,518,l),
(23,518,l),
(23,493,l),
(54,493,o),
(69,494,o),
(129,414,cs),
(264,234,o),
(269,234,o),
(383,87,c),
(403,64,o),
(412,49,o),
(412,39,cs),
(412,26,o),
(390,25,o),
(349,22,c),
(349,-1,l)
);
},
{
closed = 1;
nodes = (
(209,-1,l),
(209,22,l),
(180,25,o),
(159,27,o),
(159,45,cs),
(159,56,o),
(165,67,o),
(186,93,cs),
(311,256,l),
(277,279,l),
(121,86,ls),
(64,14,o),
(55,27,o),
(23,25,c),
(23,-1,l)
);
},
{
closed = 1;
nodes = (
(459,422,ls),
(516,491,o),
(538,490,o),
(573,493,c),
(573,518,l),
(387,518,l),
(387,495,l),
(412,493,o),
(429,492,o),
(429,476,cs),
(429,462,o),
(412,435,o),
(374,390,cs),
(289,283,l),
(324,260,l)
);
}
);
width = 580;
}
);
},
{
color = 2;
glyphname = Y.sc;
lastChange = "2025-01-11 07:08:04 +0000";
layers = (
{
anchors = (
{
name = bottom;
pos = (257,0);
},
{
name = top;
pos = (257,517);
},
{
name = topleft;
pos = (27,517);
}
);
color = 4;
layerId = m005;
shapes = (
{
closed = 1;
nodes = (
(391,-1,l),
(391,25,l),
(342,29,o),
(300,26,o),
(300,78,cs),
(300,284,l),
(281,204,l),
(410,427,ls),
(452,499,o),
(498,492,o),
(507,493,c),
(507,518,l),
(321,518,l),
(321,495,l),
(388,487,o),
(392,475,o),
(362,424,cs),
(267,256,l),
(284,257,l),
(255,319,o),
(193,415,o),
(180,441,cs),
(153,492,o),
(162,490,o),
(226,495,c),
(226,518,l),
(23,518,l),
(23,493,l),
(38,494,o),
(69,488,o),
(81,466,cs),
(234,191,l),
(221,272,l),
(221,78,ls),
(221,32,o),
(165,29,o),
(122,25,c),
(122,-1,l)
);
}
);
width = 497;
}
);
},
{
color = 2;
glyphname = Z.sc;
lastChange = "2025-01-11 07:08:04 +0000";
layers = (
{
anchors = (
{
name = bottom;
pos = (306,0);
},
{
name = center;
pos = (306,259);
},
{
name = top;
pos = (306,517);
}
);
color = 4;
layerId = m005;
shapes = (
{
closed = 1;
nodes = (
(164,-1,o),
(345,0,o),
(372,0,cs),
(399,0,o),
(467,0,o),
(502,-3,c),
(527,48,o),
(548,120,o),
(557,177,c),
(521,177,l),
(511,129,o),
(474,37,o),
(339,35,cs),
(141,33,l),
(146,16,l),
(531,499,l),
(519,523,l),
(450,518,o),
(305,518,o),
(261,518,cs),
(207,518,o),
(112,514,o),
(76,519,c),
(68,466,o),
(62,412,o),
(61,358,c),
(91,358,l),
(100,400,o),
(89,483,o),
(213,483,cs),
(283,483,o),
(392,481,o),
(445,479,c),
(432,504,l),
(39,10,l),
(48,-1,l)
);
}
);
width = 596;
}
);
},
{
glyphname = zero;
lastChange = "2025-01-10 18:15:23 +0000";
layers = (
{
hints = (
{
horizontal = 1;
place = (414,37);
type = Stem;
},
{
horizontal = 1;
place = (-8,37);
type = Stem;
},
{
place = (402,84);
type = Stem;
},
{
place = (34,84);
type = Stem;
}
);
layerId = m005;
shapes = (
{
closed = 1;
nodes = (
(363,-11,o),
(449,130,o),
(449,329,cs),
(449,512,o),
(363,641,o),
(241,641,cs),
(121,641,o),
(36,512,o),
(36,329,cs),
(36,130,o),
(121,-11,o),
(241,-11,cs)
);
},
{
closed = 1;
nodes = (
(197,22,o),
(133,141,o),
(117,316,cs),
(105,474,o),
(142,591,o),
(209,599,cs),
(290,606,o),
(354,499,o),
(365,340,cs),
(379,166,o),
(340,37,o),
(272,29,cs)
);
}
);
width = 486;
}
);
unicode = 48;
},
{
glyphname = one;
lastChange = "2025-01-10 20:11:38 +0000";
layers = (
{
hints = (
{
horizontal = 1;
place = (415,33);
type = Stem;
},
{
horizontal = 1;
place = (0,34);
type = Stem;
},
{
place = (119,75);
type = Stem;
}
);
layerId = m005;
shapes = (
{
closed = 1;
nodes = (
(192,3,o),
(294,3,o),
(396,0,c),
(396,24,l),
(378,28,o),
(317,37,o),
(306,45,cs),
(289,58,o),
(279,78,o),
(279,103,cs),
(279,137,o),
(279,403,o),
(279,478,cs),
(279,530,o),
(283,604,o),
(289,645,c),
(87,590,l),
(87,567,l),
(138,567,o),
(207,574,o),
(207,512,cs),
(207,451,o),
(207,107,o),
(207,84,cs),
(207,73,o),
(197,60,o),
(179,48,cs),
(171,42,o),
(140,34,o),
(90,25,c),
(90,0,l)
);
}
);
width = 486;
}
);
unicode = 49;
},
{
glyphname = two;
lastChange = "2025-01-10 20:11:52 +0000";
layers = (
{
background = {
hints = (
{
horizontal = 1;
place = (392,61);
type = Stem;
},
{
horizontal = 1;
place = (0,65);
type = Stem;
},
{
place = (247,-165);
type = Stem;
},
{
horizontal = 1;
place = (392,61);
type = Stem;
},
{
horizontal = 1;
place = (0,65);
type = Stem;
},
{
place = (247,-165);
type = Stem;
}
);
shapes = (
{
closed = 1;
nodes = (
(137,339,o),
(156,366,o),
(178,377,cs),
(266,422,o),
(338,498,o),
(338,560,cs),
(338,614,o),
(287,652,o),
(230,652,cs),
(185,652,o),
(124,617,o),
(82,567,c),
(98,545,l),
(126,571,o),
(172,590,o),
(199,590,cs),
(229,590,o),
(251,565,o),
(251,530,cs),
(251,483,o),
(193,414,o),
(110,362,c),
(126,332,l)
);
},
{
closed = 1;
nodes = (
(414,0,l),
(462,99,l),
(348,79,o),
(234,68,o),
(120,68,c),
(123,41,l),
(274,163,o),
(393,244,o),
(393,331,cs),
(393,418,o),
(333,451,o),
(258,451,cs),
(184,451,o),
(123,401,o),
(96,360,c),
(123,340,l),
(156,371,o),
(195,389,o),
(222,389,cs),
(269,389,o),
(302,354,o),
(302,315,cs),
(302,263,o),
(250,194,o),
(177,131,cs),
(47,18,l),
(53,0,l)
);
}
);
};
hints = (
{
horizontal = 1;
place = (392,61);
type = Stem;
},
{
horizontal = 1;
place = (0,65);
type = Stem;
},
{
place = (247,92);
type = Stem;
}
);
layerId = m005;
shapes = (
{
closed = 1;
nodes = (
(414,0,l),
(462,99,l),
(362,79,o),
(217,68,o),
(117,68,c),
(121,45,l),
(279,230,o),
(396,365,o),
(396,480,cs),
(396,582,o),
(331,654,o),
(247,654,cs),
(182,654,o),
(108,605,o),
(78,538,c),
(96,524,l),
(124,563,o),
(171,590,o),
(211,590,cs),
(267,590,o),
(313,534,o),
(313,456,cs),
(313,337,o),
(242,252,o),
(166,161,cs),
(47,18,l),
(53,0,l)
);
}
);
width = 486;
}
);
unicode = 50;
},
{
glyphname = three;
lastChange = "2025-01-10 18:15:23 +0000";
layers = (
{
hints = (
{
horizontal = 1;
place = (387,62);
type = Stem;
},
{
horizontal = 1;
place = (145,47);
type = Stem;
},
{
horizontal = 1;
place = (-238,77);
type = Stem;
},
{
place = (213,88);
type = Stem;
}
);
layerId = m005;
shapes = (
{
closed = 1;
nodes = (
(264,7,o),
(384,143,o),
(384,270,cs),
(384,341,o),
(339,391,o),
(275,391,cs),
(249,391,o),
(213,382,o),
(188,370,cs),
(214,385,o),
(193,381,o),
(137,362,c),
(153,332,l),
(169,340,o),
(195,346,o),
(215,346,cs),
(268,346,o),
(306,302,o),
(306,239,cs),
(306,156,o),
(215,52,o),
(87,1,c),
(95,-32,l)
);
},
{
closed = 1;
nodes = (
(164,339,o),
(183,366,o),
(205,377,cs),
(293,422,o),
(365,498,o),
(365,560,cs),
(365,614,o),
(314,652,o),
(257,652,cs),
(212,652,o),
(151,617,o),
(109,567,c),
(125,545,l),
(153,571,o),
(199,590,o),
(226,590,cs),
(256,590,o),
(278,565,o),
(278,530,cs),
(278,483,o),
(220,414,o),
(137,362,c),
(153,332,l)
);
}
);
width = 486;
}
);
unicode = 51;
},
{
glyphname = four;
lastChange = "2025-01-10 18:15:23 +0000";
layers = (
{
hints = (
{
horizontal = 1;
place = (0,54);
type = Stem;
},
{
horizontal = 1;
place = (420,21);
target = up;
type = BottomGhost;
},
{
place = (309,77);
type = Stem;
}
);
layerId = m005;
shapes = (
{
closed = 1;
nodes = (
(374,1,l),
(374,214,o),
(374,428,o),
(379,641,c),
(334,641,l),
(31,259,l),
(31,215,l),
(178,215,o),
(307,209,o),
(454,205,c),
(454,281,l),
(317,278,o),
(197,275,o),
(60,275,c),
(63,244,l),
(331,580,l),
(304,558,l),
(294,372,o),
(294,201,o),
(294,1,c)
);
}
);
width = 486;
}
);
unicode = 52;
},
{
glyphname = five;
lastChange = "2025-01-10 18:15:23 +0000";
layers = (
{
hints = (
{
horizontal = 1;
place = (376,68);
type = Stem;
},
{
place = (188,77);
type = Stem;
}
);
layerId = m005;
shapes = (
{
closed = 1;
nodes = (
(249,22,o),
(364,147,o),
(364,264,cs),
(364,362,o),
(272,463,o),
(142,508,c),
(141,475,l),
(193,612,l),
(155,569,l),
(237,574,o),
(319,570,o),
(401,559,c),
(437,641,l),
(173,641,l),
(105,458,l),
(215,393,o),
(292,300,o),
(292,232,cs),
(292,153,o),
(200,59,o),
(69,-2,c),
(86,-37,l)
);
}
);
width = 486;
}
);
unicode = 53;
},
{
glyphname = six;
lastChange = "2025-01-10 20:10:22 +0000";
layers = (
{
hints = (
{
horizontal = 1;
place = (317,50);
type = Stem;
},
{
horizontal = 1;
place = (-5,36);
type = Stem;
},
{
horizontal = 1;
place = (685,21);
target = up;
type = BottomGhost;
},
{
place = (347,80);
type = Stem;
},
{
place = (37,87);
type = Stem;
}
);
layerId = m005;
shapes = (
{
closed = 1;
nodes = (
(356,-11,o),
(439,74,o),
(439,195,cs),
(439,299,o),
(364,373,o),
(265,373,cs),
(229,373,o),
(188,357,o),
(166,335,c),
(182,312,l),
(194,321,o),
(216,328,o),
(234,328,cs),
(305,328,o),
(355,263,o),
(355,171,cs),
(355,88,o),
(309,29,o),
(245,29,cs),
(178,29,o),
(132,129,o),
(132,270,cs),
(132,439,o),
(273,597,o),
(476,666,c),
(460,710,l),
(218,626,o),
(46,433,o),
(46,238,cs),
(46,92,o),
(129,-11,o),
(246,-11,cs)
);
}
);
width = 486;
}
);
unicode = 54;
},
{
glyphname = seven;
lastChange = "2025-01-10 18:15:23 +0000";
layers = (
{
hints = (
{
horizontal = 1;
place = (375,66);
type = Stem;
}
);
layerId = m005;
shapes = (
{
closed = 1;
nodes = (
(123,-47,l),
(465,641,l),
(65,641,l),
(27,549,l),
(152,566,o),
(278,576,o),
(403,577,c),
(394,607,l),
(83,-16,l)
);
}
);
width = 486;
}
);
unicode = 55;
},
{
glyphname = eight;
lastChange = "2025-01-10 18:15:23 +0000";
layers = (
{
hints = (
{
horizontal = 1;
place = (659,47);
type = Stem;
},
{
horizontal = 1;
place = (-9,38);
type = Stem;
},
{
place = (303,64);
type = Stem;
},
{
place = (28,73);
type = Stem;
}
);
layerId = m005;
shapes = (
{
closed = 1;
nodes = (
(343,-11,o),
(419,59,o),
(419,159,c),
(419,313,o),
(153,383,o),
(153,503,cs),
(153,570,o),
(188,616,o),
(241,616,c),
(241,652,l),
(147,652,o),
(81,578,o),
(81,474,cs),
(81,313,o),
(349,232,o),
(349,131,c),
(349,69,o),
(302,25,o),
(235,25,c),
(235,-11,l)
);
},
{
closed = 1;
nodes = (
(235,25,l),
(174,25,o),
(131,77,o),
(131,151,cs),
(131,211,o),
(173,277,o),
(233,313,c),
(204,328,l),
(120,281,o),
(61,202,o),
(61,124,cs),
(61,45,o),
(133,-11,o),
(235,-11,c)
);
},
{
closed = 1;
nodes = (
(241,616,l),
(302,616,o),
(335,564,o),
(335,490,cs),
(335,431,o),
(293,373,o),
(233,337,c),
(262,322,l),
(346,369,o),
(405,440,o),
(405,517,cs),
(405,597,o),
(343,652,o),
(241,652,c)
);
}
);
width = 486;
}
);
unicode = 56;
},
{
glyphname = nine;
lastChange = "2025-01-10 20:10:27 +0000";
layers = (
{
hints = (
{
horizontal = 1;
place = (411,37);
type = Stem;
},
{
horizontal = 1;
place = (82,51);
type = Stem;
},
{
place = (331,87);
type = Stem;
},
{
place = (33,79);
type = Stem;
}
);
layerId = m005;
shapes = (
{
closed = 1;
nodes = (
(130,652,o),
(47,574,o),
(47,463,cs),
(47,367,o),
(122,300,o),
(221,300,cs),
(257,300,o),
(298,314,o),
(320,334,c),
(304,355,l),
(292,347,o),
(270,341,o),
(252,341,cs),
(181,341,o),
(131,400,o),
(131,485,cs),
(131,561,o),
(177,615,o),
(241,615,cs),
(308,615,o),
(354,523,o),
(354,394,cs),
(354,239,o),
(213,67,o),
(10,3,c),
(26,-37,l),
(268,40,o),
(440,244,o),
(440,423,cs),
(440,557,o),
(357,652,o),
(240,652,cs)
);
}
);
width = 486;
}
);
unicode = 57;
},
{
glyphname = zero.bsf;
lastChange = "2025-01-10 04:23:43 +0000";
layers = (
{
color = 4;
layerId = m005;
shapes = (
{
closed = 1;
nodes = (
(363,-11,o),
(450,81,o),
(450,212,cs),
(450,343,o),
(363,435,o),
(243,435,cs),
(120,435,o),
(36,344,o),
(36,213,cs),
(36,82,o),
(120,-11,o),
(243,-11,cs)
);
},
{
closed = 1;
nodes = (
(166,17,o),
(124,86,o),
(124,210,cs),
(124,337,o),
(166,407,o),
(243,407,cs),
(317,407,o),
(362,339,o),
(362,217,cs),
(362,88,o),
(317,17,o),
(243,17,cs)
);
}
);
width = 486;
}
);
},
{
glyphname = one.bsf;
lastChange = "2025-01-10 04:24:24 +0000";
layers = (
{
background = {
shapes = (
{
closed = 0;
nodes = (
(215,68,ls),
(213,39,o),
(191,32,o),
(150,18,c),
(150,0,l),
(353,0,l),
(353,18,l),
(312,32,o),
(287,39,o),
(287,68,cs)
);
}
);
};
color = 1;
layerId = m005;
shapes = (
{
closed = 1;
nodes = (
(373,0,l),
(373,20,l),
(324,39,o),
(293,25,o),
(291,89,cs),
(286,264,o),
(286,268,o),
(298,443,c),
(276,449,l),
(80,381,l),
(88,346,l),
(252,369,l),
(212,389,l),
(216,236,o),
(218,127,o),
(215,89,cs),
(210,25,o),
(194,39,o),
(132,20,c),
(132,0,l)
);
}
);
width = 486;
}
);
},
{
glyphname = two.bsf;
lastChange = "2025-01-10 04:23:47 +0000";
layers = (
{
background = {
shapes = (
{
closed = 1;
nodes = (
(101,439,o),
(26,397,o),
(26,338,cs),
(26,314,o),
(48,297,o),
(80,297,cs),
(108,297,o),
(127,310,o),
(127,329,cs),
(127,344,o),
(96,338,o),
(96,360,cs),
(96,390,o),
(135,411,o),
(190,411,c),
(207,439,l)
);
},
{
closed = 1;
nodes = (
(414,0,l),
(430,118,l),
(414,118,l),
(412,103,o),
(397,73,o),
(390,73,c)
);
}
);
};
color = 4;
layerId = m005;
shapes = (
{
closed = 1;
nodes = (
(407,0,l),
(432,134,l),
(409,134,l),
(401,109,o),
(377,74,o),
(361,73,cs),
(67,55,l),
(75,49,l),
(73,127,o),
(400,143,o),
(406,312,cs),
(409,386,o),
(324,439,o),
(207,439,c),
(208,399,l),
(271,399,o),
(318,363,o),
(318,311,cs),
(318,193,o),
(18,127,o),
(18,49,c),
(18,0,l)
);
},
{
closed = 1;
nodes = (
(101,439,o),
(26,379,o),
(26,295,cs),
(26,260,o),
(48,236,o),
(80,236,cs),
(108,236,o),
(127,255,o),
(127,282,cs),
(127,303,o),
(96,295,o),
(96,326,cs),
(96,369,o),
(142,399,o),
(208,399,c),
(207,439,l)
);
}
);
width = 468;
}
);
},
{
glyphname = three.bsf;
lastChange = "2025-01-10 04:23:57 +0000";
layers = (
{
background = {
shapes = (
{
closed = 1;
nodes = (
(41,472,o),
(50,439,o),
(68,421,cs),
(91,399,o),
(160,461,o),
(139,484,cs),
(130,495,o),
(113,499,o),
(100,508,cs),
(89,517,o),
(82,526,o),
(82,549,c),
(41,513,l)
);
}
);
};
color = 4;
layerId = m005;
shapes = (
{
closed = 1;
nodes = (
(342,-199,o),
(432,-130,o),
(432,-32,cs),
(432,62,o),
(357,128,o),
(254,128,c),
(253,123,l),
(346,123,o),
(414,194,o),
(414,294,cs),
(414,379,o),
(339,439,o),
(235,439,c),
(218,399,l),
(279,399,o),
(326,352,o),
(326,286,cs),
(326,203,o),
(256,144,o),
(164,144,c),
(164,105,l),
(267,105,o),
(344,52,o),
(344,-22,cs),
(344,-102,o),
(286,-159,o),
(211,-159,cs),
(150,-159,o),
(106,-129,o),
(106,-86,cs),
(106,-55,o),
(137,-63,o),
(137,-42,cs),
(137,-15,o),
(118,4,o),
(90,4,cs),
(58,4,o),
(36,-20,o),
(36,-55,cs),
(36,-139,o),
(111,-199,o),
(217,-199,cs)
);
},
{
closed = 1;
nodes = (
(129,439,o),
(54,379,o),
(54,295,cs),
(54,260,o),
(76,236,o),
(108,236,cs),
(136,236,o),
(155,255,o),
(155,282,cs),
(155,303,o),
(124,295,o),
(124,326,cs),
(124,369,o),
(157,399,o),
(218,399,c),
(235,439,l)
);
}
);
width = 486;
}
);
},
{
glyphname = four.bsf;
lastChange = "2025-01-10 04:23:52 +0000";
layers = (
{
color = 4;
guides = (
{
pos = (339,-171);
}
);
layerId = m005;
shapes = (
{
closed = 1;
nodes = (
(373,-171,l),
(373,460,l),
(276,435,l),
(18,0,l),
(486,0,l),
(486,60,l),
(74,60,l),
(85,44,l),
(313,418,l),
(301,420,l),
(295,257,o),
(295,-149,o),
(293,-171,c)
);
}
);
width = 522;
}
);
},
{
glyphname = five.bsf;
lastChange = "2025-01-10 04:24:19 +0000";
layers = (
{
background = {
shapes = (
{
closed = 1;
nodes = (
(369,-11,o),
(463,81,o),
(463,210,cs),
(463,318,o),
(383,395,o),
(269,395,cs),
(158,395,o),
(80,310,o),
(80,190,c),
(118,208,l),
(118,294,o),
(174,354,o),
(252,354,cs),
(323,354,o),
(373,291,o),
(373,201,cs),
(373,100,o),
(323,29,o),
(252,29,cs),
(174,29,o),
(118,103,o),
(118,208,cs),
(118,373,o),
(229,534,o),
(386,597,c),
(368,642,l),
(170,563,o),
(30,383,o),
(30,208,cs),
(30,80,o),
(115,-11,o),
(236,-11,cs)
);
}
);
};
color = 4;
layerId = m005;
shapes = (
{
closed = 1;
nodes = (
(355,-188,o),
(450,-94,o),
(450,39,cs),
(450,143,o),
(372,217,o),
(274,217,cs),
(202,217,o),
(145,183,o),
(124,144,c),
(135,144,l),
(160,395,l),
(143,376,l),
(397,367,l),
(421,501,l),
(405,501,l),
(401,475,o),
(383,440,o),
(373,440,c),
(119,439,l),
(87,111,l),
(141,113,l),
(157,146,o),
(199,176,o),
(254,176,cs),
(311,176,o),
(362,111,o),
(362,20,cs),
(362,-78,o),
(308,-148,o),
(246,-148,c),
(233,-188,l)
);
},
{
closed = 1;
nodes = (
(246,-148,l),
(185,-148,o),
(142,-118,o),
(142,-75,cs),
(142,-44,o),
(173,-52,o),
(173,-31,cs),
(173,-4,o),
(154,15,o),
(126,15,cs),
(94,15,o),
(72,-9,o),
(72,-44,cs),
(72,-128,o),
(139,-188,o),
(233,-188,c)
);
},
{
closed = 1;
nodes = (
(397,367,l),
(422,501,l),
(399,501,l),
(391,475,o),
(366,441,o),
(351,440,c)
);
}
);
width = 522;
}
);
},
{
glyphname = six.bsf;
lastChange = "2025-01-10 04:24:00 +0000";
layers = (
{
color = 4;
layerId = m005;
shapes = (
{
closed = 1;
nodes = (
(374,-11,o),
(468,81,o),
(468,210,cs),
(468,318,o),
(388,395,o),
(274,395,cs),
(163,395,o),
(84,310,o),
(84,190,c),
(122,208,l),
(122,294,o),
(179,354,o),
(257,354,cs),
(328,354,o),
(380,291,o),
(380,201,cs),
(380,100,o),
(328,29,o),
(257,29,cs),
(179,29,o),
(122,103,o),
(122,208,cs),
(122,373,o),
(234,534,o),
(391,597,c),
(373,642,l),
(175,563,o),
(36,383,o),
(36,208,cs),
(36,80,o),
(120,-11,o),
(241,-11,cs)
);
}
);
width = 504;
}
);
},
{
glyphname = seven.bsf;
lastChange = "2025-01-10 04:24:15 +0000";
layers = (
{
color = 4;
layerId = m005;
shapes = (
{
closed = 1;
nodes = (
(238,-177,l),
(281,75,o),
(364,318,o),
(486,411,c),
(470,439,l),
(36,439,l),
(55,273,l),
(82,277,l),
(71,334,o),
(90,369,o),
(122,369,cs),
(401,369,l),
(403,392,l),
(259,214,o),
(174,-22,o),
(149,-177,c)
);
}
);
width = 504;
}
);
},
{
glyphname = eight.bsf;
lastChange = "2025-01-10 04:24:04 +0000";
layers = (
{
color = 4;
layerId = m005;
shapes = (
{
closed = 1;
nodes = (
(377,-11,o),
(468,66,o),
(468,176,cs),
(468,270,o),
(379,337,o),
(259,337,cs),
(136,337,o),
(54,268,o),
(54,171,cs),
(54,64,o),
(134,-11,o),
(254,-11,cs)
);
},
{
closed = 1;
nodes = (
(192,29,o),
(142,89,o),
(142,174,cs),
(142,247,o),
(189,299,o),
(259,299,cs),
(326,299,o),
(380,246,o),
(380,170,cs),
(380,87,o),
(329,29,o),
(266,29,cs)
);
},
{
closed = 1;
nodes = (
(364,303,o),
(440,375,o),
(440,476,cs),
(440,564,o),
(363,626,o),
(260,626,cs),
(149,626,o),
(76,560,o),
(76,466,cs),
(76,371,o),
(151,303,o),
(263,303,cs)
);
},
{
closed = 1;
nodes = (
(194,340,o),
(156,394,o),
(156,470,cs),
(156,538,o),
(192,586,o),
(250,586,cs),
(312,586,o),
(360,538,o),
(360,470,cs),
(360,394,o),
(314,340,o),
(255,340,cs)
);
}
);
width = 522;
}
);
},
{
glyphname = nine.bsf;
lastChange = "2025-01-10 04:24:11 +0000";
layers = (
{
background = {
shapes = (
{
closed = 1;
nodes = (
(148,627,o),
(54,535,o),
(54,406,cs),
(54,298,o),
(134,221,o),
(248,221,cs),
(359,221,o),
(437,306,o),
(437,426,c),
(399,408,l),
(399,322,o),
(343,262,o),
(265,262,cs),
(194,262,o),
(144,325,o),
(144,415,cs),
(144,516,o),
(194,587,o),
(265,587,cs),
(343,587,o),
(399,513,o),
(399,408,cs),
(399,243,o),
(288,82,o),
(131,19,c),
(149,-26,l),
(347,53,o),
(487,233,o),
(487,408,cs),
(487,536,o),
(402,627,o),
(281,627,cs)
);
}
);
};
color = 4;
layerId = m005;
shapes = (
{
closed = 1;
nodes = (
(147,439,o),
(54,347,o),
(54,218,cs),
(54,110,o),
(133,33,o),
(247,33,cs),
(358,33,o),
(438,118,o),
(438,238,c),
(400,220,l),
(400,134,o),
(342,74,o),
(264,74,cs),
(193,74,o),
(142,137,o),
(142,227,cs),
(142,328,o),
(193,399,o),
(264,399,cs),
(342,399,o),
(400,325,o),
(400,220,cs),
(400,55,o),
(287,-106,o),
(131,-169,c),
(149,-214,l),
(346,-135,o),
(486,45,o),
(486,220,cs),
(486,348,o),
(401,439,o),
(280,439,cs)
);
}
);
width = 540;
},
{
associatedMasterId = m005;
background = {
shapes = (
{
closed = 1;
nodes = (
(182,627,o),
(88,535,o),
(88,406,cs),
(88,298,o),
(168,221,o),
(282,221,cs),
(393,221,o),
(471,306,o),
(471,426,c),
(433,408,l),
(433,322,o),
(377,262,o),
(299,262,cs),
(228,262,o),
(178,325,o),
(178,415,cs),
(178,516,o),
(228,587,o),
(299,587,cs),
(377,587,o),
(433,513,o),
(433,408,cs),
(433,243,o),
(322,82,o),
(165,19,c),
(183,-26,l),
(381,53,o),
(521,233,o),
(521,408,cs),
(521,536,o),
(436,627,o),
(315,627,cs)
);
}
);
};
layerId = "8880FCC1-7A68-4D74-A1C2-63291C007941";
name = "29. Dez. 24, 15:16";
shapes = (
{
closed = 1;
nodes = (
(384,48,o),
(523,228,o),
(523,397,cs),
(523,530,o),
(432,624,o),
(303,624,cs),
(174,624,o),
(83,530,o),
(83,397,cs),
(83,283,o),
(159,203,o),
(266,203,cs),
(397,203,o),
(489,263,o),
(489,347,c),
(441,351,l),
(441,290,o),
(385,246,o),
(305,246,cs),
(226,246,o),
(170,319,o),
(170,423,cs),
(170,517,o),
(224,584,o),
(301,584,cs),
(379,584,o),
(434,497,o),
(434,373,cs),
(434,211,o),
(326,66,o),
(173,21,c),
(187,-39,l)
);
}
);
width = 600;
}
);
},
{
glyphname = zero.btf;
lastChange = "2025-01-10 04:44:37 +0000";
layers = (
{
layerId = m005;
shapes = (
{
closed = 1;
nodes = (
(442,-11,o),
(539,121,o),
(539,308,cs),
(539,495,o),
(442,627,o),
(305,627,cs),
(159,627,o),
(55,496,o),
(55,310,cs),
(55,122,o),
(159,-11,o),
(305,-11,cs)
);
},
{
closed = 1;
nodes = (
(194,85,o),
(98,185,o),
(98,330,cs),
(98,449,o),
(174,531,o),
(281,531,cs),
(407,531,o),
(496,432,o),
(496,288,cs),
(496,167,o),
(427,85,o),
(329,85,cs)
);
}
);
width = 594;
},
{
associatedMasterId = m005;
layerId = "60AE473C-F1EF-4626-9DDE-73952520C9B0";
name = "9. Jan. 25, 20:25";
shapes = (
{
closed = 1;
nodes = (
(442,-11,o),
(539,121,o),
(539,308,cs),
(539,495,o),
(442,627,o),
(305,627,cs),
(159,627,o),
(55,496,o),
(55,310,cs),
(55,122,o),
(159,-11,o),
(305,-11,cs)
);
},
{
closed = 1;
nodes = (
(211,29,o),
(145,143,o),
(145,305,cs),
(145,470,o),
(211,587,o),
(305,587,cs),
(389,587,o),
(449,474,o),
(449,315,cs),
(449,147,o),
(389,29,o),
(305,29,cs)
);
}
);
width = 594;
}
);
},
{
glyphname = one.btf;
lastChange = "2025-01-10 04:45:14 +0000";
layers = (
{
background = {
shapes = (
{
closed = 0;
nodes = (
(371,553,l),
(372,635,l),
(357,641,l),
(238,600,l)
);
}
);
};
layerId = m005;
shapes = (
{
closed = 1;
nodes = (
(465,0,l),
(465,20,l),
(416,31,o),
(343,31,o),
(341,103,cs),
(337,278,o),
(337,460,o),
(348,635,c),
(328,641,l),
(131,573,l),
(139,538,l),
(304,561,l),
(263,581,l),
(267,428,o),
(269,132,o),
(266,94,cs),
(261,32,o),
(197,37,o),
(135,20,c),
(135,0,l)
);
}
);
width = 594;
}
);
},
{
glyphname = two.btf;
lastChange = "2025-01-10 21:10:10 +0000";
layers = (
{
background = {
shapes = (
{
closed = 1;
nodes = (
(496,0,l),
(521,134,l),
(498,134,l),
(490,109,o),
(466,74,o),
(450,73,cs),
(150,55,l),
(158,49,l),
(156,127,o),
(489,143,o),
(489,312,cs),
(489,386,o),
(407,439,o),
(290,439,c),
(291,399,l),
(354,399,o),
(399,363,o),
(399,311,cs),
(399,193,o),
(101,127,o),
(101,49,c),
(101,0,l)
);
},
{
closed = 1;
nodes = (
(184,439,o),
(109,379,o),
(109,295,cs),
(109,260,o),
(131,236,o),
(163,236,cs),
(191,236,o),
(210,255,o),
(210,282,cs),
(210,303,o),
(179,295,o),
(179,326,cs),
(179,369,o),
(225,399,o),
(291,399,c),
(290,439,l)
);
}
);
};
guides = (
{
angle = 160;
lockAngle = 1;
pos = (609,-25);
},
{
angle = 160;
lockAngle = 1;
pos = (364,-93);
},
{
angle = 70;
pos = (340,-12);
},
{
angle = 70;
pos = (-32,121);
},
{
angle = 70;
pos = (109,429);
},
{
angle = 160;
lockAngle = 1;
pos = (586,525);
},
{
angle = 160;
lockAngle = 1;
pos = (582,365);
},
{
angle = 70;
pos = (61,-264);
},
{
angle = 73.2591;
pos = (13,-285);
}
);
layerId = m005;
shapes = (
{
closed = 1;
nodes = (
(496,0,l),
(521,134,l),
(498,134,l),
(485,98,o),
(463,74,o),
(447,73,cs),
(157,55,l),
(165,52,l),
(163,163,o),
(490,203,o),
(496,444,cs),
(499,549,o),
(414,625,o),
(297,625,c),
(298,585,l),
(361,585,o),
(408,516,o),
(408,442,cs),
(408,275,o),
(108,181,o),
(108,70,c),
(108,0,l)
);
},
{
closed = 1;
nodes = (
(191,625,o),
(116,557,o),
(116,449,cs),
(116,412,o),
(138,387,o),
(170,387,cs),
(198,387,o),
(217,407,o),
(217,435,cs),
(217,457,o),
(186,449,o),
(186,482,cs),
(186,543,o),
(232,585,o),
(298,585,c),
(297,625,l)
);
}
);
width = 594;
},
{
associatedMasterId = m005;
background = {
shapes = (
{
closed = 1;
nodes = (
(496,0,l),
(521,134,l),
(498,134,l),
(490,109,o),
(466,74,o),
(450,73,cs),
(150,55,l),
(158,49,l),
(156,127,o),
(489,143,o),
(489,312,cs),
(489,386,o),
(407,439,o),
(290,439,c),
(291,399,l),
(354,399,o),
(399,363,o),
(399,311,cs),
(399,193,o),
(101,127,o),
(101,49,c),
(101,0,l)
);
},
{
closed = 1;
nodes = (
(184,439,o),
(109,379,o),
(109,295,cs),
(109,260,o),
(131,236,o),
(163,236,cs),
(191,236,o),
(210,255,o),
(210,282,cs),
(210,303,o),
(179,295,o),
(179,326,cs),
(179,369,o),
(225,399,o),
(291,399,c),
(290,439,l)
);
}
);
};
layerId = "49480446-0703-4247-935C-64FD8A4C9124";
name = "9. Jan. 25, 19:41";
shapes = (
{
closed = 1;
nodes = (
(498,0,l),
(509,164,l),
(488,164,l),
(472,112,o),
(443,77,o),
(418,75,cs),
(160,55,l),
(168,49,l),
(166,97,o),
(491,279,o),
(491,468,cs),
(491,566,o),
(417,627,o),
(300,627,c),
(283,587,l),
(357,587,o),
(401,543,o),
(401,468,cs),
(401,280,o),
(103,97,o),
(103,49,c),
(103,0,l)
);
},
{
closed = 1;
nodes = (
(194,627,o),
(119,567,o),
(119,483,cs),
(119,448,o),
(141,424,o),
(173,424,cs),
(201,424,o),
(220,443,o),
(220,470,cs),
(220,491,o),
(189,483,o),
(189,514,cs),
(189,557,o),
(228,587,o),
(283,587,c),
(300,627,l)
);
}
);
width = 594;
}
);
},
{
glyphname = three.btf;
lastChange = "2025-01-10 04:45:07 +0000";
layers = (
{
background = {
shapes = (
{
closed = 1;
nodes = (
(414,-11,o),
(504,58,o),
(504,156,cs),
(504,250,o),
(429,316,o),
(323,316,c),
(322,311,l),
(418,311,o),
(486,382,o),
(486,482,cs),
(486,567,o),
(411,627,o),
(304,627,c),
(287,587,l),
(351,587,o),
(396,540,o),
(396,474,cs),
(396,391,o),
(328,332,o),
(233,332,c),
(233,293,l),
(339,293,o),
(414,240,o),
(414,166,cs),
(414,86,o),
(358,29,o),
(280,29,cs),
(219,29,o),
(175,59,o),
(175,102,cs),
(175,133,o),
(206,125,o),
(206,146,cs),
(206,173,o),
(187,192,o),
(159,192,cs),
(127,192,o),
(105,168,o),
(105,133,cs),
(105,49,o),
(180,-11,o),
(286,-11,cs)
);
},
{
closed = 1;
nodes = (
(198,627,o),
(123,567,o),
(123,483,cs),
(123,448,o),
(145,424,o),
(177,424,cs),
(205,424,o),
(224,443,o),
(224,470,cs),
(224,491,o),
(193,483,o),
(193,514,cs),
(193,557,o),
(226,587,o),
(287,587,c),
(304,627,l)
);
}
);
};
layerId = m005;
shapes = (
{
closed = 1;
nodes = (
(418,-11,o),
(508,58,o),
(508,156,cs),
(508,250,o),
(433,316,o),
(327,316,c),
(326,311,l),
(422,311,o),
(490,382,o),
(490,482,cs),
(490,567,o),
(415,627,o),
(308,627,c),
(291,587,l),
(355,587,o),
(400,540,o),
(400,474,cs),
(400,391,o),
(332,332,o),
(237,332,c),
(237,293,l),
(343,293,o),
(418,240,o),
(418,166,cs),
(418,86,o),
(362,29,o),
(284,29,cs),
(223,29,o),
(179,59,o),
(179,102,cs),
(179,133,o),
(210,125,o),
(210,146,cs),
(210,173,o),
(191,192,o),
(163,192,cs),
(131,192,o),
(109,168,o),
(109,133,cs),
(109,49,o),
(184,-11,o),
(290,-11,cs)
);
},
{
closed = 1;
nodes = (
(202,627,o),
(127,567,o),
(127,483,cs),
(127,448,o),
(149,424,o),
(181,424,cs),
(209,424,o),
(228,443,o),
(228,470,cs),
(228,491,o),
(197,483,o),
(197,514,cs),
(197,557,o),
(230,587,o),
(291,587,c),
(308,627,l)
);
}
);
width = 594;
}
);
},
{
glyphname = four.btf;
lastChange = "2025-01-10 04:45:03 +0000";
layers = (
{
background = {
shapes = (
{
closed = 1;
nodes = (
(478,0,l),
(478,24,l),
(432,32,o),
(401,46,o),
(401,73,cs),
(401,631,l),
(304,606,l),
(37,176,l),
(527,171,l),
(503,244,l),
(93,244,l),
(104,215,l),
(341,589,l),
(334,591,l),
(328,428,o),
(328,104,o),
(326,82,cs),
(322,30,o),
(270,33,o),
(238,25,c),
(238,0,l)
);
},
{
closed = 1;
nodes = (
(527,171,l),
(543,289,l),
(527,289,l),
(525,274,o),
(510,244,o),
(503,244,c)
);
}
);
};
layerId = m005;
shapes = (
{
closed = 1;
nodes = (
(410,0,l),
(410,631,l),
(313,606,l),
(46,171,l),
(523,171,l),
(523,231,l),
(102,231,l),
(113,215,l),
(350,589,l),
(338,591,l),
(332,428,o),
(332,22,o),
(330,0,c)
);
}
);
width = 594;
}
);
},
{
glyphname = five.btf;
lastChange = "2025-01-10 04:44:59 +0000";
layers = (
{
background = {
shapes = (
{
closed = 1;
nodes = (
(417,-11,o),
(512,83,o),
(512,216,cs),
(512,320,o),
(434,394,o),
(324,394,cs),
(252,394,o),
(195,360,o),
(174,321,c),
(185,321,l),
(210,572,l),
(193,553,l),
(459,544,l),
(475,662,l),
(459,662,l),
(455,636,o),
(445,617,o),
(435,617,c),
(169,616,l),
(137,288,l),
(191,290,l),
(207,323,o),
(249,353,o),
(304,353,cs),
(373,353,o),
(422,288,o),
(422,197,cs),
(422,99,o),
(370,29,o),
(296,29,c),
(283,-11,l)
);
},
{
closed = 1;
nodes = (
(296,29,l),
(235,29,o),
(192,59,o),
(192,102,cs),
(192,133,o),
(223,125,o),
(223,146,cs),
(223,173,o),
(204,192,o),
(176,192,cs),
(144,192,o),
(122,168,o),
(122,133,cs),
(122,49,o),
(189,-11,o),
(283,-11,c)
);
}
);
};
layerId = m005;
shapes = (
{
closed = 1;
nodes = (
(421,-11,o),
(516,83,o),
(516,216,cs),
(516,320,o),
(438,394,o),
(328,394,cs),
(256,394,o),
(199,360,o),
(178,321,c),
(189,321,l),
(214,572,l),
(197,553,l),
(463,544,l),
(487,678,l),
(471,678,l),
(467,652,o),
(449,617,o),
(439,617,c),
(173,616,l),
(141,288,l),
(195,290,l),
(211,323,o),
(253,353,o),
(308,353,cs),
(377,353,o),
(426,288,o),
(426,197,cs),
(426,99,o),
(374,29,o),
(300,29,c),
(287,-11,l)
);
},
{
closed = 1;
nodes = (
(300,29,l),
(239,29,o),
(196,59,o),
(196,102,cs),
(196,133,o),
(227,125,o),
(227,146,cs),
(227,173,o),
(208,192,o),
(180,192,cs),
(148,192,o),
(126,168,o),
(126,133,cs),
(126,49,o),
(193,-11,o),
(287,-11,c)
);
},
{
closed = 1;
nodes = (
(463,544,l),
(488,678,l),
(465,678,l),
(457,652,o),
(432,618,o),
(417,617,c)
);
}
);
width = 594;
}
);
},
{
glyphname = six.btf;
lastChange = "2025-01-10 04:44:55 +0000";
layers = (
{
background = {
shapes = (
{
closed = 1;
nodes = (
(419,-11,o),
(513,81,o),
(513,210,cs),
(513,318,o),
(433,395,o),
(319,395,cs),
(208,395,o),
(130,310,o),
(130,190,c),
(168,208,l),
(168,294,o),
(224,354,o),
(302,354,cs),
(373,354,o),
(423,291,o),
(423,201,cs),
(423,100,o),
(373,29,o),
(302,29,cs),
(224,29,o),
(168,103,o),
(168,208,cs),
(168,373,o),
(279,534,o),
(436,597,c),
(418,642,l),
(220,563,o),
(80,383,o),
(80,208,cs),
(80,80,o),
(165,-11,o),
(286,-11,cs)
);
}
);
};
layerId = m005;
shapes = (
{
closed = 1;
nodes = (
(423,-11,o),
(517,81,o),
(517,210,cs),
(517,318,o),
(437,395,o),
(323,395,cs),
(212,395,o),
(134,310,o),
(134,190,c),
(172,208,l),
(172,294,o),
(228,354,o),
(306,354,cs),
(377,354,o),
(427,291,o),
(427,201,cs),
(427,100,o),
(377,29,o),
(306,29,cs),
(228,29,o),
(172,103,o),
(172,208,cs),
(172,373,o),
(283,534,o),
(440,597,c),
(422,642,l),
(224,563,o),
(84,383,o),
(84,208,cs),
(84,80,o),
(169,-11,o),
(290,-11,cs)
);
}
);
width = 594;
}
);
},
{
glyphname = seven.btf;
lastChange = "2025-01-10 04:44:51 +0000";
layers = (
{
background = {
shapes = (
{
closed = 1;
nodes = (
(293,0,l),
(337,252,o),
(420,495,o),
(542,588,c),
(526,616,l),
(91,616,l),
(121,452,l),
(158,462,l),
(149,511,o),
(157,546,o),
(190,546,cs),
(457,546,l),
(459,569,l),
(315,391,o),
(229,155,o),
(204,0,c)
);
}
);
};
layerId = m005;
shapes = (
{
closed = 1;
nodes = (
(297,-1,l),
(341,251,o),
(424,494,o),
(546,587,c),
(530,615,l),
(95,615,l),
(114,449,l),
(141,453,l),
(130,510,o),
(149,545,o),
(181,545,cs),
(461,545,l),
(463,568,l),
(319,390,o),
(233,154,o),
(208,-1,c)
);
}
);
width = 594;
}
);
},
{
glyphname = eight.btf;
lastChange = "2025-01-10 04:44:48 +0000";
layers = (
{
background = {
shapes = (
{
closed = 1;
nodes = (
(424,-11,o),
(515,66,o),
(515,176,cs),
(515,270,o),
(426,337,o),
(300,337,cs),
(177,337,o),
(90,268,o),
(90,171,cs),
(90,64,o),
(175,-11,o),
(295,-11,cs)
);
},
{
closed = 1;
nodes = (
(233,29,o),
(180,89,o),
(180,174,cs),
(180,247,o),
(230,299,o),
(300,299,cs),
(373,299,o),
(425,246,o),
(425,170,cs),
(425,87,o),
(376,29,o),
(307,29,cs)
);
},
{
closed = 1;
nodes = (
(411,303,o),
(487,375,o),
(487,476,cs),
(487,564,o),
(410,626,o),
(301,626,cs),
(190,626,o),
(112,560,o),
(112,466,cs),
(112,371,o),
(192,303,o),
(304,303,cs)
);
},
{
closed = 1;
nodes = (
(235,340,o),
(192,394,o),
(192,470,cs),
(192,538,o),
(233,586,o),
(291,586,cs),
(359,586,o),
(407,538,o),
(407,470,cs),
(407,394,o),
(361,340,o),
(296,340,cs)
);
}
);
};
layerId = m005;
shapes = (
{
closed = 1;
nodes = (
(428,-11,o),
(519,66,o),
(519,176,cs),
(519,270,o),
(430,337,o),
(304,337,cs),
(181,337,o),
(94,268,o),
(94,171,cs),
(94,64,o),
(179,-11,o),
(299,-11,cs)
);
},
{
closed = 1;
nodes = (
(237,29,o),
(184,89,o),
(184,174,cs),
(184,247,o),
(234,299,o),
(304,299,cs),
(377,299,o),
(429,246,o),
(429,170,cs),
(429,87,o),
(380,29,o),
(311,29,cs)
);
},
{
closed = 1;
nodes = (
(415,303,o),
(491,375,o),
(491,476,cs),
(491,564,o),
(414,626,o),
(305,626,cs),
(194,626,o),
(116,560,o),
(116,466,cs),
(116,371,o),
(196,303,o),
(308,303,cs)
);
},
{
closed = 1;
nodes = (
(239,340,o),
(196,394,o),
(196,470,cs),
(196,538,o),
(237,586,o),
(295,586,cs),
(363,586,o),
(411,538,o),
(411,470,cs),
(411,394,o),
(365,340,o),
(300,340,cs)
);
}
);
width = 594;
}
);
},
{
glyphname = nine.btf;
lastChange = "2025-01-10 04:44:44 +0000";
layers = (
{
background = {
shapes = (
{
closed = 1;
nodes = (
(182,627,o),
(88,535,o),
(88,406,cs),
(88,298,o),
(168,221,o),
(282,221,cs),
(393,221,o),
(471,306,o),
(471,426,c),
(433,408,l),
(433,322,o),
(377,262,o),
(299,262,cs),
(228,262,o),
(178,325,o),
(178,415,cs),
(178,516,o),
(228,587,o),
(299,587,cs),
(377,587,o),
(433,513,o),
(433,408,cs),
(433,243,o),
(322,82,o),
(165,19,c),
(183,-26,l),
(381,53,o),
(521,233,o),
(521,408,cs),
(521,536,o),
(436,627,o),
(315,627,cs)
);
},
{
closed = 1;
nodes = (
(182,627,o),
(88,535,o),
(88,406,cs),
(88,298,o),
(168,221,o),
(282,221,cs),
(393,221,o),
(471,306,o),
(471,426,c),
(433,408,l),
(433,322,o),
(377,262,o),
(299,262,cs),
(228,262,o),
(178,325,o),
(178,415,cs),
(178,516,o),
(228,587,o),
(299,587,cs),
(377,587,o),
(433,513,o),
(433,408,cs),
(433,243,o),
(322,82,o),
(165,19,c),
(183,-26,l),
(381,53,o),
(521,233,o),
(521,408,cs),
(521,536,o),
(436,627,o),
(315,627,cs)
);
}
);
};
layerId = m005;
shapes = (
{
closed = 1;
nodes = (
(186,627,o),
(92,535,o),
(92,406,cs),
(92,298,o),
(172,221,o),
(286,221,cs),
(397,221,o),
(475,306,o),
(475,426,c),
(437,408,l),
(437,322,o),
(381,262,o),
(303,262,cs),
(232,262,o),
(182,325,o),
(182,415,cs),
(182,516,o),
(232,587,o),
(303,587,cs),
(381,587,o),
(437,513,o),
(437,408,cs),
(437,243,o),
(326,82,o),
(169,19,c),
(187,-26,l),
(385,53,o),
(525,233,o),
(525,408,cs),
(525,536,o),
(440,627,o),
(319,627,cs)
);
}
);
width = 594;
},
{
associatedMasterId = m005;
background = {
shapes = (
{
closed = 1;
nodes = (
(182,627,o),
(88,535,o),
(88,406,cs),
(88,298,o),
(168,221,o),
(282,221,cs),
(393,221,o),
(471,306,o),
(471,426,c),
(433,408,l),
(433,322,o),
(377,262,o),
(299,262,cs),
(228,262,o),
(178,325,o),
(178,415,cs),
(178,516,o),
(228,587,o),
(299,587,cs),
(377,587,o),
(433,513,o),
(433,408,cs),
(433,243,o),
(322,82,o),
(165,19,c),
(183,-26,l),
(381,53,o),
(521,233,o),
(521,408,cs),
(521,536,o),
(436,627,o),
(315,627,cs)
);
}
);
};
layerId = "8880FCC1-7A68-4D74-A1C2-63291C007941";
name = "29. Dez. 24, 15:16";
shapes = (
{
closed = 1;
nodes = (
(384,48,o),
(523,228,o),
(523,397,cs),
(523,530,o),
(432,624,o),
(303,624,cs),
(174,624,o),
(83,530,o),
(83,397,cs),
(83,283,o),
(159,203,o),
(266,203,cs),
(397,203,o),
(489,263,o),
(489,347,c),
(441,351,l),
(441,290,o),
(385,246,o),
(305,246,cs),
(226,246,o),
(170,319,o),
(170,423,cs),
(170,517,o),
(224,584,o),
(301,584,cs),
(379,584,o),
(434,497,o),
(434,373,cs),
(434,211,o),
(326,66,o),
(173,21,c),
(187,-39,l)
);
}
);
width = 600;
}
);
},
{
glyphname = zero.lf;
lastChange = "2025-01-10 18:14:25 +0000";
layers = (
{
hints = (
{
horizontal = 1;
place = (414,37);
type = Stem;
},
{
horizontal = 1;
place = (-8,37);
type = Stem;
},
{
place = (402,84);
type = Stem;
},
{
place = (34,84);
type = Stem;
}
);
layerId = m005;
shapes = (
{
closed = 1;
nodes = (
(378,-11,o),
(468,130,o),
(468,329,cs),
(468,512,o),
(378,641,o),
(250,641,cs),
(125,641,o),
(36,512,o),
(36,329,cs),
(36,130,o),
(125,-11,o),
(250,-11,cs)
);
},
{
closed = 1;
nodes = (
(204,22,o),
(137,141,o),
(121,316,cs),
(108,474,o),
(147,591,o),
(217,599,cs),
(301,606,o),
(368,499,o),
(380,340,cs),
(394,166,o),
(354,37,o),
(283,29,cs)
);
}
);
width = 504;
}
);
},
{
glyphname = one.lf;
lastChange = "2025-01-10 18:14:25 +0000";
layers = (
{
hints = (
{
horizontal = 1;
place = (415,33);
type = Stem;
},
{
horizontal = 1;
place = (0,34);
type = Stem;
},
{
place = (119,75);
type = Stem;
}
);
layerId = m005;
shapes = (
{
closed = 1;
nodes = (
(306,0,l),
(306,24,l),
(288,28,o),
(246,37,o),
(235,45,cs),
(220,56,o),
(208,82,o),
(208,103,cs),
(208,137,o),
(208,403,o),
(208,478,cs),
(208,530,o),
(212,604,o),
(218,645,c),
(36,595,l),
(36,567,l),
(92,567,o),
(136,543,o),
(136,512,cs),
(136,451,o),
(136,107,o),
(136,84,cs),
(136,75,o),
(124,59,o),
(108,48,cs),
(97,39,o),
(52,29,o),
(30,25,c),
(30,0,l)
);
}
);
width = 306;
}
);
},
{
glyphname = two.lf;
lastChange = "2025-01-10 18:14:25 +0000";
layers = (
{
background = {
shapes = (
{
closed = 1;
nodes = (
(137,339,o),
(156,366,o),
(178,377,cs),
(266,422,o),
(338,498,o),
(338,560,cs),
(338,614,o),
(287,652,o),
(230,652,cs),
(185,652,o),
(124,617,o),
(82,567,c),
(98,545,l),
(126,571,o),
(172,590,o),
(199,590,cs),
(229,590,o),
(251,565,o),
(251,530,cs),
(251,483,o),
(193,414,o),
(110,362,c),
(126,332,l)
);
}
);
};
hints = (
{
horizontal = 1;
place = (392,61);
type = Stem;
},
{
horizontal = 1;
place = (0,65);
type = Stem;
},
{
place = (247,92);
type = Stem;
}
);
layerId = m005;
shapes = (
{
closed = 1;
nodes = (
(385,0,l),
(432,107,l),
(332,81,o),
(190,63,o),
(90,63,c),
(94,59,l),
(252,244,o),
(372,365,o),
(372,480,cs),
(372,582,o),
(313,654,o),
(229,654,cs),
(164,654,o),
(97,607,o),
(67,540,c),
(78,524,l),
(106,563,o),
(153,590,o),
(193,590,cs),
(249,590,o),
(289,534,o),
(289,456,cs),
(289,337,o),
(221,281,o),
(148,190,cs),
(18,26,l),
(24,0,l)
);
}
);
width = 450;
}
);
},
{
glyphname = three.lf;
lastChange = "2025-01-10 18:14:26 +0000";
layers = (
{
hints = (
{
horizontal = 1;
place = (387,62);
type = Stem;
},
{
horizontal = 1;
place = (145,47);
type = Stem;
},
{
horizontal = 1;
place = (-238,77);
type = Stem;
},
{
place = (213,88);
type = Stem;
}
);
layerId = m005;
shapes = (
{
closed = 1;
nodes = (
(192,7,o),
(312,143,o),
(312,270,cs),
(312,341,o),
(267,391,o),
(203,391,cs),
(177,391,o),
(141,382,o),
(116,370,cs),
(142,385,o),
(121,381,o),
(65,362,c),
(81,332,l),
(97,340,o),
(123,346,o),
(143,346,cs),
(196,346,o),
(234,302,o),
(234,239,cs),
(234,156,o),
(143,52,o),
(15,1,c),
(23,-32,l)
);
},
{
closed = 1;
nodes = (
(92,339,o),
(111,366,o),
(133,377,cs),
(221,422,o),
(293,498,o),
(293,560,cs),
(293,614,o),
(242,652,o),
(185,652,cs),
(140,652,o),
(79,617,o),
(37,567,c),
(53,545,l),
(81,571,o),
(127,590,o),
(154,590,cs),
(184,590,o),
(206,565,o),
(206,530,cs),
(206,483,o),
(148,414,o),
(65,362,c),
(81,332,l)
);
}
);
width = 342;
}
);
},
{
glyphname = four.lf;
lastChange = "2025-01-10 18:14:26 +0000";
layers = (
{
hints = (
{
horizontal = 1;
place = (0,54);
type = Stem;
},
{
horizontal = 1;
place = (420,21);
target = up;
type = BottomGhost;
},
{
place = (309,77);
type = Stem;
}
);
layerId = m005;
shapes = (
{
closed = 1;
nodes = (
(387,1,l),
(387,214,o),
(387,428,o),
(392,641,c),
(347,641,l),
(26,259,l),
(26,215,l),
(173,215,o),
(320,209,o),
(467,205,c),
(467,281,l),
(330,278,o),
(192,275,o),
(55,275,c),
(58,244,l),
(344,580,l),
(317,558,l),
(307,372,o),
(307,201,o),
(307,1,c)
);
}
);
width = 486;
}
);
},
{
glyphname = five.lf;
lastChange = "2025-01-10 18:14:26 +0000";
layers = (
{
hints = (
{
horizontal = 1;
place = (376,68);
type = Stem;
},
{
place = (188,77);
type = Stem;
}
);
layerId = m005;
shapes = (
{
closed = 1;
nodes = (
(180,22,o),
(295,147,o),
(295,264,cs),
(295,362,o),
(203,463,o),
(73,508,c),
(72,475,l),
(124,612,l),
(86,569,l),
(168,574,o),
(250,570,o),
(332,559,c),
(368,641,l),
(104,641,l),
(36,458,l),
(146,393,o),
(223,300,o),
(223,232,cs),
(223,153,o),
(131,59,o),
(0,-2,c),
(17,-37,l)
);
}
);
width = 378;
}
);
},
{
glyphname = six.lf;
lastChange = "2025-01-10 18:14:26 +0000";
layers = (
{
hints = (
{
horizontal = 1;
place = (317,50);
type = Stem;
},
{
horizontal = 1;
place = (-5,36);
type = Stem;
},
{
horizontal = 1;
place = (685,21);
target = up;
type = BottomGhost;
},
{
place = (347,80);
type = Stem;
},
{
place = (37,87);
type = Stem;
}
);
layerId = m005;
shapes = (
{
closed = 1;
nodes = (
(350,-11,o),
(433,74,o),
(433,195,cs),
(433,299,o),
(358,373,o),
(259,373,cs),
(223,373,o),
(182,357,o),
(160,335,c),
(176,312,l),
(188,321,o),
(210,328,o),
(228,328,cs),
(299,328,o),
(349,263,o),
(349,171,cs),
(349,88,o),
(303,29,o),
(239,29,cs),
(172,29,o),
(124,129,o),
(124,270,cs),
(124,439,o),
(267,597,o),
(470,666,c),
(454,710,l),
(212,626,o),
(40,433,o),
(40,238,cs),
(40,92,o),
(123,-11,o),
(240,-11,cs)
);
}
);
width = 468;
}
);
},
{
glyphname = seven.lf;
lastChange = "2025-01-10 18:14:26 +0000";
layers = (
{
hints = (
{
horizontal = 1;
place = (375,66);
type = Stem;
}
);
layerId = m005;
shapes = (
{
closed = 1;
nodes = (
(128,-47,l),
(488,641,l),
(67,641,l),
(27,549,l),
(159,566,o),
(291,576,o),
(423,577,c),
(413,607,l),
(86,-16,l)
);
}
);
width = 468;
}
);
},
{
glyphname = eight.lf;
lastChange = "2025-01-10 18:14:26 +0000";
layers = (
{
hints = (
{
horizontal = 1;
place = (659,47);
type = Stem;
},
{
horizontal = 1;
place = (-9,38);
type = Stem;
},
{
place = (303,64);
type = Stem;
},
{
place = (28,73);
type = Stem;
}
);
layerId = m005;
shapes = (
{
closed = 1;
nodes = (
(320,-11,o),
(396,59,o),
(396,159,c),
(396,313,o),
(130,383,o),
(130,503,cs),
(130,570,o),
(165,616,o),
(218,616,c),
(218,652,l),
(124,652,o),
(58,578,o),
(58,474,cs),
(58,313,o),
(326,232,o),
(326,131,c),
(326,69,o),
(279,25,o),
(212,25,c),
(212,-11,l)
);
},
{
closed = 1;
nodes = (
(212,25,l),
(151,25,o),
(108,77,o),
(108,151,cs),
(108,211,o),
(150,277,o),
(210,313,c),
(181,328,l),
(97,281,o),
(38,202,o),
(38,124,cs),
(38,45,o),
(110,-11,o),
(212,-11,c)
);
},
{
closed = 1;
nodes = (
(218,616,l),
(279,616,o),
(312,564,o),
(312,490,cs),
(312,431,o),
(270,373,o),
(210,337,c),
(239,322,l),
(323,369,o),
(382,440,o),
(382,517,cs),
(382,597,o),
(320,652,o),
(218,652,c)
);
}
);
width = 432;
}
);
},
{
glyphname = nine.lf;
lastChange = "2025-01-10 18:14:26 +0000";
layers = (
{
hints = (
{
horizontal = 1;
place = (411,37);
type = Stem;
},
{
horizontal = 1;
place = (82,51);
type = Stem;
},
{
place = (331,87);
type = Stem;
},
{
place = (33,79);
type = Stem;
}
);
layerId = m005;
shapes = (
{
closed = 1;
nodes = (
(126,652,o),
(43,574,o),
(43,463,cs),
(43,367,o),
(118,300,o),
(217,300,cs),
(253,300,o),
(294,314,o),
(316,334,c),
(300,355,l),
(288,347,o),
(266,341,o),
(248,341,cs),
(177,341,o),
(127,400,o),
(127,485,cs),
(127,561,o),
(173,615,o),
(237,615,cs),
(304,615,o),
(352,523,o),
(352,394,cs),
(352,239,o),
(209,67,o),
(6,3,c),
(22,-37,l),
(264,40,o),
(436,244,o),
(436,423,cs),
(436,557,o),
(353,652,o),
(236,652,cs)
);
}
);
width = 468;
}
);
},
{
glyphname = zero.osf;
lastChange = "2025-01-10 17:46:36 +0000";
layers = (
{
hints = (
{
horizontal = 1;
place = (414,37);
type = Stem;
},
{
horizontal = 1;
place = (-8,37);
type = Stem;
},
{
place = (402,84);
type = Stem;
},
{
place = (34,84);
type = Stem;
}
);
layerId = m005;
shapes = (
{
closed = 1;
nodes = (
(378,-11,o),
(468,89,o),
(468,230,cs),
(468,359,o),
(378,451,o),
(250,451,cs),
(124,451,o),
(36,359,o),
(36,230,cs),
(36,89,o),
(124,-11,o),
(250,-11,cs)
);
},
{
closed = 1;
nodes = (
(301,22,o),
(208,55,o),
(140,153,cs),
(81,238,o),
(79,330,o),
(135,370,cs),
(202,417,o),
(292,392,o),
(352,303,cs),
(418,208,o),
(424,109,o),
(366,68,cs)
);
}
);
width = 504;
}
);
},
{
glyphname = one.osf;
lastChange = "2025-01-10 17:46:36 +0000";
layers = (
{
hints = (
{
horizontal = 1;
place = (415,33);
type = Stem;
},
{
horizontal = 1;
place = (0,34);
type = Stem;
},
{
place = (119,75);
type = Stem;
}
);
layerId = m005;
shapes = (
{
closed = 1;
nodes = (
(288,0,l),
(288,24,l),
(270,28,o),
(246,37,o),
(235,45,cs),
(220,56,o),
(208,82,o),
(208,103,cs),
(208,137,o),
(208,209,o),
(208,284,cs),
(208,336,o),
(212,410,o),
(218,451,c),
(36,401,l),
(36,373,l),
(92,373,o),
(136,349,o),
(136,318,cs),
(136,257,o),
(136,107,o),
(136,84,cs),
(136,75,o),
(124,59,o),
(108,48,cs),
(97,39,o),
(70,29,o),
(48,25,c),
(48,0,l)
);
}
);
width = 306;
}
);
},
